<svg id="All" xmlns="http://www.w3.org/2000/svg" xmlns:xlink="http://www.w3.org/1999/xlink" viewBox="0 0 3203.83606 2088.00551"><defs><style>.cls-1{fill:#2a4e96;}.cls-12,.cls-2,.cls-20,.cls-8{fill:#fff;}.cls-2,.cls-29,.cls-3,.cls-7{stroke:#263238;}.cls-11,.cls-2,.cls-29,.cls-3,.cls-30,.cls-7{stroke-linecap:round;stroke-linejoin:round;}.cls-18,.cls-3{fill:#263238;}.cls-4{fill:#0f4c81;}.cls-5{fill:#d9e9fe;}.cls-6{fill:#fb7369;}.cls-11,.cls-29,.cls-30,.cls-7{fill:none;}.cls-8{opacity:0.5;}.cls-9{clip-path:url(#clip-path);}.cls-10{fill:#1e3d70;}.cls-11,.cls-30{stroke:#fff;}.cls-13{clip-path:url(#clip-path-2);}.cls-14{clip-path:url(#clip-path-3);}.cls-15{clip-path:url(#clip-path-4);}.cls-16{clip-path:url(#clip-path-5);}.cls-17{clip-path:url(#clip-path-6);}.cls-19{clip-path:url(#clip-path-7);}.cls-20{opacity:0.53;}.cls-21{opacity:0.14;}.cls-22{clip-path:url(#clip-path-8);}.cls-23{clip-path:url(#clip-path-9);}.cls-24{clip-path:url(#clip-path-10);}.cls-25{clip-path:url(#clip-path-11);}.cls-26{clip-path:url(#clip-path-12);}.cls-27{clip-path:url(#clip-path-13);}.cls-28{clip-path:url(#clip-path-14);}.cls-29{stroke-width:2px;}.cls-30{stroke-width:0.75px;}.cls-31{clip-path:url(#clip-path-15);}.cls-32{fill:#3a4ace;}.cls-33{fill:#f2564b;}</style><clipPath id="clip-path"><path class="cls-1" d="M2494.06788,1146.49546s87.96023-10.41623,145.82894,34.72123,107.63552,233.78884,106.47834,324.06376c-1.1575,90.27525-34.72121,135.41271-119.20926,172.44862-84.48838,37.0359-241.89072,23.14714-329.851-4.6297s-116.89458-124.99615-115.73707-177.07765c1.15717-52.08183,59.02588-112.26522,78.70117-124.99614,19.67527-12.73125,75.229-39.35059,103.00616-81.01619C2391.06205,1248.34412,2431.57014,1158.0692,2494.06788,1146.49546Z"/></clipPath><clipPath id="clip-path-2"><path class="cls-2" d="M2497.18856,1155.77613s31.51511,10.1299,36.01751,18.00859c4.50207,7.879,1.12543,63.03057,1.12543,69.78383s-3.93951-3.93952-7.31614-11.81821-15.19484-19.6969-19.134-18.57147c-3.93952,1.12543-6.19072,5.62783-6.19072,12.94364,0,7.31615-9.00412,17.446-16.88315,23.07387-7.8787,5.6275-15.19485,11.25533-15.19485,11.25533s-16.32027-23.63642-20.25978-29.8268c-3.93918-6.19072-3.37664-19.13436-3.93918-23.63642-.56289-4.5024-10.69278,12.38076-12.944,7.87869-2.25086-4.50206,5.06495-8.44158,12.944-20.82267,7.87869-12.38076,5.62749-25.32474,17.4457-34.32886C2474.67757,1150.71119,2488.1841,1153.52493,2497.18856,1155.77613Z"/></clipPath><clipPath id="clip-path-3"><path class="cls-2" d="M2571.75572,1383.98s19.41563-27.85721,43.052-30.38968,52.33779,16.88315,53.182,23.63642,6.75326,43.05205,2.53247,48.117-20.25979,9.28574-51.49363-.84415S2575.13235,1401.70734,2571.75572,1383.98Z"/></clipPath><clipPath id="clip-path-4"><path class="cls-2" d="M2637.6,1391.57745s31.67956,12.57424,32.92216,37.14294c.68782,13.59432-21.9481,19.41564-45.58452,19.41564s-57.40274-29.54553-79.35084-42.2079-72.59757-42.20789-78.50668-44.74036-26.16889,4.22079-34.61047,6.75326-24.48058,2.53247-24.48058,2.53247-11.81821,18.57148-17.72731,18.57148,12.66236-27.85721,15.19484-33.76632,43.89621-19.41563,48.96115-19.41563,123.247,29.54553,140.97436,36.29879S2637.6,1391.57745,2637.6,1391.57745Z"/></clipPath><clipPath id="clip-path-5"><polygon class="cls-2" points="2416.431 1348.525 2506.861 1412.484 2300.042 1406.574 2230.716 1349.37 2416.431 1348.525"/></clipPath><clipPath id="clip-path-6"><path class="cls-2" d="M2348.0539,1411.83724s-74.28589-65.00016-147.72763-86.94826-88.63657-18.57147-86.94825,14.35068,37.14294,205.13036,60.77936,249.02657,53.18195,124.0912,52.33779,139.28605-29.54553,59.9352-54.87026,75.9742-22.79226,35.45463-6.75326,38.83126,34.61047,9.28574,89.48073-26.16889,77.66252-86.1041,74.28589-98.76647-38.83127-29.54552-53.182-54.87026-37.9871-119.87041-39.67542-162.92247-16.88315-79.35083-16.88315-79.35083,92.85736,16.88315,119.87041,33.76631Z"/></clipPath><clipPath id="clip-path-7"><path class="cls-3" d="M2275.45632,1662.55212a63.04957,63.04957,0,0,0,3.58767,5.53464c-13.0213,1.46208-31.80955,6.07523-47.48388,19.7901a153.673,153.673,0,0,0-11.54369,11.16213c-16.18318-21.71782-34.3741-90.32354-54.91212-118.54-53.06312-72.90214-50.038-208.33714-51.72628-241.2593s13.50652-36.29879,86.94825-14.35068,147.72763,86.94826,147.72763,86.94826l-9.28574,42.20789c-27.01305-16.88316-119.87041-33.76631-119.87041-33.76631s15.19484,36.29878,16.88315,79.35083S2261.10564,1637.22739,2275.45632,1662.55212Z"/></clipPath><clipPath id="clip-path-8"><path class="cls-2" d="M2569.22325,1425.34376s27.01305,15.19484,36.29879,32.078-30.671,45.022-72.87885,43.33366-119.58914-47.55445-119.58914-47.55445-.84416,74.28589-15.19484,101.29895-80.195,92.85736-106.36389,109.74052-113.96131,80.195-127.46783,90.32489-38.83126,28.70136-44.74037,29.54552-67.53262-74.28589-81.88331-99.61062-27.01305-78.50669-21.9481-90.3249,15.19484-1.68831,25.32473,6.75327,102.98726,70.0651,111.42884,74.28589a92.64556,92.64556,0,0,0,14.35068,5.9091s75.97421-72.59757,116.49378-128.312,43.89621-127.46784,59.09105-154.48089,37.143-38.83126,70.0651-35.45463S2513.50883,1383.98,2569.22325,1425.34376Z"/></clipPath><clipPath id="clip-path-9"><path class="cls-3" d="M2171.80117,1676.04818c17.85225-17.415,84.82165-107.26781,111.25021-158.92386,38.729-75.69732,42.89875-101.49648,58.09359-128.50953s38.14277-29.11534,71.06492-25.73871,91.82648,9.48732,164.10091,50.47895c0,0,30.337,16.49113,39.62274,33.37429s-24.52042,59.3963-83.29035,54.0261c-42.06641-3.84429-119.58914-47.55445-119.58914-47.55445s-.84416,74.28589-15.19484,101.29895-80.195,92.85736-106.36389,109.74052c-16.59513,10.707-57.95819,40.07521-89.45709,62.72126C2194.13522,1698.69255,2180.181,1683.20394,2171.80117,1676.04818Z"/></clipPath><clipPath id="clip-path-10"><path class="cls-2" d="M2037.40381,1684.50023c-14.35068-25.32474-27.01305-78.50669-21.9481-90.3249,2.9346-6.84679,7.57344-6.30856,12.923-3.018-3.55357,15.79487.03478,46.22035,17.46664,78.99224,15.55513,29.24332,63.64,80.924,87.867,106.09748-6.57529,4.33356-12.062,7.52617-14.42528,7.86383C2113.378,1784.955,2051.7545,1709.825,2037.40381,1684.50023Z"/></clipPath><clipPath id="clip-path-11"><path class="cls-2" d="M2171.62491,1803.52648c7.47687-4.73538,15.23536-12.00088,22.49714-20.24088,17.42376-7.3982,40.66883-17.00674,61.07448-29.56443,21.94811-13.50653,16.88316-21.9481,29.54553-34.61047,9.71625-9.71626,28.83305-10.97844,37.22263-11.04192,3.46206,3.3692,5.90573,6.474,6.67358,9.3536,3.37663,12.66237-19.41563,63.31184-74.28589,98.76647s-73.44174,29.54553-89.48073,26.16889S2146.30017,1819.56548,2171.62491,1803.52648Z"/></clipPath><clipPath id="clip-path-12"><path class="cls-3" d="M2167.40412,1809.43559c21.9481-12.66237,66.68847-21.10395,95.38983-40.51958s21.10395-36.29879,42.2079-49.80531c9.69633-6.20558,17.78235-4.74282,23.69821-1.35437,2.93125,13.16346-19.91875,63.26322-74.34768,98.43252-54.87026,35.45463-73.44174,29.54553-89.48073,26.16889-10.66037-2.24444-15.29176-11.58285-9.80439-22.29792A46.32268,46.32268,0,0,1,2167.40412,1809.43559Z"/></clipPath><clipPath id="clip-path-13"><path class="cls-2" d="M2506.23827,1112.00756s-3.93141,42.64888-5.587,56.10071c-1.6559,13.45182-5.43266,52.16456-9.31545,64.96537-3.88312,12.80115-25.03468,35.0599-27.085,29.91054-2.04993-5.1497-12.50905-39.91685-8.31628-60.59061,4.1931-20.67376,5.46372-38.64622,2.85122-43.81787s-11.95091-11.17125-11.95091-11.17125a332.6874,332.6874,0,0,0,31.70319-18.46477C2493.57928,1118.83072,2504.166,1107.42007,2506.23827,1112.00756Z"/></clipPath><clipPath id="clip-path-14"><path class="cls-2" d="M2507.8111,1118.0963s-24.31647,20.354-42.97708,27.7029-47.30492,6.95654-51.33155-2.75533c-4.027-9.71153,7.07606-86.43467,16.68933-106.63233s19.91434-20.52722,36.87653-22.06393c16.96217-1.537,50.95607,12.29331,56.92427,28.69529,5.96819,16.40165-.82559,39.64976-5.77674,53.4173C2513.265,1110.2274,2507.8111,1118.0963,2507.8111,1118.0963Z"/></clipPath><clipPath id="clip-path-15"><path class="cls-2" d="M2500.51994,1097.9682s10.90754-15.73746,22.41611-9.4056c11.50857,6.33152,2.54226,28.75944-4.37883,36.57027-6.92107,7.81116-20.31313-6.67831-21.63643-10.40476"/></clipPath></defs><title>banner</title><path class="cls-4" d="M1818.28272,1487.07838c-25.242-206.15314,97.05857-480.15091,223.86019-593.29575,228.91332-204.25987,419.08858-164.7597,567.00124-91.59383,147.91367,73.16552,169.044,317.4199,271.17489,427.93333,102.13061,110.51343,160.2269,259.1595,5.26991,407.13261-154.957,147.97344-279.96629,72.783-441.96693,63.40672-162.00031-9.37623-376.82632,64.5075-493.04963.25932C1869.4191,1656.05785,1829.43979,1578.19509,1818.28272,1487.07838Z"/><path class="cls-5" d="M1818.28272,1487.07838c-25.242-206.15314,97.05857-480.15091,223.86019-593.29575,228.91332-204.25987,419.08858-164.7597,567.00124-91.59383,147.91367,73.16552,169.044,317.4199,271.17489,427.93333,102.13061,110.51343,160.2269,259.1595,5.26991,407.13261-154.957,147.97344-279.96629,72.783-441.96693,63.40672-162.00031-9.37623-376.82632,64.5075-493.04963.25932C1869.4191,1656.05785,1829.43979,1578.19509,1818.28272,1487.07838Z"/><path class="cls-4" d="M-804.46292,134.85216c-36.5347-298.38088,140.48014-694.95839,324.00963-858.72139,331.3234-295.64061,606.57829-238.46905,820.66337-132.57062,214.08654,105.89795,244.67,459.42561,392.49174,619.38,147.82128,159.95437,231.9084,375.101,7.62753,589.27353C516.0485,566.38671,335.11317,457.55788,100.6375,443.987c-234.47518-13.57092-545.409,93.36654-713.62768.37534C-730.4494,379.42881-788.31446,266.73221-804.46292,134.85216Z"/><path class="cls-5" d="M-804.46292,134.85216c-36.5347-298.38088,140.48014-694.95839,324.00963-858.72139,331.3234-295.64061,606.57829-238.46905,820.66337-132.57062,214.08654,105.89795,244.67,459.42561,392.49174,619.38,147.82128,159.95437,231.9084,375.101,7.62753,589.27353C516.0485,566.38671,335.11317,457.55788,100.6375,443.987c-234.47518-13.57092-545.409,93.36654-713.62768.37534C-730.4494,379.42881-788.31446,266.73221-804.46292,134.85216Z"/><path class="cls-6" d="M-1472.37781,1573.31023c-36.5347-298.38089,140.48014-694.95839,324.00963-858.7214,331.3234-295.64061,606.57829-238.46905,820.66337-132.57061,214.08654,105.89794,244.67,459.4256,392.49173,619.38,147.82129,159.95437,231.9084,375.101,7.62754,589.27353-224.28085,214.173-405.21619,105.34422-639.69186,91.7733-234.47517-13.57092-545.409,93.36655-713.62767.37534C-1398.3643,1817.88687-1456.22935,1705.19027-1472.37781,1573.31023Z"/><path class="cls-6" d="M-1472.37781,1573.31023c-36.5347-298.38089,140.48014-694.95839,324.00963-858.7214,331.3234-295.64061,606.57829-238.46905,820.66337-132.57061,214.08654,105.89794,244.67,459.4256,392.49173,619.38,147.82129,159.95437,231.9084,375.101,7.62754,589.27353-224.28085,214.173-405.21619,105.34422-639.69186,91.7733-234.47517-13.57092-545.409,93.36655-713.62767.37534C-1398.3643,1817.88687-1456.22935,1705.19027-1472.37781,1573.31023Z"/><path class="cls-6" d="M2174.52074,107.27769C2137.986-191.10319,2315.00088-587.6807,2498.53037-751.4437c331.3234-295.64061,606.57829-238.469,820.66337-132.57061,214.08654,105.89794,244.67,459.4256,392.49174,619.38,147.82128,159.95437,231.9084,375.101,7.62753,589.27353-224.28085,214.17305-405.21619,105.34422-639.69185,91.7733-234.47518-13.57092-545.409,93.36655-713.62768.37534C2248.53426,351.85434,2190.6692,239.15774,2174.52074,107.27769Z"/><path class="cls-6" d="M2174.52074,107.27769C2137.986-191.10319,2315.00088-587.6807,2498.53037-751.4437c331.3234-295.64061,606.57829-238.469,820.66337-132.57061,214.08654,105.89794,244.67,459.4256,392.49174,619.38,147.82128,159.95437,231.9084,375.101,7.62753,589.27353-224.28085,214.17305-405.21619,105.34422-639.69185,91.7733-234.47518-13.57092-545.409,93.36655-713.62768.37534C2248.53426,351.85434,2190.6692,239.15774,2174.52074,107.27769Z"/><line class="cls-7" x1="2459.34699" y1="1479.81828" x2="2459.34699" y2="720.28083"/><polyline class="cls-7" points="2953.062 1487.331 2473.944 1487.331 1746.053 1722.283"/><path class="cls-6" d="M2734.80109,1469.51854h33.18925V922.28578h-68.3079l29.48441-106.39934h88.45254l29.48406,106.39934H2778.7959v547.23276h33.18891a32.40138,32.40138,0,0,1,32.38628,31.80146c.00709.08171.03106.16275.03106.2448,0,.03546-.01215.07024-.01351.10535.001.08948.01351.17593.01351.26541v.00033h-.04727c-.991,7.63254-32.341,13.75978-70.89744,13.75978-38.55674,0-69.90639-6.12724-70.89745-13.75978h-.17591v-.00033A32.417,32.417,0,0,1,2734.80109,1469.51854Z"/><path class="cls-3" d="M2293.95688,682.61586v644.34536l-485.11049,79.81107V602.80479ZM1821.42063,867.113l246.66123,13.97047V657.23609l-246.66123-39.25064Zm246.66123,37.53328-246.66123-11.30935v225.08861l246.66123-11.53119Zm20.014,201.3124,197.70852-9.24251V914.62893l-197.70852-9.0649Zm0-445.53807V882.217l197.70852,11.19792V691.88168Zm197.70852,457.50958-197.70852,11.37554v219.85078l197.70852-31.46075Zm-217.72249,234.41116V1130.45748l-246.66123,14.192v246.94217Z"/><ellipse class="cls-4" cx="2461.27513" cy="1679.66894" rx="388.13187" ry="120.93135"/><ellipse class="cls-8" cx="2461.27513" cy="1679.66894" rx="388.13187" ry="120.93135"/><path class="cls-1" d="M2494.06788,1146.49546s87.96023-10.41623,145.82894,34.72123,107.63552,233.78884,106.47834,324.06376c-1.1575,90.27525-34.72121,135.41271-119.20926,172.44862-84.48838,37.0359-241.89072,23.14714-329.851-4.6297s-116.89458-124.99615-115.73707-177.07765c1.15717-52.08183,59.02588-112.26522,78.70117-124.99614,19.67527-12.73125,75.229-39.35059,103.00616-81.01619C2391.06205,1248.34412,2431.57014,1158.0692,2494.06788,1146.49546Z"/><g class="cls-9"><path class="cls-10" d="M2281.18208,1666.94917c33.2588-4.48991,72.7002-13.51767,102.55637-31.64444,63.03059-38.26871,78.788-110.3034,101.299-137.31646s63.03058-24.76185,81.03915-54.0261-11.25531-245.36866,40.51958-258.87519c13.91275-3.6292,24.38672-4.807,32.30256-4.60809.32956.2519.67059.48185.99813.73746,57.86871,45.13746,107.63552,233.78918,106.478,324.0641-1.15718,90.27491-34.72089,135.41271-119.20927,172.44828-84.488,37.03591-241.89039,23.14782-329.85063-4.62936A148.33445,148.33445,0,0,1,2281.18208,1666.94917Z"/></g><path class="cls-3" d="M2528.70367,1187.29125s57.40274,10.97405,67.53263,21.10394,52.33779,168.83158,52.33779,168.83158-18.57148-5.06495-35.45463,1.68831-18.57148,24.48058-20.25979,32.92216-2.53248,30.38968-2.53248,30.38968-170.634-15.24346-206.9328-23.685-91.54083-12.323-91.54083-12.323,93.34328-210.486,107.694-218.08345,74.28589-8.44158,82.72747-6.75327S2528.70367,1187.29125,2528.70367,1187.29125Z"/><line class="cls-11" x1="2585.26225" y1="1382.29171" x2="2570.91156" y2="1264.95377"/><line class="cls-11" x1="2574.2882" y1="1296.18761" x2="2554.87257" y2="1270.86288"/><path class="cls-11" d="M2516.0413,1311.38245s-54.87025-17.72731-91.169-17.72731"/><path class="cls-11" d="M2464.25085,1262.98418l3.67346,28.13848s-9.28574,0-10.1299,4.22079,3.37664,8.44158,3.37664,8.44158-26.1689,14.35069-29.54553,31.23384"/><path class="cls-12" d="M2497.18856,1155.77613s31.51511,10.1299,36.01751,18.00859c4.50207,7.879,1.12543,63.03057,1.12543,69.78383s-3.93951-3.93952-7.31614-11.81821-15.19484-19.6969-19.134-18.57147c-3.93952,1.12543-6.19072,5.62783-6.19072,12.94364,0,7.31615-9.00412,17.446-16.88315,23.07387-7.8787,5.6275-15.19485,11.25533-15.19485,11.25533s-16.32027-23.63642-20.25978-29.8268c-3.93918-6.19072-3.37664-19.13436-3.93918-23.63642-.56289-4.5024-10.69278,12.38076-12.944,7.87869-2.25086-4.50206,5.06495-8.44158,12.944-20.82267,7.87869-12.38076,5.62749-25.32474,17.4457-34.32886C2474.67757,1150.71119,2488.1841,1153.52493,2497.18856,1155.77613Z"/><g class="cls-13"><path class="cls-4" d="M2533.20607,1173.78472c3.00417,5.25742,2.50006,31.55293,1.83216,50.48267-7.17635-9.26345-21.99369-26.727-30.58384-23.423-10.92981,4.20357-15.13338,35.31146-15.13338,35.31146l7.385-80.49788c.1587.03951.32652.079.48252.11818C2497.18856,1155.77613,2528.70367,1165.906,2533.20607,1173.78472Z"/><path class="cls-8" d="M2533.20607,1173.78472c3.00417,5.25742,2.50006,31.55293,1.83216,50.48267-7.17635-9.26345-21.99369-26.727-30.58384-23.423-10.92981,4.20357-15.13338,35.31146-15.13338,35.31146l7.385-80.49788c.1587.03951.32652.079.48252.11818C2497.18856,1155.77613,2528.70367,1165.906,2533.20607,1173.78472Z"/></g><path class="cls-7" d="M2497.18856,1155.77613s31.51511,10.1299,36.01751,18.00859c4.50207,7.879,1.12543,63.03057,1.12543,69.78383s-3.93951-3.93952-7.31614-11.81821-15.19484-19.6969-19.134-18.57147c-3.93952,1.12543-6.19072,5.62783-6.19072,12.94364,0,7.31615-9.00412,17.446-16.88315,23.07387-7.8787,5.6275-15.19485,11.25533-15.19485,11.25533s-16.32027-23.63642-20.25978-29.8268c-3.93918-6.19072-3.37664-19.13436-3.93918-23.63642-.56289-4.5024-10.69278,12.38076-12.944,7.87869-2.25086-4.50206,5.06495-8.44158,12.944-20.82267,7.87869-12.38076,5.62749-25.32474,17.4457-34.32886C2474.67757,1150.71119,2488.1841,1153.52493,2497.18856,1155.77613Z"/><path class="cls-12" d="M2571.75572,1383.98s19.41563-27.85721,43.052-30.38968,52.33779,16.88315,53.182,23.63642,6.75326,43.05205,2.53247,48.117-20.25979,9.28574-51.49363-.84415S2575.13235,1401.70734,2571.75572,1383.98Z"/><g class="cls-14"><path class="cls-4" d="M2650.74558,1424.48441s6.72593-19.33729,3.3628-26.0632c-3.3628-6.72625-16.81494-16.81495-25.22276-26.904-8.40713-10.089,19.68847,5.70955,21.01886,0,1.07039-4.59391-14.80283-13.75842-21.05465-17.16916,19.65233,3.76056,38.45916,17.43152,39.13989,22.87871.84415,6.75326,6.75326,43.05205,2.53247,48.117-2.17894,2.61487-7.538,4.98661-16.481,5.29321C2652.00507,1427.08408,2650.74558,1424.48441,2650.74558,1424.48441Z"/><path class="cls-8" d="M2650.74558,1424.48441s6.72593-19.33729,3.3628-26.0632c-3.3628-6.72625-16.81494-16.81495-25.22276-26.904-8.40713-10.089,19.68847,5.70955,21.01886,0,1.07039-4.59391-14.80283-13.75842-21.05465-17.16916,19.65233,3.76056,38.45916,17.43152,39.13989,22.87871.84415,6.75326,6.75326,43.05205,2.53247,48.117-2.17894,2.61487-7.538,4.98661-16.481,5.29321C2652.00507,1427.08408,2650.74558,1424.48441,2650.74558,1424.48441Z"/></g><path class="cls-7" d="M2571.75572,1383.98s19.41563-27.85721,43.052-30.38968,52.33779,16.88315,53.182,23.63642,6.75326,43.05205,2.53247,48.117-20.25979,9.28574-51.49363-.84415S2575.13235,1401.70734,2571.75572,1383.98Z"/><path class="cls-12" d="M2637.6,1391.57745s31.67956,12.57424,32.92216,37.14294c.68782,13.59432-21.9481,19.41564-45.58452,19.41564s-57.40274-29.54553-79.35084-42.2079-72.59757-42.20789-78.50668-44.74036-26.16889,4.22079-34.61047,6.75326-24.48058,2.53247-24.48058,2.53247-11.81821,18.57148-17.72731,18.57148,12.66236-27.85721,15.19484-33.76632,43.89621-19.41563,48.96115-19.41563,123.247,29.54553,140.97436,36.29879S2637.6,1391.57745,2637.6,1391.57745Z"/><g class="cls-15"><path class="cls-4" d="M2571.39474,1388.061c-48.27232-24.13583-116.977-52.198-116.977-52.198,5.06495,0,123.247,29.54553,140.97436,36.29879S2637.6,1391.57745,2637.6,1391.57745s31.67956,12.57424,32.92216,37.14294c.68782,13.59432-21.9481,19.41564-45.58452,19.41564s-57.40274-29.54553-79.35084-42.2079c-3.72341-2.14821-8.28457-4.78907-13.30156-7.69467C2564.53783,1402.38571,2607.62737,1406.17733,2571.39474,1388.061Z"/><path class="cls-8" d="M2571.39474,1388.061c-48.27232-24.13583-116.977-52.198-116.977-52.198,5.06495,0,123.247,29.54553,140.97436,36.29879S2637.6,1391.57745,2637.6,1391.57745s31.67956,12.57424,32.92216,37.14294c.68782,13.59432-21.9481,19.41564-45.58452,19.41564s-57.40274-29.54553-79.35084-42.2079c-3.72341-2.14821-8.28457-4.78907-13.30156-7.69467C2564.53783,1402.38571,2607.62737,1406.17733,2571.39474,1388.061Z"/></g><path class="cls-7" d="M2637.6,1391.57745s31.67956,12.57424,32.92216,37.14294c.68782,13.59432-21.9481,19.41564-45.58452,19.41564s-57.40274-29.54553-79.35084-42.2079-72.59757-42.20789-78.50668-44.74036-26.16889,4.22079-34.61047,6.75326-24.48058,2.53247-24.48058,2.53247-11.81821,18.57148-17.72731,18.57148,12.66236-27.85721,15.19484-33.76632,43.89621-19.41563,48.96115-19.41563,123.247,29.54553,140.97436,36.29879S2637.6,1391.57745,2637.6,1391.57745Z"/><path class="cls-2" d="M2390.70649,1203.82695l25.72419,144.69845-185.71472.84416-27.62254-137.21145a8.52329,8.52329,0,0,1,8.09852-10.20148l170.86565-5.15746A8.52319,8.52319,0,0,1,2390.70649,1203.82695Z"/><polygon class="cls-12" points="2416.431 1348.525 2506.861 1412.484 2300.042 1406.574 2230.716 1349.37 2416.431 1348.525"/><g class="cls-16"><polygon class="cls-4" points="2416.431 1348.525 2506.861 1412.484 2300.042 1406.574 2230.716 1349.37 2416.431 1348.525"/><polygon class="cls-8" points="2416.431 1348.525 2506.861 1412.484 2300.042 1406.574 2230.716 1349.37 2416.431 1348.525"/></g><polygon class="cls-7" points="2416.431 1348.525 2506.861 1412.484 2300.042 1406.574 2230.716 1349.37 2416.431 1348.525"/><path class="cls-12" d="M2348.0539,1411.83724s-74.28589-65.00016-147.72763-86.94826-88.63657-18.57147-86.94825,14.35068,37.14294,205.13036,60.77936,249.02657,53.18195,124.0912,52.33779,139.28605-29.54553,59.9352-54.87026,75.9742-22.79226,35.45463-6.75326,38.83126,34.61047,9.28574,89.48073-26.16889,77.66252-86.1041,74.28589-98.76647-38.83127-29.54552-53.182-54.87026-37.9871-119.87041-39.67542-162.92247-16.88315-79.35083-16.88315-79.35083,92.85736,16.88315,119.87041,33.76631Z"/><g class="cls-17"><path class="cls-4" d="M2348.0539,1411.83724s-74.28589-65.00016-147.72763-86.94826-88.63657-18.57147-86.94825,14.35068,37.14294,205.13036,60.77936,249.02657,53.18195,124.0912,52.33779,139.28605-29.54553,59.9352-54.87026,75.9742-22.79226,35.45463-6.75326,38.83126,34.61047,9.28574,89.48073-26.16889,77.66252-86.1041,74.28589-98.76647-38.83127-29.54552-53.182-54.87026-37.9871-119.87041-39.67542-162.92247-16.88315-79.35083-16.88315-79.35083,92.85736,16.88315,119.87041,33.76631Z"/><path class="cls-8" d="M2348.0539,1411.83724s-74.28589-65.00016-147.72763-86.94826-88.63657-18.57147-86.94825,14.35068,37.14294,205.13036,60.77936,249.02657,53.18195,124.0912,52.33779,139.28605-29.54553,59.9352-54.87026,75.9742-22.79226,35.45463-6.75326,38.83126,34.61047,9.28574,89.48073-26.16889,77.66252-86.1041,74.28589-98.76647-38.83127-29.54552-53.182-54.87026-37.9871-119.87041-39.67542-162.92247-16.88315-79.35083-16.88315-79.35083,92.85736,16.88315,119.87041,33.76631Z"/></g><path class="cls-7" d="M2348.0539,1411.83724s-74.28589-65.00016-147.72763-86.94826-88.63657-18.57147-86.94825,14.35068,37.14294,205.13036,60.77936,249.02657,53.18195,124.0912,52.33779,139.28605-29.54553,59.9352-54.87026,75.9742-22.79226,35.45463-6.75326,38.83126,34.61047,9.28574,89.48073-26.16889,77.66252-86.1041,74.28589-98.76647-38.83127-29.54552-53.182-54.87026-37.9871-119.87041-39.67542-162.92247-16.88315-79.35083-16.88315-79.35083,92.85736,16.88315,119.87041,33.76631Z"/><path class="cls-2" d="M2275.45632,1662.55212a63.04957,63.04957,0,0,0,3.58767,5.53464c-13.0213,1.46208-31.80955,6.07523-47.48388,19.7901a153.673,153.673,0,0,0-11.54369,11.16213c-9.88576-31.55429-29.31323-80.04474-45.859-110.77276-23.63642-43.89621-59.091-216.10441-60.77936-249.02657s13.50652-36.29879,86.94825-14.35068,147.72763,86.94826,147.72763,86.94826l-9.28574,42.20789c-27.01305-16.88316-119.87041-33.76631-119.87041-33.76631s15.19484,36.29878,16.88315,79.35083S2261.10564,1637.22739,2275.45632,1662.55212Z"/><path class="cls-18" d="M2275.45632,1662.55212a63.04957,63.04957,0,0,0,3.58767,5.53464c-13.0213,1.46208-31.80955,6.07523-47.48388,19.7901a153.673,153.673,0,0,0-11.54369,11.16213c-16.18318-21.71782-34.3741-90.32354-54.91212-118.54-53.06312-72.90214-50.038-208.33714-51.72628-241.2593s13.50652-36.29879,86.94825-14.35068,147.72763,86.94826,147.72763,86.94826l-9.28574,42.20789c-27.01305-16.88316-119.87041-33.76631-119.87041-33.76631s15.19484,36.29878,16.88315,79.35083S2261.10564,1637.22739,2275.45632,1662.55212Z"/><g class="cls-19"><path class="cls-20" d="M2275.45632,1662.55212a63.04957,63.04957,0,0,0,3.58767,5.53464c-13.0213,1.46208-31.80955,6.07523-47.48388,19.7901a153.673,153.673,0,0,0-11.54369,11.16213c-16.18318-21.71782-34.3741-90.32354-54.91212-118.54-53.06312-72.90214-50.038-208.33714-51.72628-241.2593s13.50652-36.29879,86.94825-14.35068,147.72763,86.94826,147.72763,86.94826l-9.28574,42.20789c-27.01305-16.88316-119.87041-33.76631-119.87041-33.76631s15.19484,36.29878,16.88315,79.35083S2261.10564,1637.22739,2275.45632,1662.55212Z"/><path class="cls-21" d="M2149.06257,1334.78453c1.33211-11.988,131.901,43.27154,186.96343,67.13419,7.64233,6.08672,12.0279,9.91852,12.0279,9.91852l-9.28574,42.20789c-27.01305-16.88316-119.87041-33.76631-119.87041-33.76631s15.19484,36.29878,16.88315,79.35083,25.32474,137.59774,39.67542,162.92247a62.99388,62.99388,0,0,0,3.58767,5.5343,96.14771,96.14771,0,0,0-26.93032,6.98186c-20.4482-43.23439-42.11807-93.35677-52.40163-132.62091C2181.14057,1471.53811,2147.37425,1349.97938,2149.06257,1334.78453Z"/><path class="cls-7" d="M2218.89775,1420.27882s-25.32474-51.49363-47.27284-72.59758"/></g><path class="cls-7" d="M2275.45632,1662.55212a63.04957,63.04957,0,0,0,3.58767,5.53464c-13.0213,1.46208-31.80955,6.07523-47.48388,19.7901a153.673,153.673,0,0,0-11.54369,11.16213c-16.18318-21.71782-34.3741-90.32354-54.91212-118.54-53.06312-72.90214-50.038-208.33714-51.72628-241.2593s13.50652-36.29879,86.94825-14.35068,147.72763,86.94826,147.72763,86.94826l-9.28574,42.20789c-27.01305-16.88316-119.87041-33.76631-119.87041-33.76631s15.19484,36.29878,16.88315,79.35083S2261.10564,1637.22739,2275.45632,1662.55212Z"/><path class="cls-3" d="M2459.347,1479.81828s-41.66561-1.15717-79.85868-15.04559c-38.19342-13.88842,31.249-39.35059,57.86837-25.46217C2463.97635,1453.199,2459.347,1479.81828,2459.347,1479.81828Z"/><path class="cls-12" d="M2569.22325,1425.34376s27.01305,15.19484,36.29879,32.078-30.671,45.022-72.87885,43.33366-119.58914-47.55445-119.58914-47.55445-.84416,74.28589-15.19484,101.29895-80.195,92.85736-106.36389,109.74052-113.96131,80.195-127.46783,90.32489-38.83126,28.70136-44.74037,29.54552-67.53262-74.28589-81.88331-99.61062-27.01305-78.50669-21.9481-90.3249,15.19484-1.68831,25.32473,6.75327,102.98726,70.0651,111.42884,74.28589a92.64556,92.64556,0,0,0,14.35068,5.9091s75.97421-72.59757,116.49378-128.312,43.89621-127.46784,59.09105-154.48089,37.143-38.83126,70.0651-35.45463S2513.50883,1383.98,2569.22325,1425.34376Z"/><g class="cls-22"><path class="cls-4" d="M2212.02765,1719.79176c-22.54374,16.15246-42.17784,30.40691-48.00016,34.77357-13.50653,10.12989-38.83126,28.70136-44.74037,29.54552-2.09554.29951-11.21176-8.97812-22.72945-22.18075l96.67565-62.18573Z"/><path class="cls-8" d="M2212.02765,1719.79176c-22.54374,16.15246-42.17784,30.40691-48.00016,34.77357-13.50653,10.12989-38.83126,28.70136-44.74037,29.54552-2.09554.29951-11.21176-8.97812-22.72945-22.18075l96.67565-62.18573Z"/></g><path class="cls-7" d="M2569.22325,1425.34376s27.01305,15.19484,36.29879,32.078-30.671,45.022-72.87885,43.33366-119.58914-47.55445-119.58914-47.55445-.84416,74.28589-15.19484,101.29895-80.195,92.85736-106.36389,109.74052-113.96131,80.195-127.46783,90.32489-38.83126,28.70136-44.74037,29.54552-67.53262-74.28589-81.88331-99.61062-27.01305-78.50669-21.9481-90.3249,15.19484-1.68831,25.32473,6.75327,102.98726,70.0651,111.42884,74.28589a92.64556,92.64556,0,0,0,14.35068,5.9091s75.97421-72.59757,116.49378-128.312,43.89621-127.46784,59.09105-154.48089,37.143-38.83126,70.0651-35.45463S2513.50883,1383.98,2569.22325,1425.34376Z"/><path class="cls-18" d="M2171.80117,1676.04818c17.85225-17.415,84.82165-107.26781,111.25021-158.92386,38.729-75.69732,42.89875-101.49648,58.09359-128.50953s38.14277-29.11534,71.06492-25.73871,91.82648,9.48732,164.10091,50.47895c0,0,30.337,16.49113,39.62274,33.37429s-24.52042,59.3963-83.29035,54.0261c-42.06641-3.84429-119.58914-47.55445-119.58914-47.55445s-.84416,74.28589-15.19484,101.29895-80.195,92.85736-106.36389,109.74052c-16.59513,10.707-57.95819,40.07521-89.45709,62.72126C2194.13522,1698.69255,2180.181,1683.20394,2171.80117,1676.04818Z"/><g class="cls-23"><path class="cls-20" d="M2171.80117,1676.04818c17.85225-17.415,84.82165-107.26781,111.25021-158.92386,38.729-75.69732,42.89875-101.49648,58.09359-128.50953s38.14277-29.11534,71.06492-25.73871,91.82648,9.48732,164.10091,50.47895c0,0,30.337,16.49113,39.62274,33.37429s-24.52042,59.3963-83.29035,54.0261c-42.06641-3.84429-119.58914-47.55445-119.58914-47.55445s-.84416,74.28589-15.19484,101.29895-80.195,92.85736-106.36389,109.74052c-16.59513,10.707-57.95819,40.07521-89.45709,62.72126C2194.13522,1698.69255,2180.181,1683.20394,2171.80117,1676.04818Z"/><path class="cls-21" d="M2341.53056,1555.95389c25.32474-64.156,10.12989-192.468,81.03915-175.58483,51.67259,12.30309,146.3645,55.97847,193.94664,78.77343-5.61737,19.37444-36.68643,45.92455-83.87316,41.6126-42.06641-3.844-119.58914-47.55412-119.58914-47.55412s-.84416,74.28589-15.19484,101.29895-80.195,92.85736-106.36389,109.74052c-16.59513,10.70662-57.95819,40.07521-89.45709,62.72126a119.65478,119.65478,0,0,0-11.79089-28.28638C2253.12159,1652.23111,2327.39465,1591.7651,2341.53056,1555.95389Z"/><line class="cls-7" x1="2413.05405" y1="1453.20097" x2="2415.58652" y2="1409.30476"/></g><path class="cls-7" d="M2171.80117,1676.04818c17.85225-17.415,84.82165-107.26781,111.25021-158.92386,38.729-75.69732,42.89875-101.49648,58.09359-128.50953s38.14277-29.11534,71.06492-25.73871,91.82648,9.48732,164.10091,50.47895c0,0,30.337,16.49113,39.62274,33.37429s-24.52042,59.3963-83.29035,54.0261c-42.06641-3.84429-119.58914-47.55445-119.58914-47.55445s-.84416,74.28589-15.19484,101.29895-80.195,92.85736-106.36389,109.74052c-16.59513,10.707-57.95819,40.07521-89.45709,62.72126C2194.13522,1698.69255,2180.181,1683.20394,2171.80117,1676.04818Z"/><path class="cls-3" d="M2164.02749,1754.56533c-13.50653,10.12989-38.83126,28.70136-44.74037,29.54552s-67.53262-74.28589-81.88331-99.61062-27.01305-78.50669-21.9481-90.3249,15.19484-1.68831,25.32473,6.75327,102.98726,70.0651,111.42884,74.28589c2.211,1.10551,4.23362,2.02834,6.03674,2.80125,2.44468,4.61957,5.3891,11.799,3.249,16.61438-3.37663,7.59742-17.72731,17.72731-17.72731,17.72731l25.53881,38.30823C2167.034,1752.33169,2165.22585,1753.66681,2164.02749,1754.56533Z"/><path class="cls-12" d="M2037.40381,1684.50023c-14.35068-25.32474-27.01305-78.50669-21.9481-90.3249,2.9346-6.84679,7.57344-6.30856,12.923-3.018-3.55357,15.79487.03478,46.22035,17.46664,78.99224,15.55513,29.24332,63.64,80.924,87.867,106.09748-6.57529,4.33356-12.062,7.52617-14.42528,7.86383C2113.378,1784.955,2051.7545,1709.825,2037.40381,1684.50023Z"/><g class="cls-24"><path class="cls-4" d="M2118.42406,1783.88935a6.27143,6.27143,0,0,1-.71957-.39575c-.07836-.04929-.14789-.0861-.23031-.1408-.341-.22657-.71987-.50582-1.13013-.82863-.1273-.10028-.26709-.21813-.40047-.32719q-.466-.37987-.98226-.831c-.181-.158-.36029-.314-.55-.48489q-.624-.56018-1.31115-1.20984c-.26371-.2492-.53959-.51629-.81647-.78406-.36-.34813-.72665-.70571-1.10787-1.08423q-.46749-.46446-.95626-.95964c-.30323-.30727-.61691-.62907-.932-.95255-.77325-.7952-1.57588-1.63328-2.41362-2.52268-.12966-.13743-.25291-.26608-.384-.40553-.49127-.52372-.99811-1.07073-1.509-1.62383q-.29478-.31908-.59361-.64392c-1.76632-1.92232-3.63663-4.00131-5.59339-6.217l-.1533-.17322q-1.0221-1.15836-2.07224-2.36162l-.0108-.01283,14.73933-9.48091c8.40443,9.1213,16.19973,17.33934,22.4154,23.79783l-.00132.001q-1.1695.77088-2.28767,1.48808c-.10636.06821-.21036.13439-.31571.20192-.71247.45551-1.41245.89852-2.08609,1.31554l-.04119.02532c-1.15414.71416-2.2252,1.34762-3.24157,1.9284-.31571.18-.64257.37075-.94275.53621-.33159.18335-.63515.34-.94684.50447-.37073.19483-.73371.38257-1.07408.54971-.25561.12561-.50041.24143-.73813.3505-.36771.16781-.70774.31065-1.03021.43693-.17086.06686-.35083.14317-.50818.19753a6.94986,6.94986,0,0,1-1.21154.32821,1.44341,1.44341,0,0,1-.63683-.12459C2118.57938,1783.96025,2118.50172,1783.92446,2118.42406,1783.88935Z"/><path class="cls-8" d="M2118.42406,1783.88935a6.27143,6.27143,0,0,1-.71957-.39575c-.07836-.04929-.14789-.0861-.23031-.1408-.341-.22657-.71987-.50582-1.13013-.82863-.1273-.10028-.26709-.21813-.40047-.32719q-.466-.37987-.98226-.831c-.181-.158-.36029-.314-.55-.48489q-.624-.56018-1.31115-1.20984c-.26371-.2492-.53959-.51629-.81647-.78406-.36-.34813-.72665-.70571-1.10787-1.08423q-.46749-.46446-.95626-.95964c-.30323-.30727-.61691-.62907-.932-.95255-.77325-.7952-1.57588-1.63328-2.41362-2.52268-.12966-.13743-.25291-.26608-.384-.40553-.49127-.52372-.99811-1.07073-1.509-1.62383q-.29478-.31908-.59361-.64392c-1.76632-1.92232-3.63663-4.00131-5.59339-6.217l-.1533-.17322q-1.0221-1.15836-2.07224-2.36162l-.0108-.01283,14.73933-9.48091c8.40443,9.1213,16.19973,17.33934,22.4154,23.79783l-.00132.001q-1.1695.77088-2.28767,1.48808c-.10636.06821-.21036.13439-.31571.20192-.71247.45551-1.41245.89852-2.08609,1.31554l-.04119.02532c-1.15414.71416-2.2252,1.34762-3.24157,1.9284-.31571.18-.64257.37075-.94275.53621-.33159.18335-.63515.34-.94684.50447-.37073.19483-.73371.38257-1.07408.54971-.25561.12561-.50041.24143-.73813.3505-.36771.16781-.70774.31065-1.03021.43693-.17086.06686-.35083.14317-.50818.19753a6.94986,6.94986,0,0,1-1.21154.32821,1.44341,1.44341,0,0,1-.63683-.12459C2118.57938,1783.96025,2118.50172,1783.92446,2118.42406,1783.88935Z"/></g><path class="cls-7" d="M2037.40381,1684.50023c-14.35068-25.32474-27.01305-78.50669-21.9481-90.3249,2.9346-6.84679,7.57344-6.30856,12.923-3.018-3.55357,15.79487.03478,46.22035,17.46664,78.99224,15.55513,29.24332,63.64,80.924,87.867,106.09748-6.57529,4.33356-12.062,7.52617-14.42528,7.86383C2113.378,1784.955,2051.7545,1709.825,2037.40381,1684.50023Z"/><path class="cls-3" d="M2171.62491,1803.52648c25.32473-16.039,54.0261-60.77936,54.87026-75.9742a25.85684,25.85684,0,0,0-.39608-4.97817,24.35384,24.35384,0,0,1,13.9026,4.97817s18.57147-16.88316,32.92216-26.1689c10.28049-6.652,23.55569-8.53106,30.28062-9.06625,12.26021,10.06506,23.59722,18.2176,25.4338,25.10525,3.37663,12.66237-19.41563,63.31184-74.28589,98.76647s-73.44174,29.54553-89.48073,26.16889S2146.30017,1819.56548,2171.62491,1803.52648Z"/><path class="cls-12" d="M2171.62491,1803.52648c7.47687-4.73538,15.23536-12.00088,22.49714-20.24088,17.42376-7.3982,40.66883-17.00674,61.07448-29.56443,21.94811-13.50653,16.88316-21.9481,29.54553-34.61047,9.71625-9.71626,28.83305-10.97844,37.22263-11.04192,3.46206,3.3692,5.90573,6.474,6.67358,9.3536,3.37663,12.66237-19.41563,63.31184-74.28589,98.76647s-73.44174,29.54553-89.48073,26.16889S2146.30017,1819.56548,2171.62491,1803.52648Z"/><g class="cls-25"><path class="cls-4" d="M2171.62491,1803.52648c7.47687-4.73538,15.23536-12.00088,22.49714-20.24088,17.42376-7.3982,40.66883-17.00674,61.07448-29.56443,21.94811-13.50653,16.88316-21.9481,29.54553-34.61047,9.71625-9.71626,28.83305-10.97844,37.22263-11.04192,3.46206,3.3692,5.90573,6.474,6.67358,9.3536,3.37663,12.66237-19.41563,63.31184-74.28589,98.76647s-73.44174,29.54553-89.48073,26.16889S2146.30017,1819.56548,2171.62491,1803.52648Z"/><path class="cls-8" d="M2171.62491,1803.52648c7.47687-4.73538,15.23536-12.00088,22.49714-20.24088,17.42376-7.3982,40.66883-17.00674,61.07448-29.56443,21.94811-13.50653,16.88316-21.9481,29.54553-34.61047,9.71625-9.71626,28.83305-10.97844,37.22263-11.04192,3.46206,3.3692,5.90573,6.474,6.67358,9.3536,3.37663,12.66237-19.41563,63.31184-74.28589,98.76647s-73.44174,29.54553-89.48073,26.16889S2146.30017,1819.56548,2171.62491,1803.52648Z"/></g><path class="cls-7" d="M2171.62491,1803.52648c7.47687-4.73538,15.23536-12.00088,22.49714-20.24088,17.42376-7.3982,40.66883-17.00674,61.07448-29.56443,21.94811-13.50653,16.88316-21.9481,29.54553-34.61047,9.71625-9.71626,28.83305-10.97844,37.22263-11.04192,3.46206,3.3692,5.90573,6.474,6.67358,9.3536,3.37663,12.66237-19.41563,63.31184-74.28589,98.76647s-73.44174,29.54553-89.48073,26.16889S2146.30017,1819.56548,2171.62491,1803.52648Z"/><path class="cls-18" d="M2167.40412,1809.43559c21.9481-12.66237,66.68847-21.10395,95.38983-40.51958s21.10395-36.29879,42.2079-49.80531c9.69633-6.20558,17.78235-4.74282,23.69821-1.35437,2.93125,13.16346-19.91875,63.26322-74.34768,98.43252-54.87026,35.45463-73.44174,29.54553-89.48073,26.16889-10.66037-2.24444-15.29176-11.58285-9.80439-22.29792A46.32268,46.32268,0,0,1,2167.40412,1809.43559Z"/><g class="cls-26"><path class="cls-20" d="M2167.40412,1809.43559c21.9481-12.66237,66.68847-21.10395,95.38983-40.51958s21.10395-36.29879,42.2079-49.80531c9.69633-6.20558,17.78235-4.74282,23.69821-1.35437,2.93125,13.16346-19.91875,63.26322-74.34768,98.43252-54.87026,35.45463-73.44174,29.54553-89.48073,26.16889-10.66037-2.24444-15.29176-11.58285-9.80439-22.29792A46.32268,46.32268,0,0,1,2167.40412,1809.43559Z"/></g><path class="cls-7" d="M2167.40412,1809.43559c21.9481-12.66237,66.68847-21.10395,95.38983-40.51958s21.10395-36.29879,42.2079-49.80531c9.69633-6.20558,17.78235-4.74282,23.69821-1.35437,2.93125,13.16346-19.91875,63.26322-74.34768,98.43252-54.87026,35.45463-73.44174,29.54553-89.48073,26.16889-10.66037-2.24444-15.29176-11.58285-9.80439-22.29792A46.32268,46.32268,0,0,1,2167.40412,1809.43559Z"/><path class="cls-2" d="M2588.05641,1647.96339s-16.2031-19.6753-18.51778-4.62937c-2.31468,15.0456,1.15751,42.82244,12.73091,53.239,11.57374,10.41624,17.3606-5.78687,17.3606-5.78687l-6.944-9.25906s-5.78687,11.57374-10.41657-6.944c-4.62936-18.51812,9.25906-16.20344,9.25906-16.20344Z"/><path class="cls-2" d="M2600.46148,1722.0352c9.58929,7.09869,40.82989,7.09869,50.41917,0,20.29424-15.02331,16.80618-87.60839,16.80618-87.60839h-83.95656S2580.16759,1707.01189,2600.46148,1722.0352Z"/><path class="cls-7" d="M2658.56081,1620.18654c0-9.13987-8.4615-9.13987-8.4615-18.28007,0-9.1348,8.4615-9.1348,8.4615-18.26994,0-9.1429-8.4615-9.1429-8.4615-18.28581,0-9.149,8.4615-9.149,8.4615-18.2983,0-9.149-8.4615-9.149-8.4615-18.29831"/><path class="cls-7" d="M2629.55859,1620.18654c0-6.938-8.46117-6.938-8.46117-13.87593,0-6.939,8.46117-6.939,8.46117-13.878,0-6.94472-8.46117-6.94472-8.46117-13.88978,0-6.94978,8.46117-6.94978,8.46117-13.89923,0-6.94978-8.46117-6.94978-8.46117-13.89956"/><path class="cls-7" d="M2597.65617,1620.18654c0-9.13987-8.46116-9.13987-8.46116-18.28007,0-9.1348,8.46116-9.1348,8.46116-18.26994,0-9.1429-8.46116-9.1429-8.46116-18.28581,0-9.149,8.46116-9.149,8.46116-18.2983,0-9.149-8.46116-9.149-8.46116-18.29831"/><path class="cls-2" d="M2583.73027,1634.42681c0,2.11208,18.79433,3.82437,41.97828,3.82437s41.97828-1.71229,41.97828-3.82437c0-2.11175-18.79433-3.824-41.97828-3.824S2583.73027,1632.31506,2583.73027,1634.42681Z"/><path class="cls-12" d="M2506.23827,1112.00756s-3.93141,42.64888-5.587,56.10071c-1.6559,13.45182-5.43266,52.16456-9.31545,64.96537-3.88312,12.80115-25.03468,35.0599-27.085,29.91054-2.04993-5.1497-12.50905-39.91685-8.31628-60.59061,4.1931-20.67376,5.46372-38.64622,2.85122-43.81787s-11.95091-11.17125-11.95091-11.17125a332.6874,332.6874,0,0,0,31.70319-18.46477C2493.57928,1118.83072,2504.166,1107.42007,2506.23827,1112.00756Z"/><g class="cls-27"><path class="cls-4" d="M2452.05515,1149.38248l3.45058-6.57227c6.19882-3.39858,14.8457-8.36831,23.03234-13.87019,15.04121-10.1093,25.62794-21.52,27.7002-16.93246,0,0-3.93141,42.64888-5.58733,56.10071-1.65555,13.45182-5.432,52.16456-9.31543,64.96537a42.815,42.815,0,0,1-5.4097,10.52868c4.08606-25.46217-.34815-71.42487-.34815-71.42487Z"/><path class="cls-8" d="M2452.05515,1149.38248l3.45058-6.57227c6.19882-3.39858,14.8457-8.36831,23.03234-13.87019,15.04121-10.1093,25.62794-21.52,27.7002-16.93246,0,0-3.93141,42.64888-5.58733,56.10071-1.65555,13.45182-5.432,52.16456-9.31543,64.96537a42.815,42.815,0,0,1-5.4097,10.52868c4.08606-25.46217-.34815-71.42487-.34815-71.42487Z"/></g><path class="cls-7" d="M2506.23827,1112.00756s-3.93141,42.64888-5.587,56.10071c-1.6559,13.45182-5.43266,52.16456-9.31545,64.96537-3.88312,12.80115-25.03468,35.0599-27.085,29.91054-2.04993-5.1497-12.50905-39.91685-8.31628-60.59061,4.1931-20.67376,5.46372-38.64622,2.85122-43.81787s-11.95091-11.17125-11.95091-11.17125a332.6874,332.6874,0,0,0,31.70319-18.46477C2493.57928,1118.83072,2504.166,1107.42007,2506.23827,1112.00756Z"/><path class="cls-12" d="M2507.8111,1118.0963s-24.31647,20.354-42.97708,27.7029-47.30492,6.95654-51.33155-2.75533c-4.027-9.71153,7.07606-86.43467,16.68933-106.63233s19.91434-20.52722,36.87653-22.06393c16.96217-1.537,50.95607,12.29331,56.92427,28.69529,5.96819,16.40165-.82559,39.64976-5.77674,53.4173C2513.265,1110.2274,2507.8111,1118.0963,2507.8111,1118.0963Z"/><g class="cls-28"><path class="cls-4" d="M2464.12323,1117.20116c8.61751-25.60939,10.72722-65.70385,10.72722-76.43073,0-8.27714-21.54223-17.34643-31.38849-21.06073,6.44431-3.98949,13.94212-4.48653,23.60637-5.36209,16.96217-1.537,50.95607,12.29331,56.92427,28.695,5.96819,16.402-.82559,39.65009-5.77674,53.41729-4.95082,13.76754-10.40442,21.63644-10.40442,21.63644s-24.31681,20.35366-42.97742,27.7029c-12.43242,4.89578-29.26189,6.33287-40.32475,3.89022C2437.69333,1144.64844,2458.3833,1134.25922,2464.12323,1117.20116Z"/><path class="cls-8" d="M2464.12323,1117.20116c8.61751-25.60939,10.72722-65.70385,10.72722-76.43073,0-8.27714-21.54223-17.34643-31.38849-21.06073,6.44431-3.98949,13.94212-4.48653,23.60637-5.36209,16.96217-1.537,50.95607,12.29331,56.92427,28.695,5.96819,16.402-.82559,39.65009-5.77674,53.41729-4.95082,13.76754-10.40442,21.63644-10.40442,21.63644s-24.31681,20.35366-42.97742,27.7029c-12.43242,4.89578-29.26189,6.33287-40.32475,3.89022C2437.69333,1144.64844,2458.3833,1134.25922,2464.12323,1117.20116Z"/></g><path class="cls-7" d="M2507.8111,1118.0963s-24.31647,20.354-42.97708,27.7029-47.30492,6.95654-51.33155-2.75533c-4.027-9.71153,7.07606-86.43467,16.68933-106.63233s19.91434-20.52722,36.87653-22.06393c16.96217-1.537,50.95607,12.29331,56.92427,28.69529,5.96819,16.40165-.82559,39.64976-5.77674,53.4173C2513.265,1110.2274,2507.8111,1118.0963,2507.8111,1118.0963Z"/><path class="cls-7" d="M2428.36538,1067.93847c-.38293,9.72537,5.71259,17.86137,13.61424,18.17235,7.902.311,14.61812-7.32053,15.00069-17.04591.38291-9.72537-5.71261-17.8617-13.61424-18.17269C2435.46408,1050.58123,2428.748,1058.2131,2428.36538,1067.93847Z"/><path class="cls-7" d="M2409.255,1064.2468c-.38257,9.72537,2.75635,17.74521,7.01124,17.91269,4.25455.16748,8.0141-7.58087,8.397-17.30625s-2.756-17.74487-7.01088-17.91235S2409.63791,1054.52142,2409.255,1064.2468Z"/><path class="cls-2" d="M2427.376,1064.43792s-27.8903,5.30333-25.21533,12.02249c2.675,6.71882,21.55067,13.97993,21.55067,13.97993"/><path class="cls-7" d="M2429.08258,1061.3358s-.39236-3.44889-4.705-1.24158"/><line class="cls-7" x1="2457.76808" y1="1070.65193" x2="2508.48373" y2="1090.60748"/><path class="cls-29" d="M2457.09309,1054.25062a12.86671,12.86671,0,0,0-12.6411-7.62849"/><line class="cls-29" x1="2423.31428" y1="1046.84668" x2="2431.12139" y2="1049.79515"/><path class="cls-7" d="M2447.4366,1103.49777s-10.03366-2.64761-15.90056,3.31653"/><path class="cls-18" d="M2440.88863,1069.79359c-.46329,3.38744.15972,6.27007,1.39151,6.43856s2.60573-2.441,3.06936-5.8284c.46328-3.38744-.15973-6.27007-1.39151-6.43856S2441.35191,1066.40615,2440.88863,1069.79359Z"/><path class="cls-3" d="M2503.74361,1090.7466s3.40871,6.74786-6.15865,7.10612c-9.567.35826-15.99745-4.30385-11.364-10.00057,4.63342-5.69637,11.46806-11.30631,4.41968-18.93243-7.04872-7.62579-20.75818-14.04442-13.07466-22.56029,7.68386-8.51586,36.03913-.78608,28.96171-7.67846-7.07709-6.892-39.8635-14.06131-54.59574-13.17156s-42.20958-10.47972-48.23552-25.41388c-6.026-14.9345,2.40887-42.527,22.19055-41.01358,19.78132,1.51341,34.52538,18.99558,43.30124,20.07576s26.7895-8.49864,41.88.17863,15.60477,32.94781,16.95677,35.94052,21.75158,7.46979,25.34532,28.18745c3.59376,20.71732-5.875,37.24661-14.32129,46.46717s-12.25956,12.7451-12.25956,12.7451Z"/><path class="cls-30" d="M2546.70956,1053.346a16.00863,16.00863,0,0,1-2.18164,8.97846"/><path class="cls-30" d="M2460.61559,999.89394s7.38435-16.11126-11.412-16.11126-21.48179,23.49562-2.01382,32.22218c19.46763,8.72691,61.75926,10.74107,84.58358,20.81052,5.70585,2.51728,9.356,5.3702,11.62171,8.23392"/><path class="cls-30" d="M2494.6105,1057.09408c6.74786,2.41362,15.50279,5.795,24.408,9.92966,18.79636,8.7269,14.76871,17.45381,14.76871,17.45381"/><path class="cls-30" d="M2482.097,1052.9263s1.64071.48624,4.447,1.40367"/><path class="cls-12" d="M2500.51994,1097.9682s10.90754-15.73746,22.41611-9.4056c11.50857,6.33152,2.54226,28.75944-4.37883,36.57027-6.92107,7.81116-20.31313-6.67831-21.63643-10.40476"/><g class="cls-31"><path class="cls-4" d="M2500.51994,1097.9682s10.90754-15.73746,22.41611-9.4056c11.50857,6.33152,2.54226,28.75944-4.37883,36.57027-6.92107,7.81116-20.31313-6.67831-21.63643-10.40476"/><path class="cls-8" d="M2500.51994,1097.9682s10.90754-15.73746,22.41611-9.4056c11.50857,6.33152,2.54226,28.75944-4.37883,36.57027-6.92107,7.81116-20.31313-6.67831-21.63643-10.40476"/></g><path class="cls-7" d="M2500.51994,1097.9682s10.90754-15.73746,22.41611-9.4056c11.50857,6.33152,2.54226,28.75944-4.37883,36.57027-6.92107,7.81116-20.31313-6.67831-21.63643-10.40476"/><path class="cls-2" d="M2626.11163,1083.61448H2892.478a5.1199,5.1199,0,0,1,5.1199,5.1199v201.28286a5.1199,5.1199,0,0,1-5.1199,5.1199h-266.3665a5.1198,5.1198,0,0,1-5.1198-5.1198v-201.283A5.1199,5.1199,0,0,1,2626.11163,1083.61448Z" transform="translate(5518.58967 2378.75162) rotate(180)"/><polyline class="cls-2" points="2626.257 1235.778 2464.178 1277.986 2626.257 1198.635"/><rect class="cls-32" x="2810.14151" y="1103.95328" width="65.08389" height="170.84506" transform="translate(5685.3669 2378.75162) rotate(180)"/><rect class="cls-32" x="2635.34681" y="1103.95328" width="8.13532" height="170.84506" transform="translate(5278.82893 2378.75162) rotate(180)"/><rect class="cls-3" x="2635.34681" y="1182.0757" width="8.13532" height="14.60022" transform="translate(5278.82893 2378.75162) rotate(180)"/><line class="cls-2" x1="2789.8027" y1="1108.02077" x2="2661.66899" y2="1108.02077"/><line class="cls-2" x1="2789.8027" y1="1126.32583" x2="2661.66899" y2="1126.32583"/><line class="cls-2" x1="2789.8027" y1="1144.63055" x2="2661.66899" y2="1144.63055"/><line class="cls-2" x1="2789.8027" y1="1162.93527" x2="2661.66899" y2="1162.93527"/><line class="cls-2" x1="2789.8027" y1="1207.6807" x2="2661.66899" y2="1207.6807"/><line class="cls-2" x1="2789.8027" y1="1223.95167" x2="2661.66899" y2="1223.95167"/><line class="cls-2" x1="2789.8027" y1="1240.22265" x2="2661.66899" y2="1240.22265"/><line class="cls-2" x1="2789.8027" y1="1273.98896" x2="2661.66899" y2="1273.98896"/><line class="cls-7" x1="2875.22539" y1="1274.79834" x2="2810.14151" y2="1103.95328"/><ellipse class="cls-1" cx="1894.58201" cy="1722.28279" rx="56.47827" ry="25.33816"/><ellipse class="cls-33" cx="1894.58201" cy="1722.28279" rx="56.47827" ry="25.33816"/><path class="cls-1" d="M1960.65906,1347.53875c-6.04417,2.64086-20.83044,2.30792-20.84192,2.30725-.15364-.00338,3.17775-9.67912,3.45767-10.26564,3.24494-6.78669,13.50382-17.99136,21.85119-16.86357,6.01412.81242,9.35834,6.83126,8.00026,12.49252C1971.74015,1340.99348,1965.80707,1345.28856,1960.65906,1347.53875Z"/><path class="cls-1" d="M1766.97515,1297.21073c8.37506-.90156,18.327,10.57561,21.38792,17.44739.26338.595,3.33206,10.35681,3.17775,10.35546,0,0-.14419-.00169-.179-.00237,1.586,1.79975,3.26419,3.74806,5.05516,5.91282,3.27634,4.02528,6.94134,8.60231,10.59384,13.853a177.131,177.131,0,0,1,10.98351,17.499,130.00593,130.00593,0,0,1,9.38366,21.12286c.029.08577.0469.1793.07563.26642-.04322-2.46731.06551-9.37117.13439-9.89995.96673-7.459,7.21958-21.30519,15.50313-22.83751,5.96718-1.10146,11.02166,3.57349,11.49777,9.37657.48455,5.92666-3.81222,11.85839-8.00262,15.60172-4.72526,4.22046-17.84212,8.30854-18.88752,8.63a176.5,176.5,0,0,1,5.54139,22.88411c.80465,4.50645,1.47457,9.0703,2.08811,13.65509.0317-2.135.07529-4.04317.10974-4.30959.96808-7.45966,7.22059-21.30486,15.50312-22.83616,5.9685-1.10315,11.02167,3.57248,11.4971,9.37556.48657,5.92666-3.81155,11.85839-8.00127,15.60172-4.25219,3.7977-15.36469,7.50727-18.31822,8.45.21644,1.76058.45344,3.5171.66317,5.279,1.01062,8.45306,1.9814,16.8943,3.18821,25.14341.42343,2.908.94816,5.75445,1.46174,8.60568.03006-1.89564.07125-3.49245.102-3.73422.9674-7.46033,7.21924-21.30519,15.50313-22.83616,5.96785-1.10314,11.022,3.57113,11.49776,9.37556.48523,5.92565-3.81289,11.85907-8.003,15.601-4.05668,3.62448-14.28349,7.13989-17.78877,8.2768.6159,2.90356,1.225,5.81321,1.952,8.5996.53925,1.89159.92651,3.74874,1.57351,5.61906q.90354,2.79534,1.78725,5.53733c1.26624,3.47793,2.54966,7.07438,3.86962,10.43717.89987,2.34507,1.80177,4.56318,2.70232,6.79986-.45585-2.88871-1.22842-8.56347-1.23956-9.04464a38.71024,38.71024,0,0,1,5.19056-18.82979,11.69938,11.69938,0,0,1,.13844-2.2046c.92351-5.74939,6.32443-10.0188,12.189-8.45677,8.14039,2.16779,13.30292,16.45567,13.68819,23.967.023.443-.26709,5.27835-.50042,8.32711.40993-1.771.7871-3.49448,1.23112-5.31212.854-3.59982,1.8119-7.16757,2.82827-11.01085q.83217-2.75687,1.6846-5.56942c.52237-1.87133,1.31317-3.78149,1.96655-5.69435,1.61065-4.4011,3.45565-8.78431,5.41274-13.15738-3.15141-.756-14.30138-3.5978-18.77846-7.0342-4.45648-3.41918-9.18413-9.01561-9.14189-14.96084.04153-5.823,4.73231-10.86161,10.76605-10.20655,8.37472.90967,15.64258,14.2504,17.16241,21.6172.09488.45989.59057,5.86824.80566,8.84441,1.19769-2.61993,2.37917-5.24087,3.6758-7.85168,3.74266-7.53833,7.76558-15.052,11.74663-22.56536,1.221-2.30117,2.40821-4.60775,3.60826-6.913-1.12543-.25663-14.452-3.34861-19.46628-7.19628-4.45715-3.41985-9.18514-9.01561-9.14256-14.96219.04153-5.82165,4.73268-10.86094,10.76639-10.20519,8.37472.90932,15.64224,14.25039,17.1624,21.61651.11413.55546.81681,8.33893.89852,10.32676,2.63746-5.07711,5.21892-10.162,7.56028-15.27791a175.48639,175.48639,0,0,0,8.22176-21.23293c-.52338-.11852-14.44658-3.2831-19.58311-7.22363-4.45786-3.41952-9.18515-9.01561-9.14223-14.96186.04119-5.82232,4.733-10.86093,10.76605-10.20553,8.3754.909,15.64224,14.25006,17.16207,21.61652.11987.57909.8715,8.95314.89886,10.48107.12966-.42174.31031-.84349.43491-1.26489a128.60312,128.60312,0,0,0,4.262-22.41948c.469-4.18331.68444-8.20792.80566-12.12886-2.65369-.32315-14.76465-1.93582-19.77929-4.97175-4.80562-2.91032-10.11976-7.95231-10.7306-13.86682-.597-5.79159,3.51271-11.31644,9.5812-11.32691,8.42331-.0162,17.11209,12.44627,19.43217,19.60135.12629.38932.97044,4.48687,1.5438,7.47991.02667-1.77.0888-3.59645.08137-5.29354-.01181-6.36968-.41431-12.20247-.81343-17.36467-.25021-2.934-.53486-5.58191-.82693-8.056-2.43894-1.67684-12.18053-8.55369-15.17762-13.46871-2.92417-4.79718-5.3155-11.72029-3.1325-17.25155,2.13875-5.41578,8.33183-8.42436,13.72192-5.638,7.48366,3.86793,9.45223,18.93176,8.21436,26.35191-.10771.64054-2.93395,10.476-3.06193,10.39023,0,0-.11953-.08172-.14722-.1013.32888,2.3758.654,4.92684.95322,7.72033.51258,5.16422,1.0444,11.00444,1.19364,17.39911a176.92478,176.92478,0,0,1-.49231,20.65418,130.05882,130.05882,0,0,1-3.82572,22.79361c-.02432.08813-.06045.1766-.08476.264,1.32466-2.08135,5.22534-7.77874,5.57448-8.18225,4.92111-5.68861,17.77422-13.78713,25.52869-10.49525,5.58528,2.3731,7.22194,9.06018,4.41731,14.16362-2.86541,5.21082-9.72268,7.78685-15.28095,8.59758-6.27007.914-19.4656-2.91235-20.51439-3.22131a176.49742,176.49742,0,0,1-8.00362,22.14328c-1.81393,4.20323-3.77342,8.37944-5.79059,12.54148,1.2034-1.76328,2.29341-3.33037,2.469-3.53364,4.92178-5.68929,17.77594-13.78645,25.52869-10.4939,5.58663,2.37175,7.22126,9.05883,4.41731,14.16227-2.86372,5.21082-9.72133,7.7882-15.28095,8.59825-5.64167.82187-16.95677-2.21405-19.9407-3.05787-.79046,1.5887-1.562,3.18382-2.35827,4.76881-3.8213,7.60857-7.66762,15.184-11.21139,22.73047-1.251,2.6591-2.38391,5.32259-3.52892,7.98506,1.07073-1.56507,1.9858-2.87453,2.14585-3.0599,4.92178-5.68828,17.77459-13.78679,25.52834-10.4939,5.586,2.37242,7.22228,9.0595,4.41731,14.16261-2.86507,5.21048-9.72132,7.78786-15.2806,8.59758-5.384.78472-15.853-1.92468-19.40314-2.90931-1.08829,2.7604-2.186,5.52417-3.11663,8.24877-.59361,1.87505-1.29562,3.63866-1.78725,5.55456q-.78963,2.83029-1.56372,5.60453c-.86307,3.59949-1.77645,7.30805-2.53045,10.84034-.5433,2.45211-1.01535,4.80022-1.49753,7.16251,1.21322-2.66011,3.69943-7.81994,3.95606-8.2275,4.002-6.36866,15.4805-16.32027,23.64452-14.2406,5.88,1.49956,8.51147,7.86113,6.51082,13.32959-2.04222,5.58427-8.42908,9.17059-13.8013,10.814-5.91519,1.80785-19.01246.156-20.64675-.0618-.78541,3.91352-1.51172,7.72709-2.13876,11.33637-2.20562,12.50839-3.56745,23.01107-4.41562,30.36233-.1506,1.30541-.27858,2.47237-.39608,3.5718h25.35L1898.1647,1712.632a22.73443,22.73443,0,0,1-22.7048,21.57094h0a22.73467,22.73467,0,0,1-22.70481-21.57094l-8.15153-159.05048h23.61887c-.17491-.36366-.34-.702-.52372-1.08423-3.24089-6.75124-7.73451-16.454-12.58909-28.3269-1.54313-3.74806-3.11664-7.78348-4.69322-11.94247-1.58428.33124-14.54953,2.96468-20.592,1.60018-5.4796-1.23821-12.116-4.33863-14.56949-9.75542-2.4018-5.304-.25261-11.84523,5.50154-13.77767,7.98371-2.6824,20.17267,6.38622,24.63827,12.43917.264.35691,2.68949,4.55,4.17689,7.22093-.63582-1.7025-1.2713-3.34861-1.90378-5.10986-1.27464-3.4732-2.444-6.97713-3.71595-10.74309q-.82608-2.75887-1.6667-5.57482c-.59736-1.84938-.99172-3.87874-1.50193-5.83414-1.08457-4.55981-1.96351-9.23306-2.74418-13.96069-3.04438,1.10788-13.91206,4.88869-19.5426,4.49329-5.60352-.39439-12.63332-2.45279-15.87827-7.4367-3.17808-4.87889-2.04387-11.66963,3.34928-14.452,7.48667-3.8605,20.90844,3.25744,26.24014,8.56314.33226.33057,3.7298,4.56791,5.55186,6.93189-.44778-2.84583-.908-5.68321-1.26657-8.57665-1.03663-8.35176-1.82609-16.83825-2.651-25.3011-.25125-2.59224-.53317-5.17165-.805-7.75612-1.07846.40655-13.89987,5.17942-20.20539,4.7364-5.60453-.3927-12.63434-2.45211-15.87962-7.43568-3.1764-4.87889-2.04354-11.67031,3.34995-14.45131,7.48633-3.86151,20.90844,3.25643,26.23981,8.56213.40148.39979,5.28139,6.50407,6.44666,8.11708-.601-5.6903-1.25341-11.3546-2.12258-16.91287a175.75416,175.75416,0,0,0-4.85523-22.24626c-.50278.19044-13.86107,5.23209-20.31955,4.77861-5.60454-.393-12.63434-2.45211-15.87929-7.43568-3.17673-4.8789-2.04387-11.66964,3.34962-14.45131,7.487-3.86185,20.9081,3.25609,26.2398,8.56213.418.41667,5.665,6.98658,6.53176,8.24573-.12494-.42275-.20733-.87455-.33631-1.29494a128.49944,128.49944,0,0,0-8.81267-21.04992c-1.9159-3.74873-3.95708-7.2243-6.01885-10.56176-2.392,1.19431-13.382,6.53074-19.239,6.76474-5.614.22488-12.82749-1.0498-16.6002-5.64607-3.69437-4.50071-3.31348-11.37553,1.74235-14.73224,7.01765-4.66076,21.13872.94107,27.02014,5.62885.31973.25459,3.28512,3.20678,5.41409,5.38741-.95322-1.49213-1.90949-3.04943-2.8519-4.46087-3.52352-5.30637-7.07675-9.9489-10.25754-14.03429-1.8278-2.3086-3.5252-4.36058-5.13416-6.263-2.95861-.05267-14.87778-.41465-20.08893-2.86135-5.08454-2.38762-10.90011-6.84275-12.13025-12.66034C1757.43549,1303.786,1760.94178,1297.86006,1766.97515,1297.21073Zm92.73242,225.01737c5.06124,11.65,9.71964,21.16067,13.06588,27.7603.67533,1.33005,1.28177,2.50715,1.84465,3.59307h.56052c.16407-1.28886.34881-2.69658.56589-4.27954,1.02181-7.41914,2.62672-17.99069,5.12745-30.57135.78068-3.97632,1.69473-8.21028,2.674-12.54925a108.68511,108.68511,0,0,1-11.51908-5.41645c-4.31125,4.66887-15.35891,10.13327-16.78925,10.82818C1856.7412,1515.2898,1858.23942,1518.87139,1859.70757,1522.2281Z"/><path class="cls-1" d="M1811.10637,1350.79112c-.13034.08171-2.68915-9.82667-2.779-10.46992-1.038-7.45054,1.33782-22.45494,8.92275-26.11926,5.46373-2.63985,11.57269.53452,13.56393,6.00635,2.03341,5.588-.545,12.4439-3.5978,17.16072C1823.632,1342.90635,1811.11549,1350.7847,1811.10637,1350.79112Z"/></svg>