<svg id="All" xmlns="http://www.w3.org/2000/svg" viewBox="0 0 4500 2499.99999"><defs><style>.cls-1{fill:#d9e9fe;}.cls-2{fill:#fb7369;}.cls-3{fill:#f2564b;}.cls-4{fill:#3a4ace;}.cls-5{fill:#a6c7f9;}.cls-6{fill:#3566c9;}.cls-7{fill:#6d89d0;}.cls-8{fill:#739af0;}.cls-9{fill:#fc9490;}.cls-10{fill:#ff8585;}.cls-11{fill:#a9453d;}.cls-12{fill:#2c3a64;}.cls-13{fill:#293eb7;}.cls-14{fill:#1e3d70;}.cls-15{fill:#2a4e96;}.cls-16{fill:#2e3552;}.cls-17{fill:#f48484;}</style></defs><title>Home page1 </title><g id="Layer_1" data-name="Layer 1"><path class="cls-1" d="M571.93627,2284.60334s-469.92459-504.54879-79.47179-1050.79523c346.4357-484.667,750.3458-451.53713,1046.68668-254.85521,126.21634,83.7687,490.11179,10.32378,799.83027-482.84283,422.37467-672.54473,1886.475-264.64464,1619.52239,770.08259-129.18438,500.735,393.16249,518.93558,127.00705,1019.4709Z"/><rect class="cls-2" x="1356.05073" y="627.86646" width="584.38192" height="584.38182" transform="translate(-180.71038 1387.11258) rotate(-43.49582)"/><rect class="cls-3" x="1758.66713" y="467.25581" width="117.69505" height="584.38158" transform="translate(-23.68662 1459.51556) rotate(-43.49557)"/><rect class="cls-4" x="1106.45376" y="1053.40162" width="584.38213" height="584.38179" transform="translate(-248.88853 319.69759) rotate(-11.98256)"/><rect class="cls-5" x="1058.00868" y="1058.48593" width="584.382" height="117.69495" transform="translate(-202.55643 304.67014) rotate(-11.98271)"/><path class="cls-6" d="M3259.72542,1146.53735s-52.17805-98.4526,26.00057-135.94342c0,0,55.0957-18.44747,94.09647-7.16837,0,0-77.16061,81.34134-61.13718,94.76384,16.02178,13.42233,79.44334-96.83625,79.44334-96.83625s112.7551,14.12461,144.41227,39.17685c0,0-111.6997,55.974-92.86584,65.03875,18.83236,9.06455,137.7701-43.77919,137.7701-43.77919s98.77081,40.58222,79.19977,102.00021c-19.57271,61.41965-59.31217,72.80449-74.49135,67.63969-15.17918-5.1663-98.34536-60.36591-103.19511-48.06864-4.84974,12.29892,40.54648,66.26773,78.45776,76.84389,0,0-90.3703,63.56288-133.30823,29.691-42.93643-33.87172-38.82554-71.32846-65.74019-91.77784-26.9145-20.44939-52.53035-26.176-43.28707-9.41535,9.23994,16.76045,60.47314,42.55486,70.80092,76.75794,10.32943,34.20456,21.11508,58.13173-26.98615,39.439-48.10273-18.69254-120.83573-73.33037-115.00208-115.84634Z"/><path class="cls-6" d="M3615.79993,1154.12769s-276.5256-73.50577-356.07451-7.59034c0,0-22.80527,37.73755-73.08531,65.46072l-10.54041,16.3385s59.801-40.09193,77.79372-39.28342C3253.89342,1189.05315,3249.07776,1084.13545,3615.79993,1154.12769Z"/><path class="cls-6" d="M3186.64011,1211.99807s-69.83479,30.80809-91.79247,108.98986l10.64765,3.41776s37.52657-77.50643,79.28589-101.72106C3226.542,1198.47017,3186.64011,1211.99807,3186.64011,1211.99807Z"/><path class="cls-4" d="M2965.01868,842.3747S2775.2526,743.40737,2858.13149,598.957c0,0,67.09088-89.18006,141.08378-113.80219,0,0-33.51792,212.72647,6.449,216.51765,39.96839,3.79184,20.261-239.73124,20.261-239.73124s193.79118-100.42691,271.16444-95.25812c0,0-115.79446,210.19519-76.12316,204.032,39.66979-6.164,170.32339-219.29232,170.32339-219.29232s200.47392-43.33429,236.385,75.1602c35.911,118.49532-14.5735,179.781-44.21412,188.13526-29.64395,8.35679-221.34877,11.57554-215.62867,36.31372,5.71661,24.739,136.31517,60.70358,207.82236,36.15626,0,0-73.78342,198.9801-178.60553,192.13826-104.82194-6.842-139.103-70.58495-203.95968-73.63495-64.85371-3.05084-111.62023,15.7782-78.74855,32.23607,32.87168,16.4577,142.02879,1.48385,195.61288,44.3586,53.58724,42.87475,96.71038,68.99054.24356,91.791-96.46864,22.80044-271.04757,15.54445-308.11293-58.0782Z"/><path class="cls-7" d="M3536.7039,466.65616s-517.58955,184.798-571.68522,375.71854c0,0,5.00886,84.54231-44.36342,183.15967l1.11044,37.33005s50.97334-128.55509,80.31852-146.8654C3002.08422,915.999,2880.22234,755.22731,3536.7039,466.65616Z"/><path class="cls-7" d="M2920.65526,1025.53437s-76.95279,124.7925-26.56718,272.40805l20.56793-6.186s-25.0135-163.4995,14.69687-247.28749C2969.06324,960.68,2920.65526,1025.53437,2920.65526,1025.53437Z"/><path class="cls-6" d="M2368.96156,1649.6136s-1.78279-160.02322-126.14668-153.63592c0,0-82.16764,14.56053-123.62171,55.5697,0,0,153.18785,49.62732,142.19272,77.56-10.99514,27.93415-166.70928-67.60561-166.70928-67.60561s-132.53713,95.241-155.2709,148.58318c0,0,179.33922-6.09169,161.8075,18.27706-17.53173,24.36709-203.85744,39.37419-203.85744,39.37419s-96.72834,119.014-29.8664,183.05409c66.86194,64.03854,124.81029,51.11133,140.4116,34.1738s82.61437-143.67989,97.17491-131.49469c14.56053,12.18355-5.64695,111.43668-46.21138,150.81087,0,0,157.64788,18.12759,188.5534-54.08253,30.90551-72.21178.00166-116.63872,19.91038-160.91618,19.912-44.27747,48.2911-69.09113,48.14163-41.60338-.14764,27.48775-47.06678,95.20691-36.60916,145.44473,10.45779,50.23947,13.28118,87.83088,61.12422,31.22206,47.84619-56.61047,102.07968-175.47672,65.52722-225.10569Z"/><path class="cls-6" d="M1924.99132,1903.6894s298.35809-282.60433,443.97024-254.0758c0,0,54.67839,31.94446,137.14164,32.391l24.51655,13.37362s-102.96783-9.50945-125.10756,3.861C2405.51219,1699.23925,2339.54172,1563.58478,1924.99132,1903.6894Z"/><path class="cls-6" d="M2506.1032,1682.00462s109.24955-9.08732,190.63312,74.45876l-11.08442,11.62193s-100.56008-72.0023-169.86551-73.8727C2446.47929,1692.34054,2506.1032,1682.00462,2506.1032,1682.00462Z"/><path class="cls-4" d="M2298.10377,1128.70686s94.88388-49.48283,53.44443-121.70842c0,0-33.54535-44.5902-70.54255-56.90109,0,0,16.75879,106.36364-3.22457,108.25832-19.98337,1.89634-10.12976-119.86479-10.12976-119.86479s-96.89543-50.21337-135.583-47.62956c0,0,57.898,105.09727,38.06242,102.01568-19.83573-3.08159-85.16178-109.64575-85.16178-109.64575s-100.23688-21.66789-118.1924,37.5801c-17.95552,59.24733,7.28675,89.88965,22.10715,94.06722,14.82189,4.17839,110.67338,5.78826,107.81591,18.15685-2.85914,12.37026-68.15925,30.35337-103.91284,18.07889,0,0,36.89179,99.49021,89.30359,96.06912,52.41014-3.42092,69.55066-35.29239,101.97743-36.81864,32.42844-1.52458,55.81161,7.89077,39.37586,16.1192-16.43742,8.2286-71.01357.742-97.808,22.17864-26.7913,21.43812-48.35444,34.49518-.12021,45.89632,48.23275,11.401,135.523,7.77222,154.05639-29.03993Z"/><path class="cls-7" d="M2012.26208,940.84842s258.794,92.39815,285.84169,187.85844c0,0-2.50351,42.27223,22.1818,91.57983l-.5553,18.66494s-25.48584-64.27712-40.15843-73.43261C2279.57184,1165.519,2340.50286,1085.13383,2012.26208,940.84842Z"/><path class="cls-7" d="M2320.28557,1220.28669s38.47806,62.39692,13.286,136.20478l-10.28554-3.09306s12.50674-81.74884-7.34844-123.6445C2296.08241,1187.85992,2320.28557,1220.28669,2320.28557,1220.28669Z"/><path class="cls-2" d="M2535.40781,548.03008l-9.35051-7.75194a23.54306,23.54306,0,0,1-3.09456-33.11208l65.05173-78.45527a23.54009,23.54009,0,0,1,33.11025-3.09389l13.39324,11.104a4.60157,4.60157,0,0,1-5.87422,7.08458l-13.39324-11.103a14.3274,14.3274,0,0,0-20.15228,1.88171l-65.0484,78.4561a14.3275,14.3275,0,0,0,1.8817,20.15312l9.35051,7.75194a14.32723,14.32723,0,0,0,20.15229-1.88254l43.18316-52.08062a4.601,4.601,0,1,1,7.08375,5.87339l-43.1815,52.08145A23.54126,23.54126,0,0,1,2535.40781,548.03008Z"/><path class="cls-2" d="M2472.975,631.55356l-16.76062-13.8965c-15.5639-12.90461-16.97643-36.96728-3.15142-53.64178L2550.85965,446.064a4.60125,4.60125,0,1,1,7.08375,5.87422L2460.14686,569.8895c-10.586,12.76811-9.71578,31.01674,1.94172,40.682l16.76229,13.89733c11.65584,9.6654,29.751,7.13994,40.337-5.62733l111.39594-134.354c10.586-12.76727,9.71412-31.01657-1.94006-40.682a4.60157,4.60157,0,1,1,5.87422-7.08458c15.56057,12.90277,16.97643,36.96711,3.14976,53.64078l-111.39611,134.354C2512.44826,641.3902,2488.53722,644.458,2472.975,631.55356Z"/><path class="cls-4" d="M1417.02793,680.85118l-10.3878,6.29569a23.54307,23.54307,0,0,1-32.29858-7.92252l-52.82263-87.15787a23.54146,23.54146,0,0,1,7.92335-32.29776l14.87543-9.01666a4.60163,4.60163,0,1,1,4.77027,7.87048l-14.87725,9.01666a14.326,14.326,0,0,0-4.82048,19.657l52.82262,87.158a14.32678,14.32678,0,0,0,19.657,4.82131l10.388-6.29552a14.32793,14.32793,0,0,0,4.82215-19.65717l-35.06529-57.85824a4.60123,4.60123,0,0,1,7.86965-4.7701l35.06678,57.85824A23.54236,23.54236,0,0,1,1417.02793,680.85118Z"/><path class="cls-4" d="M1475.4975,767.19488l-18.62122,11.28576c-17.28982,10.47807-40.48961,3.93316-51.71534-14.59063L1325.7452,632.85486a4.60177,4.60177,0,0,1,7.87131-4.76944l79.41574,131.03449c8.59537,14.18312,26.12394,19.33795,39.07393,11.49024l18.621-11.28492c12.94833-7.84853,16.48946-25.7723,7.89243-39.95709L1388.1634,570.11279c-8.597-14.184-26.1256-19.33812-39.07543-11.49025a4.60163,4.60163,0,0,1-4.77027-7.87048c17.28982-10.47807,40.48961-3.93333,51.71535,14.59046L1486.491,714.59887C1497.7182,733.12266,1492.78566,756.71781,1475.4975,767.19488Z"/><path class="cls-6" d="M3093.993,1386.28638h898.50272a9.378,9.378,0,0,1,9.378,9.378v875.07675a9.3779,9.3779,0,0,1-9.3779,9.3779H3093.99187a9.3779,9.3779,0,0,1-9.3779-9.3779V1395.66538A9.379,9.379,0,0,1,3093.993,1386.28638Z"/><path class="cls-5" d="M3056.66476,1400.941h899.30572a8.9775,8.9775,0,0,1,8.9775,8.9775v837.67232a8.9776,8.9776,0,0,1-8.9776,8.9776H3056.66486a8.9766,8.9766,0,0,1-8.9766-8.9766V1409.91751A8.9765,8.9765,0,0,1,3056.66476,1400.941Z"/><path class="cls-8" d="M3891.10935,1405.169v856.06734a18.94,18.94,0,0,1-18.87625,18.87775h-879.509a18.93083,18.93083,0,0,1-18.87775-18.87775V1405.169a18.93083,18.93083,0,0,1,18.87775-18.87775h879.509A18.94,18.94,0,0,1,3891.10935,1405.169Z"/><rect class="cls-5" x="3720.16882" y="1386.2912" width="56.95646" height="893.82284"/><rect class="cls-3" x="2273.64242" y="801.72432" width="1072.02087" height="1478.48549"/><rect class="cls-2" x="2246.03297" y="801.72432" width="1072.01921" height="1478.48549"/><rect class="cls-1" x="2319.55669" y="903.12617" width="924.97009" height="1275.68262"/><rect class="cls-8" x="2319.55669" y="960.97061" width="924.97009" height="3.89908"/><rect class="cls-8" x="2319.55669" y="1028.01028" width="924.97009" height="3.89841"/><rect class="cls-8" x="2319.55669" y="1095.04928" width="924.97009" height="3.89825"/><rect class="cls-8" x="2319.55669" y="1162.08995" width="924.97009" height="3.89825"/><rect class="cls-8" x="2319.55669" y="1229.12879" width="924.97009" height="3.89991"/><rect class="cls-8" x="2319.55669" y="1296.16945" width="924.97009" height="3.89825"/><rect class="cls-8" x="2319.55669" y="1363.20829" width="924.97009" height="3.89841"/><rect class="cls-8" x="2319.55669" y="1430.24729" width="924.97009" height="3.89991"/><rect class="cls-8" x="2319.55669" y="1497.28779" width="924.97009" height="3.89841"/><rect class="cls-8" x="2319.55669" y="1570.24807" width="924.97009" height="3.89841"/><rect class="cls-8" x="2319.55669" y="1637.28707" width="924.97009" height="3.89991"/><rect class="cls-8" x="2319.55669" y="1704.32757" width="924.97009" height="3.89841"/><rect class="cls-8" x="2319.55669" y="1771.36657" width="924.97009" height="3.89825"/><rect class="cls-8" x="2319.55669" y="1838.40707" width="924.97009" height="3.89841"/><rect class="cls-8" x="2319.55669" y="1905.44608" width="924.97009" height="3.89825"/><rect class="cls-8" x="2319.55669" y="1972.48508" width="924.97009" height="3.89991"/><rect class="cls-8" x="2319.55669" y="2039.52724" width="924.97009" height="3.89659"/><rect class="cls-8" x="2319.55669" y="2106.56625" width="924.97009" height="3.89991"/><path class="cls-9" d="M1141.92233,1608.96471c4.92107-3.4728,16.07781-11.1185,16.65738-9.41519.419,1.22582-.1769,3.30721-1.51644,5.47305,6.75024-2.51981,13.60339-4.1759,29.80954-1.06173a12.144,12.144,0,0,1,7.97273,5.24744c1.65211,2.5735,2.26976,5.78976-1.86558,8.35994-8.26983,5.14369-5.87256,2.06044-17.3653,9.54852-11.4944,7.48976-25.56614,9.40072-33.97413,4.14515l-11.28243-1.87855-1.39956-18.55954S1135.3889,1610.05586,1141.92233,1608.96471Z"/><path class="cls-9" d="M846.25679,1453.30576s26.59973,31.55824,60.47311,18.355c0,0,7.28758-17.62267,7.39066-30.61489.01131-1.59924.03159-3.1481.056-4.62247.18109-14.63036.67451-22.83935.67451-22.83935a.221.221,0,0,0-.03408-.00648c-1.54154-.64126-51.78268-21.27087-51.74128-19.55642C863.938,1433.58874,846.25679,1453.30576,846.25679,1453.30576Z"/><path class="cls-10" d="M868.12033,1403.456c4.84492,8.98025,21.46905,26.54939,46.05626,32.96744.18109-14.63036.67451-22.83935.67451-22.83935a.221.221,0,0,0-.03408-.00648C913.42561,1413.2042,866.67855,1400.8095,868.12033,1403.456Z"/><path class="cls-9" d="M925.37306,1412.0645s-56.50174,13.28267-64.23173-22.03083c-7.73083-35.312-20.22943-57.38175,15.51768-67.3539,35.74777-9.97547,45.73059,1.95968,51.17783,13.11874C933.28478,1346.95758,939.87108,1407.69857,925.37306,1412.0645Z"/><path class="cls-11" d="M863.07424,1399.65518c-.77127.49528-12.92971,4.23109-35.95327-41.63746-3.61428-7.19914-6.07639-22.77451,2.34939-36.53783,8.42329-13.76333,38.29767-24.58472,63.117-29.29165,24.82014-4.71009,30.778,9.25624,36.62312,23.29073,6.13562,14.73428,23.85485,26.866,23.85485,26.866-21.40238,11.95461-47.1805-5.14518-56.1112-2.33144-8.93071,2.81043-12.08529,16.88549-12.75514,21.39756-.67048,4.51041-1.69982,8.26086-12.92955,4.2311-11.23055-4.02976-5.07784,15.9147-3.2806,19.72849C867.98882,1385.37063,869.51507,1395.52965,863.07424,1399.65518Z"/><path class="cls-12" d="M717.52378,2280.29759H683.31107c-7.17154,0-15.14094-7.17968-17.13554-20.32769-1.99543-13.15615-16.73784-20.32752-19.929-31.08889-3.19215-10.76287,13.156-25.91445,13.156-25.91445l2.73344-3.51021,2.843-3.66133,27.09971,6.37267s.66888,6.45546,1.08785,14.67425a187.717,187.717,0,0,1,.10953,18.81108c-.7972,14.35438,4.01995,29.80472,16.76695,32.59736C722.80064,2271.04135,717.52378,2280.29759,717.52378,2280.29759Z"/><path class="cls-12" d="M955.69634,2280.29759H865.008a8.1806,8.1806,0,0,1-1.92577-.557c-6.05445-3.03288-4.15877-26.21488-3.43056-33.37495.13965-1.32806.23858-2.10416.23858-2.10416s31.88859-25.50379,36.278-5.97663c.13966.6105.2996,1.20969.46852,1.79741v.00981c5.53572,18.27207,30.28271,26.572,44.57623,28.88564C952.13576,2270.75389,954.96813,2277.11691,955.69634,2280.29759Z"/><path class="cls-4" d="M937.41778,1757.32876s-4.84322,60.42443-10.53559,133.05668c-7.73648,98.66691-17.03994,219.86142-17.96051,242.821-1.59026,39.86947-7.97589,103.64168-7.97589,103.64168s-15.14027,15.14825-45.44094,8.76428c0,0-27.00144-91.03766-34.71448-187.35834-.1192-1.57828-.23941-3.16937-.35878-4.76046-7.17469-98.05641-18.33143-304.53606-18.33143-304.53606Z"/><path class="cls-13" d="M937.41778,1757.32876s-4.84322,60.42443-10.53559,133.05668L820.79037,2058.254c-.1192-1.57828-.23941-3.16937-.35878-4.76046-7.17469-98.05641-18.33143-304.53606-18.33143-304.53606Z"/><path class="cls-4" d="M915.301,1764.50362s-87.29434,218.83361-144.69307,321.67159c-57.39888,102.84131-75.33561,131.53859-75.33561,131.53859s-32.88464-13.15283-35.87379-22.12178c0,0,21.94886-198.53519,60.38868-246.93352,21.71894-27.34643,47.234-109.41681,48.42993-138.11575,1.19489-28.7006,7.77222-85.50111,7.77222-85.50111Z"/><path class="cls-9" d="M716.22414,1724.74454l-.92223,14.07356s9.28218,25.00353-16.72488,37.82849c0,0-11.13229,4.491-11.58352-4.1759-.45139-8.66536.97328-5.4067.069-17.61136-.90528-12.20466,3.89259-23.73731,11.96441-27.62092l6.62422-7.64388Z"/><path class="cls-14" d="M706.06761,1734.99118c9.66208,3.1027,11.20944,2.40126,11.20944,2.40126s47.02791-85.61949,51.79166-93.45838c4.76282-7.83557,99.848-96.0106,99.848-96.0106l-24.43525-91.122s-108.1481,140.04633-119.82671,160.14325c-19.29819,33.20619-30.60675,110.33106-30.60675,110.33106A28.28986,28.28986,0,0,0,706.06761,1734.99118Z"/><path class="cls-15" d="M955.84581,1583.69817c-.33851,18.71049-1.42633,39.7476-2.89339,61.11274q-.13392,1.90206-.26867,3.80082c-.93687,13.23579-1.95486,26.50217-3.12216,39.43919-.46851,5.18742-.967,10.31481-1.48651,15.35126l-.07947.677c-.04053,1.885-.26868,3.92917-.479,5.79625-4.76695,48.45686-9.76433,86.73824-10.69221,87.32612a5.43436,5.43436,0,0,1-3.72052.94817c-12.70809-1.59607-50.621,1.2875-81.66122-5.46506-26.19293-5.52691-48.74581-15.99916-72.64455-30.1246-3.17253-1.87522-10.40322-6.84184-9.81553-10.55189.57808-4.08013,1.64562-9.97547,3.00212-17.38559,4.70842-25.77479,12.83793-70.11244,15.611-121.9982q.80856-14.50035,2.34294-28.59835a433.9972,433.9972,0,0,1,12.65934-68.29558c10.64183-38.32211,33.15647-67.03086,52.77623-78.5113,2.5637-1.437,9.48355,6.70385,22.151,14.83486,11.70056,7.49939,22.79063,4.08346,34.77034,3.03454l11.77123,17.15349c12.76731,14.84134,26.36268,34.60242,30.07339,62.69086q.419,3.1101.7184,6.62272A412.23536,412.23536,0,0,1,955.84581,1583.69817Z"/><path class="cls-14" d="M955.84581,1583.69817c-.33851,18.71049-1.42633,39.7476-2.89339,61.11274q-.13392,1.90206-.26867,3.80082c-72.58516-45.43346-83.76621-128.57055-83.76621-128.57055,35.70887,1.56515,64.07662,9.77413,85.941,21.51444A412.23536,412.23536,0,0,1,955.84581,1583.69817Z"/><path class="cls-15" d="M1139.24342,1619.48584c.74833-10.76453-4.82713-12.55713-4.82713-12.55713s-109.43963-19.8324-118.74292-22.7597c-9.30329-2.92747-88.85536-85.68134-88.85536-85.68134s-30.49219-34.38811-55.45931-26.79611c-21.69715,6.6001-30.1773,23.52449-33.06566,39.647a47.49329,47.49329,0,0,0,22.05341,48.75063c37.34721,22.90585,112.11783,68.04071,129.72753,73.20368,39.19147,11.49042,144.49178.92223,144.49178.92223A33.98863,33.98863,0,0,0,1139.24342,1619.48584Z"/><rect class="cls-5" x="1125.82425" y="1771.36657" width="869.5181" height="508.84323"/><rect class="cls-2" x="1107.33034" y="1796.52771" width="70.02969" height="14.31697" rx="0.1504"/><path class="cls-2" d="M1107.47974,1823.88395h69.72989a.1504.1504,0,0,1,.1504.1504v14.014a.1494.1494,0,0,1-.1494.1494h-69.72989a.1504.1504,0,0,1-.1504-.1504v-14.014A.1494.1494,0,0,1,1107.47974,1823.88395Z"/><path class="cls-2" d="M1107.48074,1897.59438h69.72889a.1504.1504,0,0,1,.1504.1504v14.0146a.1503.1503,0,0,1-.1503.1503h-69.729a.1504.1504,0,0,1-.1504-.1504v-14.0145A.1504.1504,0,0,1,1107.48074,1897.59438Z"/><rect class="cls-2" x="1107.33034" y="1924.9473" width="70.02969" height="14.31697" rx="0.1504"/><rect class="cls-2" x="1107.33034" y="1998.65773" width="70.02969" height="14.31697" rx="0.1504"/><path class="cls-2" d="M1107.47974,2026.014h69.72989a.1504.1504,0,0,1,.1504.1504v14.0145a.1504.1504,0,0,1-.1504.1504h-69.72889a.1504.1504,0,0,1-.1504-.1504v-14.0155A.1494.1494,0,0,1,1107.47974,2026.014Z"/><rect class="cls-2" x="1107.33034" y="2099.72423" width="70.02969" height="14.31713" rx="0.1504"/><rect class="cls-2" x="1107.33034" y="2127.07731" width="70.02969" height="14.31697" rx="0.1504"/><path class="cls-2" d="M1107.48074,2200.79091h69.72889a.1504.1504,0,0,1,.1504.1504v14.014a.1494.1494,0,0,1-.1494.1494h-69.72989a.1504.1504,0,0,1-.1504-.1504v-14.013A.1504.1504,0,0,1,1107.48074,2200.79091Z"/><path class="cls-2" d="M1107.47974,2228.14382h69.72989a.1504.1504,0,0,1,.1504.1504v14.01467a.1504.1504,0,0,1-.1504.1504h-69.72889a.1504.1504,0,0,1-.1504-.1504v-14.01567A.1494.1494,0,0,1,1107.47974,2228.14382Z"/><polygon class="cls-3" points="2279.1 1695.828 2279.1 2280.21 1694.718 2280.21 1694.718 2102.666 1694.718 1806.269 1694.718 1695.828 2279.1 1695.828"/><path class="cls-2" d="M2352.72531,1695.828v110.44145s3.27,204.52962,10.58447,274.41147c13.8039,131.91532,54.19775,199.52891,54.19775,199.52891h-585.947s-49.59656-73.74767-63.21707-190.83445c-8.17806-70.304,0-283.10593,0-283.10593V1695.828Z"/><rect class="cls-3" x="1768.34347" y="1695.82797" width="584.38184" height="110.44146"/><path class="cls-16" d="M200.98912,2278.87043H4357.20986a.1132.1132,0,0,1,.1132.1132v10.63822a.1137.1137,0,0,1-.1137.1137H200.99022a.1143.1143,0,0,1-.1143-.1143v-10.63762A.1132.1132,0,0,1,200.98912,2278.87043Z"/><path class="cls-9" d="M2623.68842,1495.70967l-6.61307-12.479s3.28143-22.2355-24.57974-36.30075c0,0-10.18329-4.1468-15.931,4.15811-5.293,7.65036,10.08919,6.26709,9.26439,19.35341-.82315,13.08633,5.38708,20.76595,14.03283,25.028l7.14559,8.28047Z"/><path class="cls-13" d="M2886.99286,1465.87752s-23.92551,117.43576-155.5941,155.80342c-41.10161,11.97739-134.47553-123.33774-134.47553-123.33774s3.28293-12.47417,23.84919-9.61021c0,0,90.91746,60.19068,102.36382,66.73043,10.1557,5.80124,76.94781-74.58212,107.39544-87.54841C2860.97932,1454.94889,2886.99286,1465.87752,2886.99286,1465.87752Z"/><rect class="cls-2" x="2583.6042" y="1402.47368" width="24.59217" height="123.70648" transform="translate(754.51167 3807.87968) rotate(-81.26939)"/><polygon class="cls-9" points="2506.337 1450.57 2532.898 1467.09 2536.63 1442.783 2506.337 1450.57"/><path class="cls-9" d="M2651.84709,1467.61807h24.59349a0,0,0,0,1,0,0v14.13115a.25.25,0,0,1-.25.25h-24.07726a.26622.26622,0,0,1-.26622-.26622v-14.11493A0,0,0,0,1,2651.84709,1467.61807Z" transform="translate(802.01889 3884.20973) rotate(-81.26897)"/><path class="cls-13" d="M3044.186,2204.10792s16.33517,14.90635,13.148,25.4988-17.92626,17.6536-19.92,30.59694c-1.99227,12.94667-9.95918,20.00614-17.13072,20.00614h-34.18844s-5.27835-9.10843,7.4703-11.85385c12.74849-2.74725,17.556-17.96051,16.7588-32.081-.797-14.12227,1.19506-32.95131,1.19506-32.95131l27.08989-6.2769Z"/><path class="cls-13" d="M2843.79507,2242.66379s2.93213,33.92375-4.23924,37.45524l-91.77319-.19s0-10.59246,14.73926-12.945c14.74242-2.35272,40.63742-10.98383,45.01948-30.20407C2811.92344,2217.55635,2843.79507,2242.66379,2843.79507,2242.66379Z"/><path class="cls-2" d="M2766.31291,1763.44987s4.8401,59.4648,10.52928,130.94754c7.73482,97.10009,17.03163,216.374,17.95219,238.96977,1.5896,39.23454,7.9719,101.99523,7.9719,101.99523s15.13047,14.91133,45.41734,8.62795c0,0,26.98614-89.59421,34.695-184.38881.12-1.55218.24025-3.119.35879-4.68415,7.17153-96.4994,18.32245-299.70577,18.32245-299.70577Z"/><path class="cls-3" d="M2766.31291,1763.44987s4.8401,59.4648,10.52928,130.94754l106.03645,165.20414c.12-1.55218.24025-3.119.35879-4.68415,7.17153-96.4994,18.32245-299.70577,18.32245-299.70577Z"/><path class="cls-2" d="M2788.4184,1770.51251s87.24814,215.36082,144.61676,316.56864c57.36878,101.20949,75.2967,129.45222,75.2967,129.45222s32.86685-12.945,35.85417-21.771c0,0-21.93656-195.3871-60.3561-243.01733-21.70762-26.913-47.20975-107.68124-48.40482-135.92563-1.19489-28.24272-7.76723-84.14527-7.76723-84.14527Z"/><path class="cls-9" d="M2903.21115,1438.62353s-59.033,28.48131-93.06551,17.91495a80.35116,80.35116,0,0,1,23.03736-18.43284c-1.17711-6.82905-2.09435-12.75847-2.61873-17.78511a164.42135,164.42135,0,0,1-1.43863-18.17465l22.776-17.91179,21.5974-17.142C2871.79739,1415.29389,2903.21115,1438.62353,2903.21115,1438.62353Z"/><path class="cls-4" d="M2762.58674,1768.3613a5.31783,5.31783,0,0,0,3.54445,1.41086c12.82164-.25969,50.12576,6.82572,81.66438,3.60447,26.70351-2.57666,50.26375-10.30666,75.52713-21.38292,3.40646-1.549,11.13646-5.67455,10.99846-9.279-.13966-4.12719-.52122-9.92344-1.04244-17.41-1.05856-14.72446-2.5474-35.63339-3.02306-60.41944-.35081-18.37765-.15263-38.8839,1.18192-60.60616.078-1.45642.15263-2.92747.21431-4.4.38323-7.9606.56827-15.98453.56827-23.82326a413.6443,413.6443,0,0,0-5.353-70.87873c-6.42787-37.38209-18.47026-66.63317-36.26334-79.65615-2.36087-1.81021-17.02365,5.2752-30.63119,11.85569-12.44008,6.05926-24.864,6.70551-36.6449,4.387l-11.77921,10.30816c-14.28138,13.00851-29.98826,30.92347-36.91939,57.99707-5.754,22.94658-9.15715,64.43956-10.99995,107.49453-.90594,19.58734-1.56515,39.17618-1.825,57.85907v.64459c-.138,1.93208-.138,3.88045-.138,5.81254C2761.02325,1729.69171,2761.66617,1767.71672,2762.58674,1768.3613Z"/><path class="cls-17" d="M2873.89191,1385.52159s-14.92265,27.19564-43.32764,34.79894a164.42135,164.42135,0,0,1-1.43863-18.17465l22.776-17.91179Z"/><path class="cls-9" d="M2818.741,1401.36165s56.315,9.21235,61.60154-25.408c5.2865-34.62021,16.11587-56.74847-19.61644-64.09358-35.73248-7.34527-44.75163,4.82863-49.37244,15.96175C2806.736,1338.95475,2804.22752,1398.07373,2818.741,1401.36165Z"/><path class="cls-12" d="M2900.80972,1307.7149c.51307-.58606,1.69184-1.05857,4.31556-1.20155a10.62824,10.62824,0,0,0-4.90328-1.37994c-.54715-3.65152-2.48905-10.10864-8.7691-11.67862a7.87657,7.87657,0,0,1,3.81711,5.67771c-7.27378-7.46864-22.86046-12.90776-66.021-9.49981-56.88,4.4893-38.13374,40.90692-30.769,45.24841,7.36473,4.34166,25.89816-7.56107,39.61776-6.47159,13.72109,1.08933,16.33035,20.91375,20.98357,23.63323,4.65489,2.72114,2.82506-2.08953,9.12141-4.9357,6.298-2.84633,6.89721,7.58868,5.077,14.37383-1.8167,6.785,6.83553,15.73431,6.83553,15.73431l8.74317-9.41851c8.743-9.41535,16.98607-49.30261,13.00985-57.80554C2901.516,1309.24114,2901.16851,1308.47968,2900.80972,1307.7149Z"/><path class="cls-9" d="M2616.95365,1482.638s1.94022-7.652-3.37055-11.09256c-5.30928-3.44038-10.19311-12.79887-12.4321-11.52916-4.63693,2.62538,2.53776,10.78881,1.22432,20.97211C2601.91579,1484.55393,2610.21887,1493.89779,2616.95365,1482.638Z"/><path class="cls-13" d="M2930.25566,1664.88522c-.35081-18.37765-.15263-38.8839,1.18192-60.60616.078-1.45642.15263-2.92747.21431-4.4-5.353-26.52179-13.45159-50.05111-25.37062-50.81905C2906.28127,1549.06,2870.77291,1604.86346,2930.25566,1664.88522Z"/><path class="cls-9" d="M2977.22667,1761.11511s-2.95989,28.77525-6.20874,34.21754c-3.24552,5.44245-17.07385,22.83785-22.96437,26.25062-5.89035,3.41278,3.598-22.919,2.39644-28.043-1.19822-5.12407-4.84808,9.35035-7.44253,9.69134-2.59612.341-1.92892-12.68681-2.02136-17.42615-.09261-4.74268,12.62994-16.44557,17.11608-26.54125C2962.58982,1749.17015,2977.22667,1761.11511,2977.22667,1761.11511Z"/><path class="cls-4" d="M2890.57622,1425.23362s35.63339,16.87251,52.71705,42.8114c26.50051,40.23624,57.21765,186.876,57.78592,200.45431.56661,13.57994-22.42054,109.44607-22.42054,109.44607s-23.315-1.53423-29.32889-13.30379c0,0,4.65988-98.49965,1.70813-104.83175-2.9534-6.3321-97.19752-132.12963-86.60024-158.9728S2890.57622,1425.23362,2890.57622,1425.23362Z"/></g></svg>