<svg id="All" xmlns="http://www.w3.org/2000/svg" viewBox="0 0 4501.78723 2499.99999"><defs><style>.cls-1{fill:#d9e9fe;}.cls-2{fill:#3a4ace;}.cls-3{fill:#6d89d0;}.cls-4{fill:#c2c495;}.cls-5{opacity:0.5;}.cls-6{fill:#664a73;}.cls-7{fill:#2e2034;}.cls-8{fill:#536e8b;}.cls-9{fill:#e5b486;}.cls-10{fill:#2a4e96;}.cls-11{fill:#819fba;}.cls-12{fill:#fff;}.cls-13{fill:#c16b4c;}.cls-14{fill:#0e0e35;}.cls-15{opacity:0.3;}.cls-16{fill:#ca8967;}.cls-17{fill:#c78766;}.cls-18{fill:#e0e9e7;}.cls-19{fill:#090909;}.cls-20{fill:#fb7369;}.cls-21{fill:#cb836a;}.cls-22{fill:#a6c7f9;}.cls-23{fill:#739af0;}.cls-24{fill:#9db1dc;}.cls-25{fill:#4f365a;}.cls-26{fill:#b56e59;}.cls-27{fill:#f2564b;}.cls-28{fill:#dda980;}</style></defs><title>Home page1 </title><g id="Layer2"><ellipse class="cls-1" cx="2298.05274" cy="2235.83849" rx="2068.2036" ry="191.32199"/><path class="cls-1" d="M1385.71092,596.8828c-22.6296,22.27221-36.43443,21.70778-45.16414,12.83821-8.72979-8.8678-9.075-22.68125,13.55113-44.95347,41.21794-40.57065,76.94463-44.12336,76.94463-44.12336S1427.52784,555.72191,1385.71092,596.8828Z"/><path class="cls-1" d="M1553.07374,1319.03165l-5.93661.95632c-.145-.91142-15.51557-92.89009-79.0473-217.29672-58.62727-114.7842-171.42127-281.44627-375.87111-423.559l3.42671-4.93363c205.58042,142.89474,318.98214,310.53382,377.91488,426.00176C1537.45972,1225.39064,1552.92349,1318.1098,1553.07374,1319.03165Z"/><path class="cls-1" d="M1309.70016,864.72614l-5.69851-1.90575c69.25765-206.94087-53.99556-406.0012-55.24885-407.98826l5.08211-3.20554C1255.10362,453.63593,1379.8797,655.03544,1309.70016,864.72614Z"/><path class="cls-1" d="M1198.14395,792.275c-59.19007,14.9027-111.38192-3.46981-111.97922-3.68564l2.03872-5.65007c.66465.23828,67.52791,23.6929,134.62261-5.35487l2.38744,5.51378A176.922,176.922,0,0,1,1198.14395,792.275Z"/><path class="cls-1" d="M1080.14539,647.6228c37.83267,20.04705,44.36305,34.92412,38.53533,45.91863-5.82614,10.99628-21.80272,13.94815-59.63557-6.10066-68.91753-36.5191-91.6748-74.07725-91.6748-74.07725S1010.22486,610.57216,1080.14539,647.6228Z"/><path class="cls-1" d="M1097.049,765.81653c42.11717,7.70607,52.82867,19.92277,50.58795,32.16192-2.239,12.24268-16.58414,19.87115-58.69975,12.16684-76.72031-14.04148-109.74539-42.99257-109.74539-42.99257S1019.21,751.56964,1097.049,765.81653Z"/><path class="cls-1" d="M1234.37121,684.444c14.56967,28.20883,9.93991,41.23-1.11506,46.94053-11.05674,5.71053-24.3542,1.95065-38.92387-26.25818-26.53942-51.38734-19.34969-86.56335-19.34969-86.56335S1207.44325,632.31088,1234.37121,684.444Z"/><path class="cls-1" d="M1260.17721,424.92826c19.84323,37.93962,16.80514,53.90064,5.7777,59.6665-11.02739,5.76745-25.86805-.84249-45.70968-38.78228C1184.09911,376.69819,1186.597,332.852,1186.597,332.852S1223.5045,354.80657,1260.17721,424.92826Z"/><path class="cls-1" d="M1496.92018,1523.283S708.68666,687.18534,438.22024,925.204c-270.46889,238.01355,680.57255,434.68643,900.5657,685.88006Z"/><path class="cls-2" d="M1408.8946,1573.17874c-148.776-176.2426-369.76179-315.08933-528.94563-400.53232-172.57783-92.62953-311.62642-144.15333-313.01265-144.6642l3.185-8.64525c1.38958.511,141.0493,52.25916,314.18816,145.1908,159.88809,85.82286,381.913,225.35475,531.62315,402.7041Z"/><path class="cls-2" d="M655.54878,1822.61158c158.457,30.79991,137.29487,270.1219,316.1061,222.0283,178.82007-48.20072,163.67219-59.392,251.78054,16.862,0,0,35.25887,74.7541,107.01267,85.78485,283.11378,43.52942,659.95513-381.75572,360.825-605.40853-21.59907-16.1491-52.66838-21.88562-87.02613-26.5274-186.37413-25.05668-242.4535,61.43755-393.4151-154.38138-151.01162-215.87585-342.996,102.25692-467.8066,93.84482-124.807-8.41386-235.38268-43.45181-329.65988,90.60624C319.078,1679.58549,497.08138,1791.91861,655.54878,1822.61158Z"/><path class="cls-3" d="M1607.82553,1847.259l5.73634-8.93162c-3.934-2.529-403.36-253.19254-1221.76334-254.9498l-.02331,10.62153C1207.10491,1595.75146,1603.90691,1844.74573,1607.82553,1847.259Z"/><path class="cls-3" d="M1092.17736,1542.17855c105.83366-99.39467,123.18426-176.88657,123.8696-180.13188l-10.387-2.20449c-.16227.7647-17.62513,77.74221-120.75705,174.59936Z"/><path class="cls-3" d="M1075.9229,1657.09232c29.17558-54.06822,24.66991-130.99552-13.02294-222.46333-28.22792-68.49807-65.53577-121.89138-65.90875-122.42293l-8.68308,6.104c1.46047,2.07845,145.35466,209.42148,78.267,333.74679Z"/><path class="cls-4" d="M860.249,1643.20463c12.60857-11.01874,19.40322-18.15173,19.71045-18.47963l-7.74585-7.25726c-1.41716,1.51562-144.62266,151.55537-360.71876,149.63407l-.09139,10.61145C685.52883,1779.26335,813.2584,1684.25857,860.249,1643.20463Z"/><path class="cls-4" d="M759.38177,1890.91113c48.11428-56.03283,61.00941-111.27657,63.35372-147.7543,2.55485-39.704-6.28874-65.87411-6.66331-66.972l-10.04173,3.45937c.34364,1.00476,33.38941,101.7632-54.70865,204.35315Z"/><path class="cls-3" d="M3136.94311,1543.021s261.967-924.96729,510.28461-844.4544c248.31583,80.51271-312.87283,580.91468-380.60106,852.59533Z"/><path class="cls-1" d="M2888.33031,1890.89893s582.53036-1007.80364,904.59394-836.09233c322.06164,171.71289-569.82011,586.98423-728.24774,885.85021Z"/><path class="cls-3" d="M2986.73242,1919.60148c105.6592-208.39074,291.21683-396.72259,428.27165-518.01313,148.58972-131.49631,273.6884-214.66233,274.93657-215.48749l-5.15123-7.78209c-1.25153.82516-126.90085,84.35391-275.97226,216.27818-137.66414,121.83093-324.08494,311.07756-430.41055,520.78045Z"/><path class="cls-2" d="M4001.16668,1826.56979c-133.28645,38.1521-97.35953,241.34529-253.93656,213.50927-132.43018-23.61866-144.18781-34.917-186.82984,5.59315a213.41978,213.41978,0,0,0-37.106,47.37892c-12.17533,20.8722-36.29125,52.02442-75.41186,61.57066-238.99921,58.32694-593.10027-277.49671-353.80939-491.13361,17.27813-15.42753,43.43449-22.64678,72.484-29.17734,157.6007-35.31761,212.02458,34.51312,325.12063-161.3864,113.13583-195.95325,301.09116,61.95372,407.2545,45.46275,106.16175-16.49257,198.16287-54.70512,288.81224,52.97737C4278.40778,1679.14021,4134.46851,1788.50926,4001.16668,1826.56979Z"/><g class="cls-5"><path class="cls-3" d="M3188.21131,1918.56579l-5.57247-7.21413c3.17636-2.45815,326.27051-246.67417,1026.38526-309.11471l.81138,9.08364C3512.34981,1673.5315,3191.37548,1916.12142,3188.21131,1918.56579Z"/><path class="cls-3" d="M3606.69507,1619.13538c-97.95329-77.164-118.57165-142.17494-119.39858-144.90249l8.72285-2.65843c.195.644,20.86867,65.20609,116.324,140.39858Z"/><path class="cls-3" d="M3629.1589,1716.248c-28.98732-44.08872-30.86037-110.246-5.42045-191.31307a609.17529,609.17529,0,0,1,47.2771-109.65559l7.88214,4.57461c-1.09438,1.8886-108.77352,190.00975-42.11562,291.38953Z"/><path class="cls-3" d="M3812.6623,1688.305c-11.61091-8.48634-17.953-14.08462-18.24311-14.34182l6.08846-6.786c1.32577,1.19107,135.02657,118.90486,319.78132,101.171l.87006,9.07145C3972.28631,1791.71144,3855.9225,1719.93342,3812.6623,1688.305Z"/><path class="cls-3" d="M3917.41007,1892.73751c-45.34024-44.35811-60.48812-90.66669-65.20945-121.70153-5.1408-33.78289.4764-56.83377.71468-57.80211l8.84871,2.213c-.21919.88561-20.99134,89.55852,62.02814,170.77566Z"/></g><path class="cls-2" d="M4165.63275,1388.40313c44.16295-7.57827,59.70627,4.19827,62.67546,21.50928,2.96919,17.30747-7.75964,33.593-51.91906,41.17132-80.44377,13.8032-124.70165-10.86671-124.70165-10.86671S4084.01681,1402.40838,4165.63275,1388.40313Z"/><path class="cls-2" d="M3418.1838,604.494c9.60846-43.76417,26.374-53.72653,43.52606-49.96152,17.15209,3.76837,28.20016,19.83987,18.58834,63.60421C3462.794,697.85531,3423.273,729.56505,3423.273,729.56505S3400.42238,685.37611,3418.1838,604.494Z"/><path class="cls-6" d="M3354.76785,2216.81715l-2030.54468-21.51264c-43.469-.46083-78.44646-33.12354-78.44646-73.2574V977.84977c0-40.02514,34.79277-72.64277,78.141-73.25386L3328.26979,876.2575c43.66924-.618,79.67041,31.46121,80.55426,71.7729l26.19436,1194.04307C3435.92648,2183.43817,3399.57831,2217.29018,3354.76785,2216.81715Z"/><path class="cls-1" d="M1347.02418,980.72227h1958.954a22.5644,22.5644,0,0,1,22.5644,22.5644V2080.29461a22.5635,22.5635,0,0,1-22.5635,22.5635H1347.02318a22.5635,22.5635,0,0,1-22.5635-22.5635V1003.28677A22.5645,22.5645,0,0,1,1347.02418,980.72227Z"/><path class="cls-7" d="M2859.80383,1305.53232s-8.20846,53.54693-30.05253,80.8408c-14.397,17.991-54.11489,53.62453-25.86982,65.49953,22.55893,9.48066,65.99855-32.73678,80.09854-43.23775,14.10194-10.50257,35.366-30.38221,30.64984-47.32023-9.77057-35.09311-6.54948-79.20781-6.54948-79.20781Z"/><path class="cls-7" d="M2968.87591,1264.00358s10.92027,53.0601-.06912,86.2441c-7.24506,21.87678-32.09457,69.097-1.48451,70.40894,24.44736,1.04789,50.50013-53.64008,60.06865-68.38935,9.57046-14.75086,22.59517-40.78119,12.28422-55.02454-21.36079-29.507-33.67948-71.98855-33.67948-71.98855Z"/><path class="cls-8" d="M2953.56911,1301.49968c-292.81889-195.32307-278.35793-366.43707-237.777-433.35376,47.127-77.71464,121.74643-139.16615,236.1078-166.5774a633.55921,633.55921,0,0,1,83.76173-13.96883,58.57334,58.57334,0,0,1,64.43432,59.80632l-2.62379,99.65187.221.00513c-48.85494-1.02367-197.07874,13.87408-235.91617,92.85916-8.072,16.4185,189.03592,247.92747,181.67861,289.46646C3035.135,1276.38431,2982.201,1320.5973,2953.56911,1301.49968Z"/><path class="cls-8" d="M2840.03113,1330.75286a58.331,58.331,0,0,1-58.54436-61.73452c4.41569-74.735,18.3-201.92947,61.821-298.03216,24.68193-54.50149,63.92345-104.05732,116.63479-147.28976,39.74726-32.59872,87.31426-61.73293,141.38248-86.59446,89.93134-41.35268,154.70417-35.58523,154.70417-35.58523l49.14838,72.47537c-.65069.13116,13.78428,73.10538-90.11942,138.17518-57.32572,35.90112-172.5727,57.84189-219.9845,150.6284-33.84511,66.23842-46.77985,154.06549-51.08011,215.441a56.256,56.256,0,0,1-55.87215,52.27631Z"/><path class="cls-9" d="M2906.90663,444.63855s-60.395,92.91962-82.032,230.6649c-14.3176,91.15015,151.56067-14.96316,151.56067-14.96316l7.378-190.41366Z"/><path class="cls-10" d="M3208.82277,392.11972s-46.00312-78.63295-152.04908-54.50237c-106.0442,24.13059-149.24907,132.44221-156.84643,392.54677,0,0,63.68534,112.69373,353.38991,90.72361,32.09811-2.43411,78.09611-6.6771,62.40961-58.72573C3286.56675,665.412,3258.31992,472.435,3208.82277,392.11972Z"/><path class="cls-10" d="M3325.47843,415.08239l-109.079,20.502s-190.73821,56.41076-244.13489,56.856c-53.39844.44723-75.49459-38.60781-75.49459-38.60781s43.065-73.10025,133.32605-107.59a262.10631,262.10631,0,0,1,26.6743-8.61927c15.6347-4.13693,31.525-7.76123,47.43071-7.94259C3284.25532,327.6154,3325.47843,415.08239,3325.47843,415.08239Z"/><path class="cls-7" d="M3325.47843,415.08239c2.35987,8.59947-20.50452,22.94818-51.06969,32.049s-57.255,9.50824-59.61293.90966c-2.36164-8.60018,20.50452-22.94889,51.06791-32.04967C3296.43065,406.88967,3323.12033,406.4831,3325.47843,415.08239Z"/><path class="cls-9" d="M3104.013,329.69544a32.32791,32.32791,0,0,1-29.48122-14.018l-20.51654-30.34686-5.95394-8.80911-35.00684-51.78967,15.32235,57.6554,9.20084,34.60646,2.624,9.8639a16.24692,16.24692,0,0,1-9.96907,19.33325l-.13647.05179c-2.98475,7.84926-6.23871,23.27078,12.67418,25.55375,22.224,2.68619,52.9825-20.25333,61.43083-42.11561C3104.13723,329.68519,3104.075,329.6912,3104.013,329.69544Z"/><path class="cls-11" d="M3077.29553,202.5503s-.43857,10.02529,8.81424,28.63785c13.53734,27.2343-17.05717,45.49032-27.02978,38.87968-1.23261-.81738-9.15434-50.00889-9.15434-50.00889l9.32015-8.24116Z"/><path class="cls-7" d="M3053.89252,284.351q.07532.48815.12268.97965c2.18893,19.10875-16.29423,31.74333-16.29423,31.74333l-.14336-.08025-9.20084-34.60558c5.73281-3.42914,14.06906-7.41776,19.68449-5.86573C3050.99757,277.33287,3053.18828,279.65544,3053.89252,284.351Z"/><path class="cls-9" d="M2957.25651,245.02582c-7.1139-37.42275,11.7092-72.43312,42.04138-78.19969s60.6884,19.89608,67.8023,57.31883-11.70919,72.434-42.04137,78.19969C2994.72663,308.11121,2964.36865,282.44768,2957.25651,245.02582Z"/><path class="cls-11" d="M2980.53684,186.70931c1.92131,1.79173-.09669,38.2928,66.06395,34.34042,66.15906-3.95132,12.47231-74.92663-35.51257-67.64-69.287,10.52148-70.50741,58.68508-60.73331,74.07637C2960.1306,242.87914,2980.53684,186.70931,2980.53684,186.70931Z"/><path class="cls-11" d="M3071.92334,124.93837s-25.319,24.91951.46614,38.9419c25.78514,14.02328,88.66778,10.349,77.79047,44.35122-10.87538,34.003-16.698,82.422,14.50921,82.4022,31.2109-.01909,49.74232-5.90639,66.57164,15.73228,16.82754,21.63956,68.67766-3.59319,58.78954-31.28337-9.88793-27.68931,32.19657-61.71119,7.12257-84.14833-25.07224-22.438-78.50338-35.93647-97.28511-67.849C3181.10607,91.17192,3092.53144,105.644,3071.92334,124.93837Z"/><path class="cls-11" d="M3037.3722,211.305s31.67705,22.8057,27.93272,52.98674c0,0,12.1269-19.63446,11.27947-25.94141-.84938-6.30766-9.20278-28.07855-9.20278-28.07855Z"/><path class="cls-9" d="M3061.69706,235.761c-5.09078,7.12257-13.67557,9.38486-19.17027,5.05366-5.49628-4.33208-5.8226-13.61759-.73182-20.741,5.09237-7.12256,13.6754-9.38574,19.17009-5.05365C3066.46152,219.352,3066.78943,228.63755,3061.69706,235.761Z"/><path class="cls-12" d="M3230.15086,306.66118c-8.12555-30.57224-26.14434-31.9498-45.22127-33.40761-7.56608-.5791-15.3913-1.17729-22.85555-3.56809-3.55094-1.13769-6.03685-3.11167-7.39019-5.86414-3.3869-6.88693.54038-17.74339,5.08547-30.31221,6.62372-18.31046,14.12775-39.06281,2.92783-55.17232-21.66466-31.15981-54.52234-32.55806-54.852-32.56849-19.101,1.20575-29.00111-.93475-30.14057-6.55637-1.14794-5.67323,7.79234-11.9853,11.09139-13.14031,26.7397-9.35374,57.66052-13.12812,102.45348,22.2731,35.3245,27.91981,32.89922,43.63052,29.82821,63.5213-.67844,4.39077-1.37756,8.93-1.70052,13.86277-.25543,3.90572.56284,6.798,2.50146,8.8427,4.31565,4.5557,13.943,4.43744,23.26142,4.33209,12.0424-.14319,24.49738-.2892,27.85317,9.2848,2.624,7.48759-.36079,16.389-3.24708,24.99711-2.95876,8.82114-5.75189,17.153-2.3132,22.98247,2.24585,3.80655,7.0363,6.33452,14.64215,7.72676l-.41081,2.25964c-8.30338-1.519-13.60646-4.40368-16.20956-8.81937-3.97395-6.73243-1.01855-15.54667,2.11292-24.87973,2.762-8.24116,5.62073-16.762,3.25573-23.50819-2.80868-8.016-13.92411-7.88815-25.65575-7.74585-9.80857.11649-19.94875.23387-24.95663-5.04923-2.37012-2.50058-3.42313-6.05665-3.12793-10.57257.32968-5.03368,1.03923-9.62384,1.72456-14.06376,2.957-19.15117,5.29265-34.27837-28.984-61.36772-43.91954-34.7127-74.14637-31.046-100.26826-21.90719-3.17619,1.11082-10.36787,6.72377-9.59786,10.51459.38659,1.92219,3.86682,6.2327,27.85317,4.718.44705.00866,34.42686,1.41115,56.77331,33.5515,11.87836,17.0858,3.82016,39.364-2.6533,57.26544-4.36744,12.07688-8.13934,22.507-5.1857,28.51694,1.08235,2.20272,3.05545,3.73637,6.03154,4.68934,7.20723,2.30966,14.89422,2.8976,22.32754,3.46556,19.91411,1.52251,38.72341,2.96053,47.26667,35.10777Z"/><path class="cls-12" d="M3035.57181,200.7713c-20.52008,0-33.71042-14.13288-33.85714-14.2925l1.5432-1.41468c.15715.17093,15.90746,16.97179,39.52453,13.00561l.347,2.06467A45.4542,45.4542,0,0,1,3035.57181,200.7713Z"/><path class="cls-6" d="M2975.55478,285.84766a21.28641,21.28641,0,0,1-12.5964-1.577,29.17806,29.17806,0,0,1-15.00823-16.43406c-5.34957-13.98881-.13117-29.12114,11.63335-33.7311a20.75956,20.75956,0,0,1,16.04729.58246,29.17937,29.17937,0,0,1,15.00982,16.43317c5.34975,13.99057.13117,29.12131-11.63318,33.73216A19.53669,19.53669,0,0,1,2975.55478,285.84766Zm-12.26849-51.41509a18.10654,18.10654,0,0,0-3.21084.92362c-11.081,4.34322-15.95925,18.69794-10.87024,32.00053a27.82931,27.82931,0,0,0,14.29691,15.68491,19.42687,19.42687,0,0,0,15.01319.56089c11.08272-4.34234,15.95943-18.69706,10.87024-32.00053a27.82735,27.82735,0,0,0-14.2985-15.68562A19.93982,19.93982,0,0,0,2963.28629,234.43257Z"/><path class="cls-6" d="M3027.27886,268.2639a21.24939,21.24939,0,0,1-12.59145-1.57607,29.17073,29.17073,0,0,1-15.00982-16.43318c-5.35134-13.9888-.13293-29.12113,11.635-33.73109a20.75024,20.75024,0,0,1,16.04392.58174,29.17491,29.17491,0,0,1,15.00983,16.43388h0c5.35151,13.98969.13293,29.12043-11.635,33.73039A19.30589,19.30589,0,0,1,3027.27886,268.2639Zm-12.2669-51.41421a17.90836,17.90836,0,0,0-3.20907.92539c-11.08254,4.34145-15.95766,18.69706-10.87024,31.99965a27.83048,27.83048,0,0,0,14.29515,15.68579,19.42759,19.42759,0,0,0,15.01495.55841c11.081-4.34163,15.95766-18.69635,10.87024-31.99894h0a27.83753,27.83753,0,0,0-14.29673-15.68649A19.95821,19.95821,0,0,0,3015.012,216.84969Z"/><path class="cls-6" d="M2984.61261,254.87063a.67217.67217,0,0,1-.61463-1.12372c.2572-.26675,6.39922-6.53993,19.10628-7.03718a.6716.6716,0,1,1,.05179,1.3422c-12.13556.473-18.12574,6.56327-18.18619,6.62461A.667.667,0,0,1,2984.61261,254.87063Z"/><path class="cls-13" d="M2990.1849,284.19735a121.354,121.354,0,0,0,36.35171-13.29057s5.07345,18.19485-15.01,23.29676C2999.84675,297.17008,2990.1849,284.19735,2990.1849,284.19735Z"/><path class="cls-12" d="M2990.1849,284.19735s5.25641,2.90343,15.83852.84407c10.58371-2.05936,20.51319-14.13464,20.51319-14.13464S3005.11023,281.41535,2990.1849,284.19735Z"/><path class="cls-14" d="M3006.99,236.24941a1.27232,1.27232,0,0,1-.59041-2.339c.347-.22273,7.93393-6.14556,16.85883.53172a1.27992,1.27992,0,0,1,.2899,1.77547,1.39239,1.39239,0,0,1-1.77282.29078c-6.47169-2.76449-13.71516-.6369-14.00347-.45394A1.27765,1.27765,0,0,1,3006.99,236.24941Z"/><path class="cls-14" d="M3019.48475,248.0986c.66112,2.96142-.54551,5.75189-2.69467,6.23182-2.14916.47975-4.42612-1.53294-5.089-4.49347-.66129-2.9623.54551-5.75278,2.69467-6.23271C3016.5449,243.1252,3018.82364,245.13719,3019.48475,248.0986Z"/><path class="cls-14" d="M2963.63664,251.237a1.27248,1.27248,0,0,1-1.43784-1.93527c.23811-.33922,4.99568-8.70553,15.79009-5.93131a1.28225,1.28225,0,0,1,.94766,1.53117,1.4,1.4,0,0,1-1.53118.94589c-7.03629-.09315-12.92112,4.63242-13.12122,4.91295A1.26138,1.26138,0,0,1,2963.63664,251.237Z"/><path class="cls-14" d="M2979.703,257.435c1.74012,2.48679,1.68656,5.52492-.11737,6.78776-1.80393,1.26178-4.6782.26922-6.41655-2.21669-1.74012-2.48661-1.68655-5.52562.11738-6.78846C2975.0904,253.95585,2977.9629,254.94841,2979.703,257.435Z"/><path class="cls-9" d="M3306.63978,657.30551c-46.58841,73.0018-138.87784,119.59886-235.85219,116.54323l10.3334-77.80425c75.19408-13.70651,132.841-62.64259,143.57831-103.89327,13.49067-51.8328,8.86268-102.326,2.41679-140.27432a9.80168,9.80168,0,0,1,3.70455-9.44089c9.61519-7.36438,34.52515-22.3362,79.03864-23.21651a8.61486,8.61486,0,0,1,8.48457,6.40611C3336.96666,495.76869,3348.21324,592.165,3306.63978,657.30551Z"/><g class="cls-15"><path class="cls-16" d="M3257.56724,681.23653a12.42594,12.42594,0,0,1-4.92144-1.00122c-8.15842-3.48359-11.02739-15.24281-6.3925-26.21152,2.64995-6.27495,7.39708-11.29661,12.6968-13.43711a13.46378,13.46378,0,0,1,10.51971-.14689c8.15843,3.48536,11.02563,15.243,6.3941,26.21505h0c-2.65154,6.27336-7.39868,11.29661-12.69839,13.43729A14.95792,14.95792,0,0,1,3257.56724,681.23653Zm6.97937-38.20725a11.35393,11.35393,0,0,0-4.25695.87872c-4.43656,1.79173-8.44833,6.09182-10.73573,11.51068-3.86841,9.15611-1.85042,18.81107,4.49878,21.52306a9.98847,9.98847,0,0,0,7.77325-.17093c4.43478-1.79191,8.44833-6.09553,10.73731-11.51068,3.86683-9.15788,1.84724-18.81461-4.502-21.52483A8.89052,8.89052,0,0,0,3264.54661,643.02928Z"/></g><path class="cls-9" d="M3081.121,696.04449s-69.64777-22.14972-91.787-11.673c-22.13769,10.475-42.49726,40.59469-27.3941,37.01441,15.10139-3.57851,33.13379-13.48378,33.13379-13.48378s-37.53234,22.97487-28.35731,29.42589c9.1752,6.44925,41.62366-13.84633,41.62366-13.84633s-42.48329,30.8966-31.84426,34.18345c10.64062,3.28684,42.74739-20.41136,42.74739-20.41136s-38.37836,30.32528-25.93028,33.85377,31.5526-25.26385,40.72781-18.81284c9.17326,6.44925,32.57626,36.07365,53.6194,12.76221Z"/><path class="cls-17" d="M2995.65538,708.59439l-1.16173-1.38446c.41081-.34523,10.14868-8.42411,17.89612-6.21626l-.492,1.73835C3005.05491,700.79339,2995.74871,708.51679,2995.65538,708.59439Z"/><path class="cls-17" d="M3008.93375,724.16528l-1.18753-1.36377c.39172-.34011,9.6843-8.31363,21.04649-7.42979l-.14318,1.80216C3018.08121,716.35739,3009.02532,724.08591,3008.93375,724.16528Z"/><path class="cls-17" d="M3019.82486,737.946l-1.1635-1.38445c.48506-.40746,11.98531-9.97085,20.04351-6.92405l-.63867,1.69009C3031.00409,728.66211,3019.93534,737.85288,3019.82486,737.946Z"/><path class="cls-7" d="M2995.56912,804.40878H2771.98365a10.86493,10.86493,0,0,1-10.3143-7.38842L2715.207,658.26007a10.80389,10.80389,0,0,1,10.3143-14.19846h215.01287a22.73933,22.73933,0,0,1,21.58864,15.46554l43.759,130.68317A10.80489,10.80489,0,0,1,2995.56912,804.40878Z"/><path class="cls-7" d="M2981.53629,804.40878H2757.95083a10.861,10.861,0,0,1-10.31254-7.38842l-46.4659-138.76029a10.80644,10.80644,0,0,1,10.31625-14.19846h215.01445A22.73877,22.73877,0,0,1,2948.09,659.52715l43.759,130.68317A10.80482,10.80482,0,0,1,2981.53629,804.40878Z"/><path class="cls-18" d="M2824.87459,719.69249c0-5.26684,6.07821-7.41423,11.383-7.41423,5.30308,0,13.96548,5.78124,13.91191,13.16277-.06045,7.96663-6.28538,9.0025-11.59022,9.0025C2833.27466,734.44353,2824.87459,726.40088,2824.87459,719.69249Z"/><path class="cls-7" d="M2757.83876,784.8003h314.69537a4.20034,4.20034,0,0,1,4.20034,4.20034v13.27294a2.1352,2.1352,0,0,1-2.1352,2.1352h-316.7605a0,0,0,0,1,0,0V784.8003a0,0,0,0,1,0,0Z"/><path class="cls-8" d="M2965.6375,714.21335c-.10872-.41593-11.07919-41.551-18.18284-54.33408-6.99988-12.59816-15.626-15.09432-15.71054-15.11677l.38306-1.4c.37634.10182,9.30283,2.68424,16.5981,15.81077,7.18991,12.9418,17.865,52.96854,18.31735,54.66552Z"/><path class="cls-8" d="M2998.68149,785.527c-8.28765,0-10.35231-3.66832-10.437-3.8237l-17.47311-52.15557,1.37757-.45907,17.42661,52.03979-.00177-.00177c.01892,0,1.8902,2.94675,9.10768,2.94675Z"/><path class="cls-19" d="M2792.60555,1165.9398l-1.80393-.12073c.0449-.66642,4.71267-67.5573,25.38653-143.18836,19.10274-69.88588,56.17248-161.74718,124.296-202.51988l.92875,1.5538c-67.6091,40.46-104.46654,131.87761-123.48125,201.44265C2797.30619,1098.56723,2792.65045,1165.27515,2792.60555,1165.9398Z"/><path class="cls-19" d="M2941.853,1292.97022l-1.809-.012c.73712-104.0695,34.78057-184.40439,35.12245-185.20374l1.66233.71468C2976.48529,1109.26494,2942.58838,1189.28412,2941.853,1292.97022Z"/><path class="cls-9" d="M3669.01664,1297.77622s-53.35354-2.46169-61.84854-84.321c-8.7331-84.14144,87.77351,0,87.77351,0Z"/><path class="cls-9" d="M3723.44918,1029.38223c-3.24725,1.28087-57.25324,15.91259-81.16552,97.36112-23.9121,81.44677,56.36427,17.23323,56.36427,17.23323Z"/><path class="cls-7" d="M3794.57457,2151.52143s-.732,29.2721-20.54076,37.52881c-19.80716,8.25672-77.1967,15.709-55.75141,34.52868,12.30472,10.79954,70.2951,3.82193,86.66693,3.82193,16.3736-.00159,31.74775,7.133,43.91265-3.82528,13.3855-12.05619-.00176-72.0559-.00176-72.0559s-14.12758,7.35908-26.83463,7.031C3803.71513,2158.076,3794.57457,2151.52143,3794.57457,2151.52143Z"/><path class="cls-7" d="M4022.044,2151.51436s-.73183,29.274-20.539,37.53076-77.19847,15.70895-55.75319,34.52868c12.30668,10.79777,70.29687,3.82016,86.67047,3.82016s31.746,7.13476,43.91266-3.8237c13.38372-12.05619-.00336-72.05749-.00336-72.05749s-14.12775,7.36067-26.833,7.031C4031.18633,2158.06914,4022.044,2151.51436,4022.044,2151.51436Z"/><path class="cls-20" d="M3647.35729,1349.06s-3.66319,122.52828,35.447,357.58306c28.233,169.69489,61.56358,340.688,77.91827,422.66647,5.84682,29.32407,30.5116,50.76423,59.739,51.93638l15.70735.63178c31.60439,1.26708,57.25307-25.88184,54.94517-58.156l-39.67655-554.61337-9.781-182.54355Z"/><path class="cls-7" d="M4005.10086,1456.88741c-1.80393,14.9149-86.13027,13.10231-189.37621.03447-103.24594-13.06766-183.61211-35.435-181.80818-50.34811s85.09262-16.72572,188.33874-3.65788C3925.50115,1415.98532,4006.903,1441.97605,4005.10086,1456.88741Z"/><path class="cls-20" d="M3765.89271,1436.57628l220.42642,708.07979c9.22505,29.63819,35.9096,49.94755,66.30736,50.46726l13.24726.22608c31.28338.53508,55.19566-28.39,49.492-59.865l-120.5794-665.33064a21.89744,21.89744,0,0,0-15.21523-16.396C3938.22712,1441.83445,3761.836,1407.292,3765.89271,1436.57628Z"/><path class="cls-2" d="M3970.62909,1049.22033s-29.32919-82.51533-133.806-78.76234c-104.4752,3.75281-183.36181,141.04238-202.90665,436.11578,0,0,171.07953-37.515,371.48984,50.00288C4005.40631,1456.57665,4016.51661,1169.48738,3970.62909,1049.22033Z"/><path class="cls-2" d="M4043.99857,1044.25224l-74.01521,47.37556s-190.253,19.03362-240.75824,9.87061c-50.50685-9.163-58.36477-46.29833-58.36477-46.29833s48.04516-65.90168,139.475-82.26838c8.59152-1.55027,17.24543-1.8057,26.48427-2.46859a259.92956,259.92956,0,0,1,46.21542,1.01342C3973.36513,981.22465,4043.99857,1044.25224,4043.99857,1044.25224Z"/><path class="cls-19" d="M3864.40866,1753.0605l-47.40314-144.10844a136.63185,136.63185,0,0,0-61.73452-76.15217l1.84193-3.21614a140.32558,140.32558,0,0,1,63.41419,78.21012l47.40313,144.10826Z"/><path class="cls-21" d="M3765.17626,952.082c-.57308-.13647-14.0482-3.42314-18.05326-13.07474-2.11469-5.09254-1.15483-10.9756,2.85182-17.4853,1.785-2.90008,3.43-5.524,4.93716-7.927,10.46456-16.68259,13.98792-22.30509,11.25-35.3572l1.18771-.2503c2.84139,13.5338-1.03923,19.72072-11.40886,36.25483-1.50537,2.39787-3.14862,5.0183-4.93027,7.915-3.789,6.15917-4.72133,11.66942-2.76892,16.38049,3.76678,9.07657,17.0798,12.32718,17.21432,12.35829Z"/><path class="cls-21" d="M3766.7541,878.11164s4.62976,20.95333-9.2528,42.88544,1.22748,37.95871,20.03325,29.52258c18.80771-8.43454,25.97517,15.54332,50.01844,2.289C3851.59289,939.55449,3766.7541,878.11164,3766.7541,878.11164Z"/><path class="cls-9" d="M3877.86839,970.76185a28.88963,28.88963,0,0,1-23.54442-17.22651l-12.94869-30.06968-3.75635-8.728-22.09279-51.31309,3.82882,53.17748,2.30454,31.91851.656,9.101a14.5233,14.5233,0,0,1-11.98018,15.31016l-.1278.02068c-3.93064,6.39409-9.36152,19.39282,6.86359,24.55271,19.06315,6.06778,49.89771-8.94046,60.9647-26.72432C3877.97888,970.77388,3877.92355,970.76875,3877.86839,970.76185Z"/><path class="cls-7" d="M3841.42866,922.58694c-.00689.29185-.02581.58529-.05338.87872-1.26708,17.14343-19.6053,25.14984-19.6053,25.14984l-.11048-.09492-2.30454-31.91851c5.60871-2.05424,13.59267-4.1638,18.264-1.86439C3840.06153,915.93919,3841.59624,918.34378,3841.42866,922.58694Z"/><path class="cls-9" d="M3763.148,871.92807c0-34.04362,22.36891-61.64136,49.96488-61.64136,27.59261,0,49.9631,27.59774,49.9631,61.64136s-22.37049,61.64137-49.9631,61.64137C3785.51692,933.56944,3763.148,905.9717,3763.148,871.92807Z"/><path class="cls-9" d="M3856.392,881.22578c-5.657,5.40489-13.572,5.9573-17.67356,1.23774-4.10158-4.72133-2.84139-12.928,2.81911-18.33468,5.66033-5.40313,13.57181-5.9573,17.67515-1.236S3862.05409,875.82088,3856.392,881.22578Z"/><path class="cls-13" d="M3786.20384,911.81693a108.45648,108.45648,0,0,0,34.13519-5.60182s1.41716,16.82242-17.06759,17.94968C3792.52193,924.819,3786.20384,911.81693,3786.20384,911.81693Z"/><path class="cls-12" d="M3786.20384,911.81693s4.12933,3.42649,13.767,3.38513c9.63605-.04137,20.36823-8.98695,20.36823-8.98695S3799.77406,911.867,3786.20384,911.81693Z"/><path class="cls-14" d="M3808.27754,872.522a1.137,1.137,0,0,1-.126-2.15093c.34363-.13647,7.991-4.07064,14.713,3.28154a1.14484,1.14484,0,0,1-.04154,1.60719,1.25146,1.25146,0,0,1-1.60878-.03977c-5.21681-3.5094-11.93192-2.85005-12.2167-2.73781A1.13756,1.13756,0,0,1,3808.27754,872.522Z"/><path class="cls-14" d="M3817.26961,885.01324c.08821,2.71022-1.43625,4.95784-3.404,5.01989-1.9662.06222-3.63031-2.08358-3.71675-4.79381-.08626-2.712,1.438-4.95784,3.40422-5.02166C3815.521,880.15544,3817.18512,882.30124,3817.26961,885.01324Z"/><path class="cls-14" d="M3767.714,878.44821a1.13717,1.13717,0,0,1-.93918-1.9404c.26587-.2572,5.83834-6.81,14.85445-2.57376a1.15014,1.15014,0,0,1,.57485,1.5036,1.25121,1.25121,0,0,1-1.50183.57485c-6.1627-1.25506-12.11823,1.91088-12.341,2.12494A1.14519,1.14519,0,0,1,3767.714,878.44821Z"/><path class="cls-14" d="M3780.78339,886.57022c1.11347,2.47371.5593,5.13214-1.2342,5.94015-1.79527.80607-4.15337-.54374-5.26507-3.01763-1.1117-2.4737-.55771-5.13373,1.236-5.94C3777.31536,882.74493,3779.67169,884.09474,3780.78339,886.57022Z"/><path class="cls-21" d="M3791.89546,821.45905s1.07546,21.38854,27.78582,25.03441c26.70876,3.64746,45.13147,14.9476,41.54253,34.18681-3.58541,19.24256-46.63844,59.159-14.99781,74.62117,31.64239,15.46041,24.9082-13.36817,59.21256-6.68594,34.30418,6.68594,40.4911-39.1222,16.87067-65.7067-23.61866-26.58432-14.0535-96.92945-102.628-93.81018-88.57445,3.11945-56.12246,73.78559-56.12246,73.78559S3791.94884,845.07789,3791.89546,821.45905Z"/><path class="cls-12" d="M3855.33722,959.25966c-6.66509-2.68954-10.76154-6.69779-12.1771-11.91124-3.89264-14.34341,12.82107-36.00983,27.57016-55.12636,3.88061-5.03209,7.54716-9.78453,10.796-14.32113,9.01806-12.5895,9.79319-27.01069,2.07509-38.57493-8.46565-12.68284-24.58541-18.03947-42.07778-13.98792-17.42308,4.04288-29.41723.39189-36.40509-3.38-7.59383-4.09822-10.99964-9.08541-11.14123-9.29417l.5973-.40409c.13806.20028,13.917,19.99542,46.78692,12.37738,17.7821-4.12757,34.20413,1.35,42.84055,14.28825,7.77342,11.64715,6.97407,26.745-2.08871,39.395-3.25573,4.54527-6.92758,9.3046-10.81156,14.34182-14.64745,18.98554-31.24378,40.49977-27.44589,54.49989,1.37244,5.05277,5.21681,8.79179,11.75055,11.42954Z"/><path class="cls-6" d="M3765.8547,917.88294c-7.504-2.76379-14.1053-11.055-17.64068-22.17393-5.76922-18.1222-1.71926-38.26947,9.02831-44.92077a14.27952,14.27952,0,0,1,12.98158-1.286c7.504,2.76378,14.10706,11.0532,17.64245,22.13928h0c5.76744,18.09127,1.71925,38.27124-9.03008,44.95365a14.22707,14.22707,0,0,1-7.64916,2.24921A15.7236,15.7236,0,0,1,3765.8547,917.88294Zm19.89007-45.53363c-3.32485-10.475-9.41508-18.21889-16.29087-20.75659a12.35945,12.35945,0,0,0-11.03765,1.05832c-9.945,6.17136-13.56155,25.193-8.08242,42.38307,3.32486,10.44387,9.41685,18.22066,16.29247,20.75836a12.428,12.428,0,0,0,11.0205-1.05991c9.945-6.20071,13.57534-25.22426,8.098-42.38325Z"/><g class="cls-15"><path class="cls-12" d="M3845.6667,859.87878c4.00842,17.60091-2.39769,36.50019-14.30893,42.20877-11.913,5.71053-24.82017-3.9271-28.82859-21.52642-4.00841-17.60091,2.3977-36.5,14.31071-42.21054C3828.75272,832.64006,3841.65828,842.27964,3845.6667,859.87878Z"/></g><g class="cls-15"><path class="cls-12" d="M3788.34275,873.12091c4.01867,17.68046-1.33266,36.85408-11.9526,42.8234-10.61994,5.9695-22.48982-3.52319-26.50849-21.20541-4.01885-17.68028,1.33266-36.8539,11.9526-42.8234C3772.456,845.94441,3784.32231,855.43887,3788.34275,873.12091Z"/></g><path class="cls-6" d="M3814.72856,902.32937c-7.68009-3.727-13.54424-12.146-16.08353-23.10267-4.36743-18.79729,2.74824-39.10665,15.87476-45.27643a18.34927,18.34927,0,0,1,16.22689.1278c7.66453,3.72877,13.51312,12.146,16.03526,23.07316h0c4.38635,18.82839-2.73268,39.13617-15.87476,45.27483a18.24621,18.24621,0,0,1-7.9684,1.86262A19.07017,19.07017,0,0,1,3814.72856,902.32937Zm.72334-66.38691c-12.21157,5.75189-18.78173,24.93418-14.6524,42.76984,2.36146,10.154,7.93552,18.25,14.9096,21.62311a16.56542,16.56542,0,0,0,14.2658.09846c12.22713-5.75189,18.79728-24.93577,14.65258-42.76807h0c-2.34432-10.12286-7.90459-18.188-14.85958-21.59395a16.16543,16.16543,0,0,0-14.316-.12939Z"/><path class="cls-6" d="M3785.98642,879.70839a2.05421,2.05421,0,0,0,1.3171-.48169h0c.2245-.195,5.60694-4.40368,14.89422-2.636a2.14936,2.14936,0,0,0,2.44083-1.63988,2.03486,2.03486,0,0,0-1.63989-2.4099c-11.21211-2.34431-18.04124,3.24531-18.3467,3.47157a2.08389,2.08389,0,0,0-.25719,2.9243A2.01283,2.01283,0,0,0,3785.98642,879.70839Z"/><path class="cls-7" d="M4045.05335,1045.88877c2.567,7.45046-16.78954,21.40038-43.236,31.15557-26.44627,9.755-49.96488,11.62293-52.53174,4.17051-2.567-7.45223,16.78954-21.40038,43.2358-31.15716C4018.9661,1040.30427,4042.48648,1038.43635,4045.05335,1045.88877Z"/><path class="cls-9" d="M3863.51279,1303.69374l-.88561-54.08536a13.93159,13.93159,0,0,1,12.94-14.11573c37.49275-2.68265,63.73891-14.31071,78.11856-34.64429,19.96431-28.23658,17.85828-72.0939,12.29447-102.50722-2.84669-15.564,2.29075-25.97164,21.0898-35.94938a128.6509,128.6509,0,0,1,36.12032-12.29271c7.98908-1.362,15.91948,1.84883,17.98061,9.68607a329.8934,329.8934,0,0,1,9.39439,53.8059c4.73,53.33445-5.55514,99.72947-29.75043,134.165-29.6951,42.26746-77.56261,65.65314-142.41658,69.62709A13.9842,13.9842,0,0,1,3863.51279,1303.69374Z"/><g class="cls-5"><path class="cls-16" d="M4001.3583,1233.62491a10.78105,10.78105,0,0,1-6.88605-2.2874c-5.897-4.7489-5.25658-15.36018,1.42582-23.65667,6.67888-8.29648,16.91045-11.18277,22.8073-6.43369,5.89348,4.74891,5.25658,15.35842-1.42582,23.6549C4012.781,1230.4899,4006.67,1233.62491,4001.3583,1233.62491Zm10.449-31.04863c-4.19827,0-9.32864,2.71535-13.08675,7.38153-5.33419,6.62195-6.23695,15.1203-1.9731,18.55564,4.26208,3.43,12.37208.73695,17.708-5.88483,5.334-6.62548,6.23854-15.12384,1.97469-18.5574A7.23215,7.23215,0,0,0,4011.8073,1202.57628Z"/></g><path class="cls-20" d="M3922.0865,1440.72611s-206.05862-39.36385-272.87013-20.79619l32.03765,47.47915,119.10179,6.73932Z"/><path class="cls-7" d="M3838.88071,1240.67322l-177.6184.06718a8.62759,8.62759,0,0,1-8.19644-5.86574l-36.954-110.22a8.58448,8.58448,0,0,1,8.19113-11.283l170.81014-.06559a18.06348,18.06348,0,0,1,17.15386,12.27892l34.803,103.80365A8.5862,8.5862,0,0,1,3838.88071,1240.67322Z"/><path class="cls-7" d="M3827.73258,1240.67658l-177.61857.06912a8.63583,8.63583,0,0,1-8.198-5.86591l-36.9506-110.21825a8.58485,8.58485,0,0,1,8.1876-11.28636l170.8119-.06381a18.05848,18.05848,0,0,1,17.15386,12.27874l34.80321,103.80365A8.58437,8.58437,0,0,1,3827.73258,1240.67658Z"/><path class="cls-18" d="M3703.25348,1173.42492c-.00159-4.18448,4.82491-5.89349,9.03874-5.89349,4.21559-.00336,11.0981,4.59017,11.05674,10.45254-.0449,6.32851-4.989,7.15367-9.20438,7.15526C3709.93076,1185.141,3703.25525,1178.7538,3703.25348,1173.42492Z"/><path class="cls-8" d="M3815.07732,1169.02814c-.088-.32809-8.81424-33.00617-14.461-43.15661-5.54471-9.97085-12.42033-11.98884-12.48945-12.00776l.30723-1.1117c.29874.08273,7.39019,2.13184,13.19052,12.5568,5.71724,10.27807,14.2087,42.07407,14.5679,43.42406Z"/><polygon class="cls-8" points="3833.02 1222.549 3819.16 1181.212 3820.253 1180.843 3834.113 1222.18 3833.02 1222.549"/><path class="cls-9" d="M3606.09777,1201.3092s-2.94321,23.13714,16.63433,25.333c24.94267,2.79985,59.13142-19.53264,43.35672-21.54039-13.98793-1.77971-34.54071.832-34.54071.832s52.19182-7.42112,47.334-18.52276c-4.85585-11.10322-49.66967-4.0671-49.66967-4.0671s50.30321-12.36695,42.5213-21.16741c-7.78208-8.80045-48.50281-2.68424-48.50281-2.68424s49.69742-9.251,40.43082-19.2392c-9.26836-9.98817-34.20077.3797-45.63367,2.19918-10.80467,1.721-13.45285,9.74652-11.43308,20.80662,0,0-3.97041,12.4343-.94943,19.253,1.16,2.61707-.965,5.73475-.95985,7.79588A77.41581,77.41581,0,0,0,3606.09777,1201.3092Z"/><path class="cls-9" d="M3889.33418,1232.06085s-13.16613-39.85085-35.71463-49.60939c-22.545-9.75678-58.724-5.17527-46.0307,3.84278,12.6915,9.01453,32.08944,16.056,32.08944,16.056s-42.15185-13.09206-40.94522-1.90928c1.20662,11.18436,37.9778,22.21865,37.9778,22.21865s-51.40113-11.58316-46.83871-1.38782c4.56082,10.19534,43.671,18.71951,43.671,18.71951s-48.25587-8.866-42.68,2.85358,39.92492,7.06724,41.13331,18.25178c1.2084,11.18436,9.78453,55.2006,41.28357,55.64252Z"/><path class="cls-17" d="M3854.70721,1211.61325c-3.06076-6.44059-15.04624-8.3481-15.167-8.36719l.27611-1.7935c.53172.08113,13.061,2.08181,16.529,9.3822Z"/><path class="cls-17" d="M3854.90731,1233.79566c-6.37677-8.5277-18.2-10.22114-18.31735-10.2367l.24182-1.7988c.5144.07088,12.68619,1.80234,19.52575,10.94979Z"/><path class="cls-17" d="M3850.464,1250.26083c-2.66709-7.107-16.914-9.35109-17.05893-9.37195l.27434-1.79527c.62842.09493,15.445,2.43571,18.48494,10.53015Z"/><path class="cls-17" d="M3625.59417,1227.923c-4.0222,0-7.78368-.59041-9.94662-2.38568l1.15819-1.39842c4.57638,3.79965,19.47413,1.15837,24.83236-.17942l.4368,1.759A78.8942,78.8942,0,0,1,3625.59417,1227.923Z"/><path class="cls-2" d="M2459.1902,1398.02026l-785.10892,34.63563c-63.725,2.812-117.87271-39.76105-120.53627-94.77l-37.50477-774.344c-2.65507-54.83646,46.87672-101.07946,110.43939-103.10453l849.041-27.05735c66.35067-2.11469,120.93329,44.64624,118.96019,101.91151l-26.42912,766.76575C2566.2738,1353.631,2518.90513,1395.3841,2459.1902,1398.02026Z"/><path class="cls-18" d="M2027.49541,958.67279l-363.97715,12.688a39.36139,39.36139,0,0,1-40.73293-39.338V553.95935a39.36083,39.36083,0,0,1,40.676-39.33981l363.977,12.158a39.36119,39.36119,0,0,1,38.04691,39.3398V919.333A39.36225,39.36225,0,0,1,2027.49541,958.67279Z"/><path class="cls-20" d="M1732.96575,628.28178c0-22.37916,18.23975-38.41283,40.51709-40.52045,34.15747-3.23329,42.65759,23.17674,42.65759,45.55431,0,22.37915-19.51532,37.144-48.47683,37.144C1745.2878,670.45962,1732.96575,650.65758,1732.96575,628.28178Z"/><path class="cls-20" d="M1699.16553,781.056l-34.546,75.86916c-10.30741,22.63477,4.83711,49.16747,28.06388,49.16747H1995.6043c21.41082,0,36.50885-22.84883,29.678-44.91741l-68.38935-220.9995c-8.84871-28.59366-44.99147-31.47659-57.58292-4.59176l-72.16108,154.08087c-9.26147,19.78118-33.172,24.78923-48.5288,10.16936l-30.76544-29.28942C1732.38736,755.8197,1708.28877,761.02272,1699.16553,781.056Z"/><path class="cls-18" d="M2475.78476,642.199H2152.67523c-7.11213,0-18.055-6.565-18.99933-12.80888-1.93686-12.81064,11.86634-16.47206,18.97865-16.47206l323.13021,6.36988c7.11054,0,12.928,5.15636,12.928,11.45553h0C2488.71277,637.04423,2482.8953,642.199,2475.78476,642.199Z"/><path class="cls-18" d="M2391.85563,588.41378H2147.96946c-5.36707,0-13.62537-5.2755-14.33828-10.29362-1.464-10.29027,8.95583-13.23188,14.32272-13.23188l243.90173,5.11835c5.36706,0,9.76031,4.13958,9.76031,9.20278h0C2401.61594,584.27244,2397.22269,588.41378,2391.85563,588.41378Z"/><path class="cls-18" d="M2391.85563,704.1665H2147.96946c-5.36707,0-13.62537-5.27532-14.33828-10.29362-1.464-10.292,8.95583-13.23189,14.32272-13.23189l243.90173,5.11676c5.36706,0,9.76031,4.14294,9.76031,9.20438h0C2401.61594,700.02533,2397.22269,704.1665,2391.85563,704.1665Z"/><path class="cls-18" d="M2475.78476,959.87429H2152.67523c-7.11213,0-18.055-6.565-18.99933-12.80888-1.93686-12.81064,11.86634-16.47206,18.97865-16.47206l323.13021,6.36988c7.11054,0,12.928,5.15636,12.928,11.45553h0C2488.71277,954.72129,2482.8953,959.87429,2475.78476,959.87429Z"/><path class="cls-18" d="M2391.85563,906.08907H2147.96946c-5.36707,0-13.62537-5.2755-14.33828-10.29185-1.464-10.292,8.95583-13.23188,14.32272-13.23188l243.90173,5.11658c5.36706,0,9.76031,4.14135,9.76031,9.20455h0C2401.61594,901.94614,2397.22269,906.08907,2391.85563,906.08907Z"/><path class="cls-18" d="M2021.14091,1151.02313H1651.91778c-8.12732,0-20.63056-6.42326-21.70956-12.53081-2.213-12.53276,13.5582-16.11305,21.68534-16.11305l369.24735,6.23183c8.12732,0,14.77508,5.04251,14.77508,11.207h0C2035.916,1145.98079,2029.26823,1151.02313,2021.14091,1151.02313Z"/><path class="cls-18" d="M2475.31172,1151.02313H2106.08859c-8.12555,0-20.63056-6.42326-21.70779-12.53081-2.21474-12.53276,13.55979-16.11305,21.68357-16.11305l369.24735,6.23183c8.12732,0,14.77508,5.04251,14.77508,11.207h0C2490.0868,1145.98079,2483.439,1151.02313,2475.31172,1151.02313Z"/><path class="cls-18" d="M2021.14091,1272.91274H1651.91778c-8.12732,0-20.63056-6.42326-21.70956-12.53081-2.213-12.531,13.5582-16.11128,21.68534-16.11128l369.24735,6.23006c8.12732,0,14.77508,5.04252,14.77508,11.20522h0C2035.916,1267.86864,2029.26823,1272.91274,2021.14091,1272.91274Z"/><path class="cls-18" d="M2475.31172,1272.91274H2106.08859c-8.12555,0-20.63056-6.42326-21.70779-12.53081-2.21474-12.531,13.55979-16.11128,21.68357-16.11128l369.24735,6.23006c8.12732,0,14.77508,5.04252,14.77508,11.20522h0C2490.0868,1267.86864,2483.439,1272.91274,2475.31172,1272.91274Z"/><path class="cls-18" d="M1925.23337,1084.08912H1646.54382c-6.13513,0-15.57425-5.16148-16.38739-10.0693-1.671-10.06577,10.23511-12.9434,16.36847-12.9434l278.70847,5.00611c6.13513,0,11.155,4.04978,11.155,9.0025h0C1936.38839,1080.0358,1931.3685,1084.08912,1925.23337,1084.08912Z"/><path class="cls-18" d="M2491.10711,1084.08912H2333.52532c-3.46644,0-8.804-5.16148-9.26482-10.0693-.94254-10.06577,5.78813-12.9434,9.25616-12.9434l157.59045,5.00611c3.468,0,6.30607,4.04978,6.30607,9.0025h0C2497.41318,1080.0358,2494.57515,1084.08912,2491.10711,1084.08912Z"/><path class="cls-18" d="M2275.97511,1084.08912H1997.284c-6.13512,0-15.57248-5.16148-16.38738-10.0693-1.66924-10.06577,10.2367-12.9434,16.37024-12.9434l278.70829,5.00611c6.13512,0,11.15343,4.04978,11.15343,9.0025h0C2287.12854,1080.0358,2282.11023,1084.08912,2275.97511,1084.08912Z"/><path class="cls-18" d="M1925.23337,1204.49069H1646.54382c-6.13513,0-15.57425-5.15972-16.38739-10.06754-1.671-10.06753,10.23511-12.94516,16.36847-12.94516l278.70847,5.0061c6.13513,0,11.155,4.05332,11.155,9.00587h0C1936.38839,1200.43914,1931.3685,1204.49069,1925.23337,1204.49069Z"/><path class="cls-18" d="M2491.10711,1204.49069H2333.52532c-3.46644,0-8.804-5.15972-9.26482-10.06754-.94254-10.06753,5.78813-12.94516,9.25616-12.94516l157.59045,5.0061c3.468,0,6.30607,4.05332,6.30607,9.00587h0C2497.41318,1200.43914,2494.57515,1204.49069,2491.10711,1204.49069Z"/><path class="cls-18" d="M2275.97511,1204.49069H1997.284c-6.13512,0-15.57248-5.15972-16.38738-10.06754-1.66924-10.06753,10.2367-12.94516,16.37024-12.94516l278.70829,5.0061c6.13512,0,11.15343,4.05332,11.15343,9.00587h0C2287.12854,1200.43914,2282.11023,1204.49069,2275.97511,1204.49069Z"/><path class="cls-22" d="M3197.73157,1991.7592l-403.429,26.74341c-29.39654,1.94888-54.23049-19.7278-53.51758-46.71444l11.60737-439.2819c.668-25.331,23.70157-45.33334,51.358-44.60134l391.82184,10.38519c27.00043.71468,48.48372,20.96889,48.48372,45.70615v402.15347C3244.05588,1970.12229,3223.83967,1990.02792,3197.73157,1991.7592Z"/><path class="cls-20" d="M3090.98312,1955.10734h-262.9304c-5.78813,0-14.69058-6.03154-15.45864-11.76805-1.57608-11.76612,9.655-15.12721,15.44309-15.12721l262.94595,5.85036a10.55071,10.55071,0,0,1,10.52148,10.52148h0A10.5534,10.5534,0,0,1,3090.98312,1955.10734Z"/><path class="cls-20" d="M3022.68693,1905.70335H2824.22549c-4.36743,0-11.08944-4.84559-11.66942-9.45291-1.18948-9.45308,7.2882-12.15288,11.65563-12.15288l198.47523,4.69888a8.234,8.234,0,0,1,7.94259,8.45346h0A8.23286,8.23286,0,0,1,3022.68693,1905.70335Z"/><path class="cls-23" d="M2592.87544,1964.165l-403.42921,25.28117c-29.39813,1.84176-54.23209-18.649-53.51918-44.15783l11.60738-415.22467c.67154-23.945,23.70157-42.85274,51.358-42.15874l391.82166,9.81546c27.00044.67667,48.48391,19.81919,48.48391,43.20487v380.12979C2639.198,1943.714,2618.9816,1962.52847,2592.87544,1964.165Z"/><path class="cls-1" d="M2486.12682,1871.92912H2223.19465c-5.78636,0-14.6904-6.02977-15.45864-11.76452-1.57608-11.76611,9.65672-15.129,15.44326-15.129l262.94755,5.85036a10.55351,10.55351,0,0,1,10.52165,10.52325h0A10.55166,10.55166,0,0,1,2486.12682,1871.92912Z"/><path class="cls-1" d="M2486.12682,1923.92932H2223.19465c-5.78636,0-14.6904-6.02995-15.45864-11.76629-1.57608-11.76611,9.65672-15.1272,15.44326-15.1272l262.94755,5.84859a10.55465,10.55465,0,0,1,10.52165,10.52324h0A10.55215,10.55215,0,0,1,2486.12682,1923.92932Z"/><path class="cls-1" d="M2417.8308,1822.52867H2219.3676c-4.36744,0-11.08785-4.84559-11.66783-9.45468-1.1893-9.45308,7.28837-12.15288,11.65581-12.15288l198.47522,4.70047a8.23275,8.23275,0,0,1,7.94083,8.45364h0A8.23372,8.23372,0,0,1,2417.8308,1822.52867Z"/><path class="cls-22" d="M1986.89542,1991.87321l-403.429,26.6294c-29.39831,1.94022-54.23067-19.64153-53.51935-46.51416l11.60914-437.39683c.668-25.22232,23.70157-45.14,51.35623-44.4115l391.82343,10.34029c27.00043.71291,48.48372,20.8791,48.48372,45.51295V1946.4605C2033.21955,1970.33124,2013.00334,1990.15042,1986.89542,1991.87321Z"/><path class="cls-20" d="M1915.58531,1675.82066h-262.9304c-5.78813,0-14.69218-5.5-15.45865-10.72883-1.57784-10.73042,9.655-13.7963,15.44309-13.7963l262.946,5.33595c5.78636,0,10.52148,4.31565,10.52148,9.59451h0C1926.10679,1671.50325,1921.37167,1675.82066,1915.58531,1675.82066Z"/><path class="cls-20" d="M1915.58531,1723.23936h-262.9304c-5.78813,0-14.69218-5.49823-15.45865-10.72883-1.57784-10.73042,9.655-13.79454,15.44309-13.79454l262.946,5.33419c5.78636,0,10.52148,4.319,10.52148,9.59627h0C1926.10679,1718.92354,1921.37167,1723.23936,1915.58531,1723.23936Z"/><path class="cls-20" d="M1847.28911,1630.77033H1648.82768c-4.36744,0-11.08944-4.41923-11.66942-8.62086-1.18948-8.621,7.28819-11.08449,11.65563-11.08449l198.47522,4.2863a7.8505,7.8505,0,0,1,7.94259,7.70961h0A7.85151,7.85151,0,0,1,1847.28911,1630.77033Z"/><path class="cls-20" d="M3092.44575,1811.65418h-262.9304c-5.78813,0-14.69217-5.5-15.45864-10.72883-1.57785-10.73042,9.655-13.7963,15.44308-13.7963l262.946,5.33595c5.78636,0,10.52148,4.31565,10.52148,9.59451h0C3102.96723,1807.33677,3098.23211,1811.65418,3092.44575,1811.65418Z"/><path class="cls-20" d="M3092.44575,1859.07288h-262.9304c-5.78813,0-14.69217-5.49823-15.45864-10.72883-1.57785-10.73042,9.655-13.79454,15.44308-13.79454l262.946,5.33419c5.78636,0,10.52148,4.319,10.52148,9.59627h0C3102.96723,1854.75706,3098.23211,1859.07288,3092.44575,1859.07288Z"/><path class="cls-20" d="M3024.14955,1766.60385H2825.68812c-4.36744,0-11.08944-4.41923-11.66942-8.62086-1.18948-8.621,7.28819-11.08449,11.65563-11.08449l198.47522,4.2863a7.85051,7.85051,0,0,1,7.9426,7.70961h0A7.85152,7.85152,0,0,1,3024.14955,1766.60385Z"/><path class="cls-20" d="M3092.44619,1667.898h-262.9304c-5.78813,0-14.69217-5.5-15.45864-10.72883-1.57784-10.73042,9.655-13.79631,15.44309-13.79631l262.946,5.336c5.78637,0,10.52148,4.31564,10.52148,9.5945h0C3102.96767,1663.58058,3098.23256,1667.898,3092.44619,1667.898Z"/><path class="cls-20" d="M3092.44619,1715.31668h-262.9304c-5.78813,0-14.69217-5.49823-15.45864-10.72883-1.57784-10.73042,9.655-13.79454,15.44309-13.79454l262.946,5.33419c5.78637,0,10.52148,4.319,10.52148,9.59627h0C3102.96767,1711.00086,3098.23256,1715.31668,3092.44619,1715.31668Z"/><path class="cls-20" d="M3024.15,1622.84765H2825.68856c-4.36743,0-11.08944-4.41923-11.66942-8.62086-1.18948-8.621,7.2882-11.08449,11.65563-11.08449l198.47523,4.2863a7.8505,7.8505,0,0,1,7.94259,7.70961h0A7.85151,7.85151,0,0,1,3024.15,1622.84765Z"/><path class="cls-20" d="M1915.58531,1829.64257h-262.9304c-5.78813,0-14.69218-5.49982-15.45865-10.73042-1.57784-10.73042,9.655-13.7963,15.44309-13.7963l262.946,5.33418c5.78636,0,10.52148,4.319,10.52148,9.59627h0C1926.10679,1825.32357,1921.37167,1829.64257,1915.58531,1829.64257Z"/><path class="cls-20" d="M1915.58531,1877.06126h-262.9304c-5.78813,0-14.69218-5.49982-15.45865-10.72865-1.57784-10.73042,9.655-13.79631,15.44309-13.79631l262.946,5.33419c5.78636,0,10.52148,4.31724,10.52148,9.5945h0C1926.10679,1872.74385,1921.37167,1877.06126,1915.58531,1877.06126Z"/><path class="cls-20" d="M1847.28911,1784.59064H1648.82768c-4.36744,0-11.08944-4.41746-11.66942-8.62262-1.18948-8.61927,7.28819-11.081,11.65563-11.081l198.47522,4.28454a7.85154,7.85154,0,0,1,7.94259,7.70961h0A7.8515,7.8515,0,0,1,1847.28911,1784.59064Z"/><path class="cls-7" d="M1948.70355,2089.75227l-92.97636,9.28727c-7.739.7716-13.72047,10.22981-13.67717,21.62135l.03447,9.54624c.0449,11.94059,6.672,21.59554,14.7993,21.56461l92.05115-.34541Z"/><path class="cls-7" d="M3591.107,2087.225s23.59622,3.87372,22.76929,9.00427c-1.33443,8.27562-22.70212,9.175-22.70212,9.175Z"/><path class="cls-7" d="M2015.58417,2103.72463a13.32507,13.32507,0,0,1-13.00561-16.22334l12.17692-54.39118q.11905-.53588.28318-1.05637a38.19267,38.19267,0,0,1,37.69975-26.7192l468.65068,16.617a13.31438,13.31438,0,1,1-.94253,26.61208l-468.65069-16.617a11.52629,11.52629,0,0,0-11.19815,7.61291l-12.03551,53.75746A13.32019,13.32019,0,0,1,2015.58417,2103.72463Z"/><path class="cls-20" d="M3456.70534,2167.75857l-1490.0728-4.53484a25.90425,25.90425,0,0,1-25.73866-25.80936l-.13275-34.9897a25.90924,25.90924,0,0,1,25.28613-25.99921l1487.52149-33.776Z"/><path class="cls-7" d="M2178.30323,2071.34334s-14.88892,38.38349.35053,93.24929l94.92188.61286s-24.77526-51.0939-.36078-96.13381Z"/><path class="cls-24" d="M3591.10862,2087.32682l.06046,16.61877a11.78951,11.78951,0,0,1-6.89471,10.77356l-108.64571,49.56449a37.73106,37.73106,0,0,1-45.54741-10.96c-7.78881-10.11757-13.85323-24.98244-12.28228-46.3777,2.00757-27.36476,8.55015-43.4329,15.68986-52.86a29.98222,29.98222,0,0,1,32.70584-10.3212l119.82159,36.70541A7.20315,7.20315,0,0,1,3591.10862,2087.32682Z"/><path class="cls-7" d="M1969.66042,2143.49417a2.049,2.049,0,0,1-.0069-4.098l158.39475-.59395h.00531a2.04824,2.04824,0,0,1,.01025,4.09645l-158.39475.59554Z"/><path class="cls-7" d="M2304.20126,2142.23752a2.04823,2.04823,0,0,1-.00866-4.09645l1071.20757-4.02221h.0069a2.04912,2.04912,0,0,1,.00866,4.09822l-1071.20758,4.02044Z"/><path class="cls-2" d="M3145.23253,1197.81005a27.716,27.716,0,1,1,27.71511,27.71865A27.71641,27.71641,0,0,1,3145.23253,1197.81005Z"/><path class="cls-2" d="M3122.363,1173.4456a13.616,13.616,0,0,1-11.414-21.01892,73.83553,73.83553,0,0,1,121.6842-3.36622,13.61632,13.61632,0,0,1-22.00476,16.04393,46.60587,46.60587,0,0,0-76.82548,2.12494A13.60264,13.60264,0,0,1,3122.363,1173.4456Z"/><path class="cls-2" d="M3081.94085,1145.58889a13.61578,13.61578,0,0,1-11.41576-21.01715,122.88948,122.88948,0,0,1,202.5319-5.6034,13.6162,13.6162,0,0,1-22.00458,16.04374,95.6593,95.6593,0,0,0-157.67159,4.36055A13.59843,13.59843,0,0,1,3081.94085,1145.58889Z"/><path class="cls-25" d="M3624.19416,2235.83893H1100.14576c-18.41582,0-34.52868-7.07943-39.262-17.25055l-14.278-30.68431c-6.87738-14.7855,12.72261-29.26361,39.50031-29.17381l2549.99936,8.44833c27.11445.0898,46.4675,15.04094,38.67692,29.8816l-11.67649,22.23774C3657.95125,2229.11339,3642.13535,2235.83893,3624.19416,2235.83893Z"/><path class="cls-9" d="M1507.07751,1816.04655c6.92229,12.33583,76.45092,120.03388,61.89857,225.36871l-75.67419-27.36122-34.58048-141.98686Z"/><path class="cls-10" d="M1204.90219,1771.90781s46.49684-83.39052,159.6689-60.33469c113.17723,23.056,174.93933,185.04324,144.243,505.88977,0,0-179.79712-71.481-413.58128-13.85853C1095.23281,2203.60436,1133.713,1892.87733,1204.90219,1771.90781Z"/><path class="cls-10" d="M1118.58226,1738.21118l79.54949,79.415s203.94592,55.10055,260.58966,54.441c56.64552-.65935,78.94195-42.06029,78.94195-42.06029s-47.80706-75.71042-144.54334-109.9561a282.61694,282.61694,0,0,0-28.542-8.47078,291.34857,291.34857,0,0,0-50.5346-7.32443C1213.90116,1698.29475,1118.58226,1738.21118,1118.58226,1738.21118Z"/><path class="cls-7" d="M1118.584,1738.213c-12.71748,13.82034,6.893,28.92,28.86129,50.85208,21.965,21.92874,44.65844,34.71694,50.68485,28.56272,6.02642-6.15405-6.8947-28.92174-28.86146-50.85208C1147.30212,1744.84692,1124.41705,1731.87223,1118.584,1738.213Z"/><path class="cls-9" d="M1187.55159,1817.95229s1.18594-15.86079-18.74885-36.11165c-12.00793-12.19778-27.20938-20.16795-37.40136-24.58028a11.6255,11.6255,0,0,0-15.46554,6.52366l-6.375,16.44431,29.6951,19.12007Z"/><path class="cls-8" d="M1328.12287,2112.10561s-245.41928-132.9946-333.38614,12.08554c-65.11633,107.39772,32.76626,207.41391,395.8387,197.253,0,0,35.88225-16.80686,27.14384-103.9813C1414.25636,2182.922,1328.12287,2112.10561,1328.12287,2112.10561Z"/><path class="cls-8" d="M1328.12287,2112.10561s326.86079-133.89065,391.53693-50.19114c74.32933,96.1978,3.04856,259.52972-341.49268,201.14409l-41.98782-45.59567Z"/><path class="cls-7" d="M1419.79772,2243.54836s66.71659,2.63775,100.73087,19.32035c34.01587,16.68259,15.85213,57.40332-53.21213,56.31584-69.06607-1.08749-63.82163-11.364-63.82163-11.364S1422.64264,2284.29844,1419.79772,2243.54836Z"/><path class="cls-19" d="M1390.976,2322.00525l-.79935-1.12036c38.1159-27.19718,27.87071-97.04187,26.92977-102.91273l-247.74278-90.16785.46967-1.29307,248.49529,90.44061.06912.39189C1418.53064,2218.098,1431.286,2293.24225,1390.976,2322.00525Z"/><path class="cls-9" d="M1342.69944,2118.48415c19.94681.00177,36.33773-5.0441,49.62658-15.06851,25.09628-18.92845,29.75379-49.10525,26.113-69.19542l-24.0106-13.96035c-1.19284-6.58907-47.52741,17.891-47.448,17.86677-.2123.06912-22.11329,6.40612-98.04981-32.4002-52.86335-27.01422-79.50654-65.35458-81.45029-117.20965-1.46913-39.093,15.95929-61.04936,20.07126-70.5645.54727-1.26867-25.547-27.43016-24.79948-30.09212l-19.562-9.93991c.63-2.24232-18.80771-9.91039-18.53142-10.55083l-15.09786,12.8589a251.76029,251.76029,0,0,0-21.25384,111.31793c2.12512,56.63014,25.509,134.79341,124.845,185.55764C1267.32205,2104.78808,1309.83822,2118.48239,1342.69944,2118.48415Z"/><path class="cls-24" d="M1358.81235,2121.66565h211.80026a10.28572,10.28572,0,0,0,9.76879-7.00006l44.01447-131.44434a10.23465,10.23465,0,0,0-9.76879-13.45108H1410.94547a21.53825,21.53825,0,0,0-20.45118,14.64727l-41.45273,123.79713A10.23578,10.23578,0,0,0,1358.81235,2121.66565Z"/><path class="cls-24" d="M1372.10623,2121.66565h211.80031a10.2928,10.2928,0,0,0,9.77056-7.00006l44.01447-131.44434a10.2371,10.2371,0,0,0-9.77056-13.45108H1424.2394a21.54171,21.54171,0,0,0-20.45273,14.64727l-41.45118,123.79713A10.23577,10.23577,0,0,0,1372.10623,2121.66565Z"/><path class="cls-18" d="M1520.5095,2041.41526c0-4.99073-5.757-7.02428-10.784-7.02428-5.02343,0-13.22835,5.47755-13.17815,12.47054.05692,7.54557,5.95553,8.52611,10.979,8.52611C1512.55153,2055.38763,1520.5095,2047.76781,1520.5095,2041.41526Z"/><path class="cls-24" d="M1281.9246,2103.08932h300.06478a2.02234,2.02234,0,0,1,2.02234,2.02234v12.57427a3.97971,3.97971,0,0,1-3.97971,3.97971H1281.9246a0,0,0,0,1,0,0v-18.57632a0,0,0,0,1,0,0Z" transform="translate(2865.93631 4224.75497) rotate(-180)"/><path class="cls-8" d="M1387.16436,2036.22425l-1.33094-.35389c.4299-1.60878,10.53885-39.52612,17.35241-51.78436,6.9085-12.43589,15.36549-14.882,15.72292-14.97871l.36591,1.32576c-.0829.02422-8.27916,2.43058-14.88556,14.31937C1397.66,1996.86217,1387.2679,2035.83076,1387.16436,2036.22425Z"/><path class="cls-8" d="M1355.86207,2103.77819v-1.376c6.93779,0,8.66235-2.87409,8.67791-2.90343l16.4565-49.183,1.30332.43857-16.50476,49.29686C1365.66723,2100.30662,1363.71482,2103.77819,1355.86207,2103.77819Z"/><path class="cls-16" d="M1152.28935,2004.52671a9.12958,9.12958,0,0,1-2.3581-.32455c-4.5575-1.22218-9.56873-5.78813-13.073-11.91813h0c-5.36707-9.38557-5.51025-19.10451-.32809-22.12373a7.44109,7.44109,0,0,1,5.76745-.5593c4.55906,1.22218,9.5687,5.78813,13.07474,11.91637,5.36688,9.38733,5.512,19.10627.3279,22.12726A6.69684,6.69684,0,0,1,1152.28935,2004.52671Zm-12.3532-32.502a3.94479,3.94479,0,0,0-2.01976.51263c-3.73213,2.17515-3.12281,10.59237,1.33093,18.38135h0c3.10562,5.43247,7.58,9.60316,11.39857,10.62507a4.70292,4.70292,0,0,0,3.66991-.27612c3.7323-2.17691,3.12121-10.59413-1.3309-18.3847-3.10725-5.43088-7.58-9.60157-11.39843-10.62348A6.3886,6.3886,0,0,0,1139.93615,1972.02468Z"/><path class="cls-9" d="M1312.29125,1704.05707c13.91544-.40922,24.468-1.84017,32.47621-11.25525l24.77173-29.13934,7.21059-8.4828,42.39708-49.88215-22.26537,58.32871L1383.51,1698.63485l-4.23114,11.081c-2.8725,7.52117.92362,11.02721,3.5976,19.82784,1.08395,3.563,8.38965,25.50373-10.64592,25.63843-23.71889.17606-53.71609-27.39233-60.30358-51.19589A1.66268,1.66268,0,0,0,1312.29125,1704.05707Z"/><path class="cls-7" d="M1362.64978,1644.943s-46.68668-44.869-19.7536-82.74318c26.93309-37.87069,33.66039,60.78332,33.66039,60.78332l-7.52648,22.80394Z"/><path class="cls-7" d="M1369.77058,1662.65613q-.1294.49981-.23139,1.00635c-4.33279,19.67247,13.81363,35.03972,13.81363,35.03972l.15714-.06735,13.37153-35.00861c-5.68277-4.25519-14.04661-9.40112-20.13171-8.44656C1373.5667,1655.67852,1371.01185,1657.84165,1369.77058,1662.65613Z"/><path class="cls-9" d="M1468.60953,1638.28125c10.52661-35.06553-4.28471-70.63856-33.08554-79.45457-28.79924-8.81778-60.68,12.46364-71.2101,47.5274-10.52678,35.06553,4.2863,70.63856,33.08554,79.45457C1426.19871,1694.62643,1458.07921,1673.34678,1468.60953,1638.28125Z"/><path class="cls-7" d="M1374.17938,1601.28752s14.86664,10.81333,27.32679,1.67613c12.46188-9.137,21.27453-17.803,49.17773-3.75971,27.9016,14.04485,58.44785,7.74055,64.08926-8.07552,5.63965-15.81254-7.65075-27.92229-25.17759-27.13849-17.52667.78538,3.70809-8.82291-8.48457-25.44505-12.19089-16.62231-43.11683.50221-58.44767-7.73718-15.331-8.23939-69.943-15.4-79.76715,31.39209Z"/><path class="cls-9" d="M1362.51332,1610.65947c3.58559,5.53252,10.45943,7.39691,15.35682,4.16186,4.8958-3.23329,5.95907-10.3403,2.37724-15.87459-3.58563-5.5327-10.45943-7.39531-15.35864-4.162C1359.99471,1598.018,1358.93144,1605.12677,1362.51332,1610.65947Z"/><path class="cls-12" d="M1483.95416,1585.65282c-11.72475,0-27.63044-14.30381-28.36068-14.9667l1.37067-1.51226c.18808.16917,18.75751,16.86909,29.48617,14.14507,4.12579-1.04789,6.45808-3.0003,6.0851-5.09944-.35213-1.99908-3.28685-3.90483-7.43332-3.47157-9.08011.92539-14.00861-2.15269-14.21561-2.28545l1.103-1.71943c.04137.02581,4.5884,2.82937,12.90557,1.9731,5.58273-.55753,9.137,2.22694,9.65142,5.14769.45059,2.548-1.30668,5.83834-7.59383,7.43333A12.14955,12.14955,0,0,1,1483.95416,1585.65282Z"/><path class="cls-12" d="M1435.75362,1546.47864a31.97529,31.97529,0,0,1-11.68869-2.06626,125.33207,125.33207,0,0,1-13.1557-6.2905c-7.91325-4.18095-14.74241-7.79411-22.18422-6.34743l-.3919-2.00421c8.14447-1.58474,15.27573,2.182,23.53068,6.54594a123.31583,123.31583,0,0,0,12.94693,6.19381c14.19,5.562,30.79143-2.47017,31.83065-3.34553l1.49317,1.38976C1457.24716,1541.57789,1447.076,1546.47864,1435.75362,1546.47864Z"/><path class="cls-12" d="M1357.05327,1559.7761a2.3301,2.3301,0,0,1-.82692-.13982c-.68887-.259-1.74012-1.0668-1.07547-3.56137l.14849-.321c1.1444-1.63653,7.05521-9.68254,11.15343-7.10365.51952.32632,1.6192,1.32577.53512,3.50957C1365.63966,1554.87518,1360.195,1559.7761,1357.05327,1559.7761Zm.02935-3.00366c-.18468.77672-.07089,1.00812-.07089,1.01147.5266.16581,3.48889-1.22218,6.29055-4.10493,1.99042-2.04734,2.15955-3.12281,2.0922-3.27819C1363.58719,1549.25621,1359.41986,1553.48206,1357.08262,1556.77244Z"/><path class="cls-14" d="M1426.92541,1624.04656a1.10537,1.10537,0,0,0,.81314-.56284,1.11866,1.11866,0,0,0-.42637-1.51385c-.31253-.17606-7.2037-4.95784-14.587,1.36713a1.12845,1.12845,0,0,0-.15873,1.56918,1.20468,1.20468,0,0,0,1.55521.16051,18.732,18.732,0,0,1,12.11506-1.14794A1.09363,1.09363,0,0,0,1426.92541,1624.04656Z"/><path class="cls-14" d="M1416.72158,1635.0895c-.41788,2.62733.775,5.00611,2.66356,5.31,1.89019.30546,3.75811-1.57784,4.174-4.20516.41612-2.62749-.77849-5.00628-2.66532-5.31174C1419.00367,1630.57694,1417.13752,1632.46042,1416.72158,1635.0895Z"/><path class="cls-14" d="M1465.50741,1638.03961a.79572.79572,0,0,0,.76983-.2572,1.354,1.354,0,0,0,.22626-1.55363c-.16068-.26586-3.37311-6.9845-10.78752-3.51116a1.33175,1.33175,0,0,0-.65758,1.412.81738.81738,0,0,0,1.04259.66111c4.82491-.78892,8.8298,2.68442,8.96449,2.90538A.73392.73392,0,0,0,1465.50741,1638.03961Z"/><path class="cls-14" d="M1451.66284,1644.26277c-1.3742,2.2683-1.16879,4.92673.46084,5.93485,1.633,1.00829,4.07047-.01379,5.448-2.28386,1.3742-2.2699,1.1688-4.92833-.46261-5.93485C1455.47788,1640.969,1453.03864,1641.9911,1451.66284,1644.26277Z"/><path class="cls-19" d="M1420.06181,1672.20238c-6.64086,0-16.6688-1.95755-22.621-12.47567a.77383.77383,0,1,1,1.34645-.76311c8.85937,15.64867,27.39238,11.0981,27.57887,11.04984a.77357.77357,0,1,1,.385,1.49848A30.26069,30.26069,0,0,1,1420.06181,1672.20238Z"/><path class="cls-19" d="M1395.86472,1662.45408a.75773.75773,0,0,1-.24341-.03959.77259.77259,0,0,1-.492-.97718c.63707-1.93156,2.34771-3.70968,5.08392-5.284a.84576.84576,0,0,1,1.14282.1674.71831.71831,0,0,1-.1416,1.03746c-.03623.026-.1156.07248-.22785.13647-2.98479,1.71925-4.03268,3.35755-4.38657,4.42789A.7722.7722,0,0,1,1395.86472,1662.45408Z"/><path class="cls-26" d="M1376.724,1788.02757c-63.02228-1.81259-85.81066-56.51948-86.03516-57.07188l3.18149-1.28441c.21407.53172,22.22047,53.18278,82.95213,54.92962Z"/><path class="cls-26" d="M1347.74514,1817.49835c-.32614-.20364-32.74367-20.93442-36.94017-58.2009l3.40758-.38324c4.01535,35.64038,35.04149,55.48379,35.35384,55.67876Z"/><rect class="cls-26" x="1486.34577" y="1826.45206" width="3.43044" height="40.00872" transform="translate(-502.44997 557.42851) rotate(-18.20808)"/><path class="cls-12" d="M1457.872,1681.84354a14.5768,14.5768,0,0,1-10.4939-4.37609c-9.31663-9.23036-8.8747-30.61873.9823-47.681,6.066-10.50257,14.57833-17.42662,22.7677-18.52294a14.70026,14.70026,0,0,1,12.73622,4.22249c9.3168,9.23035,8.87487,30.62049-.98036,47.68278-6.068,10.501-14.5801,17.42662-22.7677,18.52117A16.89461,16.89461,0,0,1,1457.872,1681.84354Zm15.46907-68.42559a14.40993,14.40993,0,0,0-1.90751.12781c-7.48512,1.00281-15.36708,7.504-21.07938,17.39373-9.36665,16.2131-9.97261,36.35171-1.35158,44.89319a12.4852,12.4852,0,0,0,10.808,3.57516c7.48511-1.0014,15.36548-7.5042,21.07778-17.39214,9.36665-16.21487,9.9742-36.35171,1.35334-44.89319A12.35556,12.35556,0,0,0,1473.34111,1613.418Z"/><g class="cls-15"><path class="cls-12" d="M1392.86618,1604.71419c-7.98214,16.97091-5.77593,37.61861,4.92674,46.11873,10.70465,8.49836,25.84918,1.63141,33.83137-15.3395,7.98219-16.97267,5.77611-37.61878-4.92674-46.11891C1415.99294,1580.87439,1400.84682,1587.74329,1392.86618,1604.71419Z"/></g><g class="cls-15"><path class="cls-12" d="M1447.56639,1631.14844c-8.00994,17.052-6.92758,37.73951,2.41838,46.21188,9.34438,8.46919,23.41344,1.51226,31.425-15.538s6.92741-37.73952-2.41679-46.20853C1469.64522,1607.143,1455.57616,1614.09816,1447.56639,1631.14844Z"/></g><path class="cls-12" d="M1409.77508,1655.39021a18.62668,18.62668,0,0,1-11.623-4.11024c-11.82144-9.232-14.42649-31.47658-5.81058-49.5903,5.025-10.56461,12.82783-17.78386,21.40909-19.81052a18.67272,18.67272,0,0,1,16.27868,3.5543c11.82144,9.23035,14.42631,31.47676,5.81058,49.58871-5.0252,10.56461-12.828,17.78563-21.409,19.81229A20.1739,20.1739,0,0,1,1409.77508,1655.39021Zm8.60371-71.75893a17.86039,17.86039,0,0,0-4.09821.48859c-7.78209,1.8384-15.205,8.77624-19.859,18.56077-8.17893,17.19186-5.86926,38.17967,5.1477,46.78338a16.43352,16.43352,0,0,0,14.33143,3.12793c7.78209-1.83663,15.205-8.77623,19.859-18.56076,8.17911-17.19187,5.86927-38.17968-5.1477-46.77985A16.38466,16.38466,0,0,0,1418.37879,1583.63128Z"/><path class="cls-12" d="M1448.9353,1638.41082a2.14489,2.14489,0,0,1-1.70388-.83382c-.20877-.26763-4.6782-5.79167-14.37806-6.03331a2.14928,2.14928,0,0,1-2.09736-2.20272,2.17363,2.17363,0,0,1,2.20272-2.09737c11.87836.29521,17.45242,7.40911,17.68381,7.71121a2.14878,2.14878,0,0,1-1.70723,3.456Z"/><path class="cls-18" d="M2404.7094,1759.83606l-187.82753,6.54771a20.3127,20.3127,0,0,1-21.02069-20.29912v-195.097a20.31338,20.31338,0,0,1,20.99135-20.30088l187.82576,6.27336a20.31225,20.31225,0,0,1,19.63464,20.3007V1739.537A20.31213,20.31213,0,0,1,2404.7094,1759.83606Z"/><path class="cls-27" d="M2252.719,1589.34c0-11.54868,9.41331-19.821,20.9102-20.90843,17.62513-1.66941,22.01148,11.95949,22.01148,23.50818s-10.0709,19.16673-25.01514,19.16673C2259.07845,1611.10652,2252.719,1600.88873,2252.719,1589.34Z"/><path class="cls-27" d="M2235.27859,1668.18017l-17.82717,39.15c-5.32022,11.67985,2.49457,25.37416,14.47987,25.37416h156.32c11.04808,0,18.84042-11.79033,15.31529-23.18187L2368.275,1595.4803c-4.566-14.75775-23.21652-16.2458-29.7142-2.37012l-37.23714,79.51167c-4.78178,10.20736-17.11939,12.79332-25.04643,5.24775l-15.87458-15.115C2252.42026,1655.15546,2239.98613,1657.84165,2235.27859,1668.18017Z"/><path class="cls-9" d="M922.36491,1094.98694s55.035,141.84527,82.29791,127.73131c41.59432-21.53686,52.27118-117.04738,52.27118-117.04738l49.20194-2.88452s31.04685,204.61035-64.55184,253.72073c-77.17605,39.647-157.6147-104.57525-157.6147-104.57525L870.04727,1120.7187Z"/><path class="cls-7" d="M767.32949,2195.41676s.67844,27.03491,18.9716,34.65985c18.29134,7.6267,71.29633,14.50585,51.4909,31.88757-11.364,9.9742-64.92291,3.53185-80.04339,3.53185-15.12187,0-29.317,6.58925-40.55492-3.53185-12.36359-11.13451,0-66.54742,0-66.54742s13.047,6.79625,24.78216,6.49238C758.88805,2201.469,767.32949,2195.41676,767.32949,2195.41676Z"/><path class="cls-20" d="M925.15468,1379.55089s3.651,122.00522-35.28649,356.05524c-28.10877,168.96661-61.291,339.23123-77.573,420.85759-5.82454,29.19963-30.38061,50.55-59.48354,51.717l-15.64.62841c-31.46972,1.26-57.00807-25.76977-54.71222-57.90588l39.49519-552.24148,9.73451-181.76152Z"/><path class="cls-7" d="M594.07658,2195.41676s.67844,27.03491,18.97158,34.65985c18.29155,7.6267,71.29473,14.50585,51.49092,31.88757-11.364,9.9742-64.9229,3.53185-80.04321,3.53185-15.12208,0-29.31874,6.58925-40.5551-3.53185-12.36164-11.13451,0-66.54742,0-66.54742s13.04893,6.79625,24.78218,6.49238C585.63515,2201.469,594.07658,2195.41676,594.07658,2195.41676Z"/><path class="cls-20" d="M751.9,1379.55089s3.65114,122.00522-35.28475,356.05524c-28.10878,168.96661-61.2926,339.23123-77.573,420.85759-5.8226,29.19963-30.38044,50.55-59.48354,51.717l-15.6416.62841c-31.46633,1.26-57.00807-25.76977-54.70954-57.90588l39.4943-552.24148,9.73256-181.76152Z"/><path class="cls-7" d="M539.30748,1513.26194c.37634,14.71816,89.38582,20.565,199.47467,17.13141,110.089-3.43357,198.05928-18.659,197.68117-33.379-.37635-14.71974-88.95943-23.36146-199.04654-19.92613C627.32793,1480.52163,538.92954,1498.54042,539.30748,1513.26194Z"/><path class="cls-10" d="M566.25453,1096.52855s19.46706-77.15516,163.09716-77.93719c207.12721-1.13079,187.94843,189.18953,207.11163,478.423,0,0-204.02171-28.851-397.25943,12.62415C539.20389,1509.63852,521.27843,1214.4184,566.25453,1096.52855Z"/><path class="cls-10" d="M513.23932,1085.46332l93.80841,51.90351s205.40283,18.65392,259.93009,9.66874c54.5257-8.98341,69.4855-49.02234,69.4855-49.02234s-58.07487-60.08951-156.78421-76.13167c-9.27525-1.52074-18.8922-2.636-28.86658-3.28508a283.81351,283.81351,0,0,0-49.89576.991C575.80925,1033.68745,513.23932,1085.46332,513.23932,1085.46332Z"/><path class="cls-9" d="M709.605,1000.93335l10.84443-34.99128,3.15374-10.18845,18.55564-59.89612,2.441,59.582,1.46029,35.76129.46278,11.32083c.31412,7.68345,4.99744,9.2993,10.69754,15.9764,2.30984,2.7051,17.09005,19.11158.31412,26.51892-20.89288,9.23372-59.95463-4.74555-74.80749-23.056C682.84265,1021.93336,706.1007,1012.24039,709.605,1000.93335Z"/><path class="cls-6" d="M919.13,1508.92208s-119.283-35.09488-366.32323,13.0765l-1.904,35.53856,362.14208,12.80022Z"/><path class="cls-7" d="M511.286,1087.62627c-7.953,11.25172,3.76236,33.48256,26.1675,49.65076,22.40514,16.16978,47.01654,20.15752,54.96939,8.904,7.95284-11.25525-3.76324-33.48433-26.16838-49.65252C543.84938,1080.35876,519.23975,1076.37456,511.286,1087.62627Z"/><path class="cls-9" d="M369.06265,1540.00005h0a8.58241,8.58241,0,0,0-8.22471,8.87982l2.79224,73.014a8.58469,8.58469,0,0,0,8.88073,8.2256h0a8.58547,8.58547,0,0,0,8.22558-8.88159l-2.79384-73.014A8.58108,8.58108,0,0,0,369.06265,1540.00005Z"/><path class="cls-9" d="M390.95782,1539.1611h0a8.585,8.585,0,0,0-8.2249,8.88159l3.12369,81.65571a8.58406,8.58406,0,0,0,8.87912,8.2256h0a8.585,8.585,0,0,0,8.22648-8.88l-3.12455-81.6573A8.58416,8.58416,0,0,0,390.95782,1539.1611Z"/><path class="cls-9" d="M395.219,1496.43775l-2.30966,1.98707a10.379,10.379,0,0,0-1.097,14.59371l36.15653,42.03448a10.37843,10.37843,0,0,0,14.59371,1.09791l2.309-1.98689a10.377,10.377,0,0,0,1.09791-14.59388L409.812,1497.53567A10.37614,10.37614,0,0,0,395.219,1496.43775Z"/><path class="cls-9" d="M412.85369,1538.32392h0a8.5834,8.5834,0,0,0-8.22559,8.87983l2.50392,65.45639a8.58139,8.58139,0,0,0,8.87982,8.22384h0a8.58244,8.58244,0,0,0,8.22561-8.87806l-2.50394-65.4564A8.58326,8.58326,0,0,0,412.85369,1538.32392Z"/><path class="cls-9" d="M352.61569,1498.98235s-23.14227,43.09615-9.18793,74.92839c4.83,11.017,69.21787,6.77893,74.659-5.55,5.44219-12.32894-.5593-56.37276-.5593-56.37276Z"/><path class="cls-9" d="M347.31615,1540.76475h0a8.56755,8.56755,0,0,0-8.20845,8.86268l2.49881,65.31993a8.56365,8.56365,0,0,0,8.86091,8.20846h0a8.5667,8.5667,0,0,0,8.20934-8.86091l-2.4997-65.32011A8.56612,8.56612,0,0,0,347.31615,1540.76475Z"/><path class="cls-9" d="M429.46805,1519.93392c22.192-92.84873,61.30727-224.52447,121.63329-324.54755,13.97926-23.17674,19.65355-31.81846,29.71755-44.12142,8.09974-9.89677-.12762-35.43162-16.9138-49.47133-15.75049-13.17479-42.94078-15.33438-47.96774-10.67174-8.55015,7.92881-18.77731,24.01233-34.77457,49.58871-55.58222,88.861-98.41943,207.85213-131.49807,364.476Z"/><path class="cls-25" d="M789.90719,873.36609a78.69312,78.69312,0,0,1,0,32.67649c-3.78572,18.17754-22.27048-26.50512-22.27048-26.50512Z"/><path class="cls-9" d="M792.10652,911.28521c-4.61438-35.14667-31.986-60.53656-61.13209-56.71128-29.148,3.829-49.03631,35.423-44.42369,70.56963,4.616,35.14507,31.98588,60.53655,61.13209,56.7095C776.83083,978.02583,796.719,946.4301,792.10652,911.28521Z"/><path class="cls-7" d="M685.2232,906.76751l25.76446-2.67222a18.75249,18.75249,0,0,0,13.91368-8.431c5.27886-8.262,11.63159-12.50519,35.668-11.604,30.434,1.14458,50.52771-16.99848,53.81632-32.925,3.35756-16.25446-12.21846-27.27142-27.50458-19.52221-15.2877,7.7508-8.72444-11.25348-23.42527-13.27148-27.46834-3.76854-32.61425,17.40417-55.10232,16.71706-29.4897-.90452-82.31169,21.504-57.26014,73.41455Z"/><path class="cls-14" d="M742.12945,915.52484a1.08,1.08,0,0,0-.48506-1.98866c-.34873-.02757-8.38787-1.46736-12.43765,7.0812a1.08586,1.08586,0,0,0,.48505,1.4465,1.18539,1.18539,0,0,0,1.44827-.48505,18.46474,18.46474,0,0,1,10.3265-5.88995A1.08256,1.08256,0,0,0,742.12945,915.52484Z"/><path class="cls-14" d="M737.45125,929.36781c.6767,2.484,2.68778,4.098,4.49012,3.60609,1.80216-.49018,2.71358-2.90361,2.03691-5.38757-.67844-2.48414-2.68778-4.1-4.48994-3.608C737.68441,924.47042,736.77122,926.88367,737.45125,929.36781Z"/><path class="cls-14" d="M782.04747,912.32266a.78968.78968,0,0,0,.58351-.53861,1.29845,1.29845,0,0,0-.41947-1.4587c-.24854-.17094-5.78636-4.79893-11.00141,1.24817a1.28492,1.28492,0,0,0-.02068,1.50872.79943.79943,0,0,0,1.19287.16228c3.97554-2.636,8.928-1.19125,9.13366-1.04966A.72539.72539,0,0,0,782.04747,912.32266Z"/><path class="cls-14" d="M772.20779,923.381c-.31925,2.55326.92362,4.8129,2.77757,5.04429,1.85572.233,3.61652-1.64873,3.93594-4.20516.321-2.555-.92361-4.8129-2.77757-5.04588C774.28977,918.94285,772.52724,920.82456,772.20779,923.381Z"/><path class="cls-25" d="M651.09331,908.47316s17.79094,38.39551,43.02368,41.21268c0,0-20.40093-29.26184,22.60189-47.09414C716.71888,902.5917,677.23412,896.379,651.09331,908.47316Z"/><path class="cls-9" d="M686.66475,929.663c5.398,3.43338,12.25983,2.30613,15.32731-2.51525,3.06768-4.82138,1.18082-11.51422-4.21542-14.94761-5.39641-3.43356-12.25823-2.30807-15.32568,2.51331C679.38151,919.53662,681.26837,926.22945,686.66475,929.663Z"/><path class="cls-25" d="M716.71888,902.5917s-3.44559,32.22237,3.11414,38.3126c6.55814,6.092,49.863,8.71242,70.07417.90294h0c.33671,20.69613-14.25028,38.96682-34.66164,42.39349a61.14942,61.14942,0,0,1-20.67546-.0707h0c-14.14666-2.47389-27.90319-8.32407-33.73446-21.44883-1.77635-3.99286,3.38849-28.56113,3.38849-28.56113s1.93866-14.41941-6.44748-21.91991C697.77664,912.20016,707.46094,903.49622,716.71888,902.5917Z"/><path class="cls-7" d="M783.61152,829.07887c-7.98219,0-8.70217-6.88958-8.7073-6.96029l1.44492-.1347c.02245.24.65086,5.8348,7.66117,5.63629l.0449,1.4518C783.905,829.0771,783.75647,829.07887,783.61152,829.07887Z"/><path class="cls-12" d="M769.1921,875.529l-.202-.69559c.32628-.09492,32.7074-9.6965,34.04872-26.36689.37811-4.71285-.409-7.84414-2.40972-9.56693-3.20921-2.76378-9.05253-1.39842-14.20888-.19692-.79423.18649-1.56759.36609-2.31144.5266l-.15379-.70956c.74067-.1605,1.51226-.3401,2.30119-.52306,5.32375-1.24109,11.35883-2.65153,14.84581.3539,2.19067,1.88506,3.059,5.21151,2.66194,10.17465-.57486,7.12592-6.74976,14.0604-17.86165,20.05041A96.99144,96.99144,0,0,1,769.1921,875.529Z"/><path class="cls-12" d="M705.41183,841.72034a72.56019,72.56019,0,0,1-9.71011-.66978l.09829-.72c16.53251,2.23719,28.44022-1.60719,35.51434-5.22883a39.33253,39.33253,0,0,0,11.47286-8.43967l.55753.46437C743.21007,827.29049,730.85705,841.72034,705.41183,841.72034Z"/><path class="cls-12" d="M765.44089,964.37112c0,4.1569-2.14916,7.53-4.80424,7.53-2.65313,0-4.80405-3.37311-4.80405-7.53,0-4.1585,2.15092-7.52984,4.80405-7.52984C763.29173,956.84128,765.44089,960.21262,765.44089,964.37112Z"/><path class="cls-16" d="M439.496,1304.947a10.00736,10.00736,0,0,1-3.0392-.4695c-3.55164-1.12726-6.2205-4.13782-7.51605-8.47432a24.99382,24.99382,0,0,1,7.94861-25.03423c3.55942-2.79649,7.4747-3.71657,11.02721-2.58755,3.55185,1.12726,6.22069,4.13782,7.51535,8.47414a24.98487,24.98487,0,0,1-7.94772,25.03423A13.034,13.034,0,0,1,439.496,1304.947Zm5.398-33.4739a9.57323,9.57323,0,0,0-5.809,2.29252,21.46508,21.46508,0,0,0-6.73756,21.21919c.94854,3.17619,2.78959,5.34268,5.18482,6.10225,2.39434.75622,5.14946.05356,7.7561-1.992a21.47006,21.47006,0,0,0,6.73756-21.221c-.94855-3.17637-2.7896-5.34285-5.18482-6.104A6.432,6.432,0,0,0,444.894,1271.47314Z"/><path class="cls-7" d="M899.51449,1140.02685c-5.928-21.44864-25.92851-48.4284-26.12879-48.69779l1.89373-1.4138c.20541.27452,20.46655,27.60127,26.512,49.48335Z"/><path class="cls-7" d="M710.04867,1783.27177l-2.33386-.37458c.16048-.99963,16.19913-100.4841,27.22826-136.06915,11.13257-35.92,58.70152-65.8863,59.17968-66.18486l1.24976,2.00756c-.47127.29521-47.30291,29.80046-58.17156,64.87642C726.22022,1682.95348,710.20741,1782.27391,710.04867,1783.27177Z"/><path class="cls-21" d="M1121.77241,868.26506l265.78221-216.06075a29.59951,29.59951,0,0,1,47.62927,16.84663l72.77058,344.22355a29.59947,29.59947,0,0,1-32.41241,35.51948l-304.36761-35.74044A29.60067,29.60067,0,0,1,1146.8671,993.923l-34.18522-92.4206A29.60021,29.60021,0,0,1,1121.77241,868.26506Z"/><path class="cls-20" d="M988.11651,903.51l141.71587-29.9592a31.2941,31.2941,0,0,1,37.58749,27.28521l6.60481,61.6898a31.29748,31.29748,0,0,1-22.117,33.303L1006.503,1039.48937a31.29476,31.29476,0,0,1-38.7045-20.13154L950.89316,968.326A50.13424,50.13424,0,0,1,988.11651,903.51Z"/><path class="cls-6" d="M1153.1592,1010.93884l-44.66,4.01867a18.71462,18.71462,0,0,1-19.98322-14.76818L1067.162,899.17881a18.71,18.71,0,0,1,12.03551-21.50043l42.32632-15.0565a18.71549,18.71549,0,0,1,24.58011,13.76166l23.686,112.04657A18.71431,18.71431,0,0,1,1153.1592,1010.93884Z"/><path class="cls-20" d="M1083.10592,1160.83877h0a24.82151,24.82151,0,0,1-29.419-19.15117l-25.91808-122.59227A24.82374,24.82374,0,0,1,1046.92,989.67651h0a24.82293,24.82293,0,0,1,29.41882,19.151l25.91648,122.59227A24.823,24.823,0,0,1,1083.10592,1160.83877Z"/><path class="cls-20" d="M1121.77241,868.26506l265.78221-216.06075s43.04953-4.81449,47.62927,16.84663l72.77058,344.22355a29.59947,29.59947,0,0,1-32.41241,35.51948l-304.36761-35.74044A29.60067,29.60067,0,0,1,1146.8671,993.923l-34.18522-92.4206A29.60021,29.60021,0,0,1,1121.77241,868.26506Z"/><path class="cls-28" d="M1128.7327,1108.16526s12.02861,26.18571-11.951,36.99727c-30.553,13.77385-81.82293,1.63988-62.58393-7.35378,17.05734-7.9737,43.99732-13.49421,43.99732-13.49421s-68.69318,13.085-66.53363-2.10779c2.15959-15.19455,61.3824-25.6402,61.3824-25.6402s-68.082,6.43033-61.39265-7.26238c6.68753-13.69272,60.40186-23.51349,60.40186-23.51349s-66.19865,9.8692-58.05769-5.85194,43.40865-13.8877,58.52542-16.52386c14.28666-2.49085,20.51848,5.91081,21.93388,19.86409,0,0,9.48578,13.07314,8.10663,22.42069-.52659,3.58559,3.28158,6.39074,4.01531,8.83511C1127.98,1099.213,1128.7327,1108.16526,1128.7327,1108.16526Z"/></g></svg>